SplineFontDB: 3.2
FontName: Industrophe
FullName: Industrophe
FamilyName: Industrophe
Weight: Regular
Copyright: Copyright 2024-2025 Pinsiau19.
UComments: "2024-11-10: Created with FontForge (http://fontforge.org)"
Version: 0.1.1
ItalicAngle: 0
UnderlinePosition: -100
UnderlineWidth: 50
Ascent: 800
Descent: 200
InvalidEm: 0
LayerCount: 4
Layer: 0 0 "Back" 1
Layer: 1 0 "Fore" 0
Layer: 2 0 "Back 2" 1
Layer: 3 0 "Back 3" 1
XUID: [1021 293 -1482489819 7946]
StyleMap: 0x0000
FSType: 0
OS2Version: 0
OS2_WeightWidthSlopeOnly: 0
OS2_UseTypoMetrics: 1
CreationTime: 1731236793
ModificationTime: 1740069392
PfmFamily: 17
TTFWeight: 400
TTFWidth: 5
LineGap: 90
VLineGap: 90
OS2TypoAscent: 0
OS2TypoAOffset: 1
OS2TypoDescent: 0
OS2TypoDOffset: 1
OS2TypoLinegap: 90
OS2WinAscent: 800
OS2WinAOffset: 0
OS2WinDescent: 200
OS2WinDOffset: 0
HheadAscent: 800
HheadAOffset: 0
HheadDescent: -200
HheadDOffset: 0
OS2CapHeight: 720
OS2XHeight: 500
OS2Vendor: 'PfEd'
Lookup: 1 0 0 "'cv03' Five with a Hook lookup 9" { "'cv03' Five with a Hook lookup 9-1" ("cv03") } ['cv03' ('DFLT' <'dflt' > 'cyrl' <'BGR ' 'dflt' > 'grek' <'dflt' > 'latn' <'dflt' > ) ]
Lookup: 1 0 0 "'cv04' Zero with a Dot lookup 10" { "'cv04' Zero with a Dot lookup 10-1" ("cv04") } ['cv04' ('DFLT' <'dflt' > 'cyrl' <'BGR ' 'dflt' > 'grek' <'dflt' > 'latn' <'dflt' > ) ]
Lookup: 1 0 0 "'zero' Slashed Zero lookup 7" { "'zero' Slashed Zero lookup 7-1" ("zero") } ['zero' ('DFLT' <'dflt' > 'cyrl' <'BGR ' 'dflt' > 'grek' <'dflt' > 'latn' <'dflt' > ) ]
Lookup: 1 0 0 "'ss01' Style Set 1 lookup 6" { "'ss01' Style Set 1 lookup 6-1" ("ss01") } ['ss01' ('DFLT' <'dflt' > 'cyrl' <'BGR ' 'dflt' > 'grek' <'dflt' > 'latn' <'dflt' > ) ]
Lookup: 1 0 0 "'cv01' Zero with Thick Horizontials lookup 4" { "'cv01' Zero with Thick Horizontials lookup 4-1"  } ['cv01' ('DFLT' <'dflt' > 'grek' <'dflt' > 'latn' <'dflt' > ) ]

StartChar: zero
Encoding: 48 48 0
Width: 550
Flags: W
HStem: 0 50<160 390> 670 50<160 390>
VStem: 70 90<50 670> 390 90<50 670>
LayerCount: 4
Fore
SplineSet
70 0 m 1
 70 720 l 1
 480 720 l 1
 480 0 l 1
 70 0 l 1
160 50 m 1
 390 50 l 1
 390 670 l 1
 160 670 l 1
 160 50 l 1
EndSplineSet
Substitution2: "'cv04' Zero with a Dot lookup 10-1" zero.cv04
Substitution2: "'zero' Slashed Zero lookup 7-1" zero.zero
Substitution2: "'cv01' Zero with Thick Horizontials lookup 4-1" zero.cv01
Substitution2: "'numr' Numerators lookup 0 subtable" zero.numr
Substitution2: "'dnom' Denominators lookup 0 subtable" zero.dnom
Substitution2: "'subs' Subscript lookup 0 subtable" zero.subscript
Substitution2: "'sups' Superscript lookup 0 subtable" zero.superior
EndChar

StartChar: one
Encoding: 49 49 1
Width: 550
Flags: W
HStem: 0 50<80 240 330 480> 670 50<80 240>
VStem: 240 90<50 670>
LayerCount: 4
Fore
SplineSet
80 0 m 1
 80 50 l 1
 240 50 l 1
 240 670 l 1
 80 670 l 1
 80 720 l 1
 330 720 l 1
 330 50 l 1
 480 50 l 1
 480 0 l 1
 80 0 l 1
EndSplineSet
Layer: 2
SplineSet
120 0 m 1
 120 50 l 1
 240 50 l 1
 240 690 l 1
 290 680 l 1
 120 610 l 1
 120 670 l 1
 290 740 l 1
 330 740 l 1
 330 50 l 1
 440 50 l 1
 440 0 l 1
 120 0 l 1
EndSplineSet
Substitution2: "'ss01' Style Set 1 lookup 6-1" one.ss01
Substitution2: "'numr' Numerators lookup 0 subtable" one.numr
Substitution2: "'dnom' Denominators lookup 0 subtable" one.dnom
Substitution2: "'subs' Subscript lookup 0 subtable" one.subscript
Substitution2: "'sups' Superscript lookup 0 subtable" one.superior
EndChar

StartChar: two
Encoding: 50 50 2
Width: 550
Flags: W
HStem: 0 80<130 500> 320 50<130 390> 670 50<140 390>
VStem: 70 70<560 670> 70 60<80 320> 390 90<370 670>
LayerCount: 4
Fore
SplineSet
70 0 m 1xec
 70 370 l 1xec
 390 370 l 1
 390 670 l 1
 140 670 l 1
 140 560 l 1
 70 560 l 1xf4
 70 720 l 1
 480 720 l 1
 480 320 l 1
 130 320 l 1
 130 80 l 1
 500 80 l 1
 500 0 l 1
 70 0 l 1xec
EndSplineSet
Substitution2: "'numr' Numerators lookup 0 subtable" two.numr
Substitution2: "'dnom' Denominators lookup 0 subtable" two.dnom
Substitution2: "'subs' Subscript lookup 0 subtable" two.subscript
Substitution2: "'sups' Superscript lookup 0 subtable" two.superior
EndChar

StartChar: three
Encoding: 51 51 3
Width: 550
Flags: W
HStem: 0 150<60 140> 0 50<140 390> 350 50<140 320> 580 140<70 140> 670 50<140 380>
VStem: 60 80<50 150> 70 70<580 670> 380 90<480 670> 390 90<50 350>
LayerCount: 4
Back
SplineSet
60 0 m 5xd9
 60 150 l 5
 140 150 l 5
 140 50 l 5
 390 50 l 5
 390 340 l 5xd9
 160 340 l 13
 160 380 l 29
 360 640 l 13
 70 640 l 29xd6
 70 720 l 29xe6
 450 720 l 21
 450 680 l 5xd6
 250 420 l 5
 480 420 l 5
 480 0 l 5
 60 0 l 5xd9
EndSplineSet
Fore
SplineSet
60 0 m 1xa480
 60 150 l 1
 140 150 l 1xa480
 140 50 l 1
 390 50 l 1
 390 350 l 1x6480
 140 350 l 1
 140 400 l 1
 320 400 l 1
 380 460 l 1
 380 670 l 1
 140 670 l 1x6b
 140 580 l 1
 70 580 l 1
 70 720 l 1x33
 470 720 l 1
 470 480 l 1x2b
 390 400 l 1
 480 400 l 1
 480 0 l 1x6880
 60 0 l 1xa480
EndSplineSet
Layer: 2
SplineSet
60 0 m 1xd9
 60 170 l 1
 140 170 l 1
 140 50 l 1
 390 50 l 1
 390 350 l 1xd9
 140 350 l 9
 140 400 l 25
 320 400 l 17
 380 460 l 1
 380 670 l 9
 140 670 l 25xd6
 140 580 l 25
 70 580 l 25
 70 720 l 25xe6
 470 720 l 17
 470 480 l 1xd6
 390 400 l 1
 480 400 l 1
 480 0 l 1
 60 0 l 1xd9
EndSplineSet
Substitution2: "'ss01' Style Set 1 lookup 6-1" three.ss01
Substitution2: "'cv02' Three with Two Sharp Turnings lookup 5-1" three.cv02
Substitution2: "'numr' Numerators lookup 0 subtable" three.numr
Substitution2: "'dnom' Denominators lookup 0 subtable" three.dnom
Substitution2: "'subs' Subscript lookup 0 subtable" three.subscript
Substitution2: "'sups' Superscript lookup 0 subtable" three.superior
EndChar

StartChar: four
Encoding: 52 52 4
Width: 550
Flags: W
HStem: 0 21G<360 450> 210 50<150 360 450 510> 700 20G<60 150 360 450>
VStem: 60 90<260 720> 360 90<0 210 260 720>
LayerCount: 4
Fore
SplineSet
360 0 m 1
 360 210 l 1
 60 210 l 1
 60 720 l 1
 150 720 l 1
 150 260 l 1
 360 260 l 1
 360 720 l 1
 450 720 l 1
 450 260 l 1
 510 260 l 1
 510 210 l 1
 450 210 l 1
 450 0 l 1
 360 0 l 1
EndSplineSet
Substitution2: "'ss01' Style Set 1 lookup 6-1" four.ss01
Substitution2: "'numr' Numerators lookup 0 subtable" four.numr
Substitution2: "'dnom' Denominators lookup 0 subtable" four.dnom
Substitution2: "'subs' Subscript lookup 0 subtable" four.subscript
Substitution2: "'sups' Superscript lookup 0 subtable" four.superior
EndChar

StartChar: five
Encoding: 53 53 5
Width: 550
Flags: W
HStem: 0 160<60 140> 0 50<140 390> 350 80<130 390> 640 80<130 490>
VStem: 60 80<50 160> 70 60<430 640> 390 90<50 350>
LayerCount: 4
Back
SplineSet
60 0 m 25xba
 60 160 l 25
 140 160 l 25xba
 140 50 l 25x7a
 390 50 l 25
 390 370 l 25
 70 370 l 25
 70 720 l 25
 490 720 l 25
 490 640 l 25
 130 640 l 25
 130 420 l 25
 480 420 l 25
 480 0 l 25x76
 60 0 l 25xba
EndSplineSet
Fore
SplineSet
60 0 m 1xba
 60 160 l 1
 140 160 l 1xba
 140 50 l 1x7a
 390 50 l 1
 390 350 l 1
 70 350 l 1
 70 720 l 1
 490 720 l 1
 490 640 l 1
 130 640 l 1
 130 430 l 1
 480 430 l 1
 480 0 l 1x76
 60 0 l 1xba
EndSplineSet
Layer: 2
SplineSet
60 0 m 25xba
 60 160 l 25
 140 160 l 25xba
 140 50 l 25x7a
 390 50 l 25
 390 380 l 17
 180 380 l 1
 130 330 l 1
 70 330 l 9
 70 720 l 25
 490 720 l 25
 490 640 l 25
 130 640 l 25
 130 400 l 17
 160 430 l 1
 480 430 l 9
 480 0 l 25x76
 60 0 l 25xba
EndSplineSet
Layer: 3
SplineSet
60 0 m 25xba
 60 160 l 25
 140 160 l 25xba
 140 50 l 25x7a
 390 50 l 25
 390 350 l 25
 70 350 l 25
 70 720 l 17
 420 720 l 1
 420 800 l 1
 490 800 l 9
 490 640 l 25
 130 640 l 25
 130 430 l 25
 480 430 l 25
 480 0 l 25x76
 60 0 l 25xba
EndSplineSet
Substitution2: "'cv03' Five with a Hook lookup 9-1" five.cv03
Substitution2: "'ss01' Style Set 1 lookup 6-1" five.ss01
Substitution2: "'numr' Numerators lookup 0 subtable" five.numr
Substitution2: "'dnom' Denominators lookup 0 subtable" five.dnom
Substitution2: "'subs' Subscript lookup 0 subtable" five.subscript
Substitution2: "'sups' Superscript lookup 0 subtable" five.superior
EndChar

StartChar: six
Encoding: 54 54 6
Width: 550
Flags: W
HStem: 0 50<160 390> 370 50<160 390> 670 50<160 460>
VStem: 70 90<50 370 420 670> 390 90<50 370>
LayerCount: 4
Fore
SplineSet
70 0 m 1
 70 720 l 1
 460 720 l 1
 460 670 l 1
 160 670 l 1
 160 420 l 1
 480 420 l 1
 480 0 l 1
 70 0 l 1
160 50 m 1
 390 50 l 1
 390 370 l 1
 160 370 l 1
 160 50 l 1
EndSplineSet
Substitution2: "'numr' Numerators lookup 0 subtable" six.numr
Substitution2: "'dnom' Denominators lookup 0 subtable" six.dnom
Substitution2: "'subs' Subscript lookup 0 subtable" six.subscript
Substitution2: "'sups' Superscript lookup 0 subtable" six.superior
EndChar

StartChar: seven
Encoding: 55 55 7
Width: 550
Flags: W
HStem: 0 21G<170 286.765> 640 80<120 437>
VStem: 60 60<470 640>
LayerCount: 4
Fore
SplineSet
437 640 m 1
 120 640 l 1
 120 470 l 1
 60 470 l 1
 60 720 l 1
 510 720 l 1
 510 680 l 1
 280 0 l 1
 170 0 l 1
 437 640 l 1
EndSplineSet
Layer: 2
SplineSet
170 0 m 1
 430 670 l 1
 460 640 l 1
 40 640 l 1
 40 720 l 1xa0
 500 720 l 1
 500 680 l 1
 280 0 l 1
 170 0 l 1
EndSplineSet
Substitution2: "'ss01' Style Set 1 lookup 6-1" seven.ss01
Substitution2: "'numr' Numerators lookup 0 subtable" seven.numr
Substitution2: "'dnom' Denominators lookup 0 subtable" seven.dnom
Substitution2: "'subs' Subscript lookup 0 subtable" seven.subscript
Substitution2: "'sups' Superscript lookup 0 subtable" seven.superior
EndChar

StartChar: eight
Encoding: 56 56 8
Width: 550
Flags: W
HStem: 0 50<160 400> 330 80<220 320 390 400> 670 50<160 380>
VStem: 70 90<50 250> 80 80<410 670> 380 90<490 670> 400 80<50 330>
LayerCount: 4
Fore
SplineSet
160 410 m 1xec
 320 410 l 1
 380 470 l 1
 380 670 l 1
 160 670 l 1
 160 410 l 1xec
160 50 m 1xf0
 400 50 l 1
 400 330 l 1
 220 330 l 1
 160 270 l 1xea
 160 50 l 1xf0
70 0 m 1xf2
 70 250 l 1xf2
 150 330 l 1
 80 330 l 1
 80 720 l 1
 470 720 l 1
 470 490 l 1xec
 390 410 l 1
 480 410 l 1
 480 0 l 1
 70 0 l 1xf2
EndSplineSet
Substitution2: "'ss01' Style Set 1 lookup 6-1" eight.ss01
Substitution2: "'numr' Numerators lookup 0 subtable" eight.numr
Substitution2: "'dnom' Denominators lookup 0 subtable" eight.dnom
Substitution2: "'subs' Subscript lookup 0 subtable" eight.subscript
Substitution2: "'sups' Superscript lookup 0 subtable" eight.superior
EndChar

StartChar: nine
Encoding: 57 57 9
Width: 550
Flags: W
HStem: 0 21G<200 320.968> 310 50<160 380> 670 50<160 390>
VStem: 70 90<360 670> 390 90<360 670>
LayerCount: 4
Fore
SplineSet
200 0 m 1
 380 310 l 1
 70 310 l 1
 70 720 l 1
 480 720 l 1
 480 310 l 1
 310 0 l 1
 200 0 l 1
390 670 m 1
 160 670 l 1
 160 360 l 1
 390 360 l 1
 390 670 l 1
EndSplineSet
Substitution2: "'ss01' Style Set 1 lookup 6-1" nine.ss01
Substitution2: "'numr' Numerators lookup 0 subtable" nine.numr
Substitution2: "'dnom' Denominators lookup 0 subtable" nine.dnom
Substitution2: "'subs' Subscript lookup 0 subtable" nine.subscript
Substitution2: "'sups' Superscript lookup 0 subtable" nine.superior
EndChar

StartChar: period
Encoding: 46 46 10
Width: 250
Flags: W
HStem: 0 130<65 185>
VStem: 65 120<0 130>
LayerCount: 4
Fore
SplineSet
65 0 m 1
 65 130 l 1
 185 130 l 1
 185 0 l 1
 65 0 l 1
EndSplineSet
EndChar

StartChar: comma
Encoding: 44 44 11
Width: 250
Flags: W
HStem: 0 130<65 135>
VStem: 65 120<0 130>
LayerCount: 4
Fore
SplineSet
65 0 m 1
 65 130 l 1
 185 130 l 1
 185 0 l 1
 110 -140 l 1
 50 -140 l 1
 135 0 l 1
 65 0 l 1
EndSplineSet
EndChar

StartChar: A
Encoding: 65 65 12
Width: 570
Flags: W
HStem: 0 21G<80 170 400 490> 230 50<170 400> 670 50<170 400>
VStem: 80 90<0 230 280 670> 400 90<0 230 280 670>
AnchorPoint: "bottom" 285 -30 basechar 0
AnchorPoint: "top" 285 770 basechar 0
AnchorPoint: "ogonek" 440 0 basechar 0
LayerCount: 4
Fore
SplineSet
80 0 m 1
 80 720 l 1
 490 720 l 1
 490 0 l 1
 400 0 l 1
 400 230 l 1
 170 230 l 1
 170 0 l 1
 80 0 l 1
170 280 m 1
 400 280 l 1
 400 670 l 1
 170 670 l 1
 170 280 l 1
EndSplineSet
EndChar

StartChar: B
Encoding: 66 66 13
Width: 570
Flags: W
HStem: 0 50<170 400> 360 50<170 300 370 400> 670 50<170 380>
VStem: 80 90<50 360 410 670> 380 90<510 670> 400 90<50 360>
AnchorPoint: "bottom" 280 -30 basechar 0
AnchorPoint: "top" 280 770 basechar 0
LayerCount: 4
Fore
SplineSet
170 410 m 1xf8
 300 410 l 1
 380 490 l 1
 380 670 l 1
 170 670 l 1
 170 410 l 1xf8
170 50 m 1
 400 50 l 1
 400 360 l 1xf4
 170 360 l 1
 170 50 l 1
80 0 m 1
 80 720 l 1
 470 720 l 1
 470 510 l 1xf8
 370 410 l 1
 490 410 l 1
 490 0 l 1
 80 0 l 1
EndSplineSet
EndChar

StartChar: C
Encoding: 67 67 14
Width: 550
Flags: W
HStem: 0 120<410 490> 0 50<170 410> 670 50<170 410>
VStem: 80 90<50 670> 410 80<50 120 520 670>
AnchorPoint: "bottom" 290 -30 basechar 0
AnchorPoint: "top" 290 770 basechar 0
LayerCount: 4
Fore
SplineSet
80 0 m 1x78
 80 720 l 1
 490 720 l 1
 490 520 l 1
 410 520 l 1
 410 670 l 1
 170 670 l 1
 170 50 l 1
 410 50 l 1x78
 410 120 l 1
 490 120 l 1
 490 0 l 1xb8
 80 0 l 1x78
EndSplineSet
EndChar

StartChar: D
Encoding: 68 68 15
Width: 570
Flags: W
HStem: 0 50<170 340> 670 50<70 340>
VStem: 80 90<50 520> 400 90<110 610>
AnchorPoint: "bottom" 280 -30 basechar 0
AnchorPoint: "top" 280 770 basechar 0
LayerCount: 4
Fore
SplineSet
80 0 m 1
 80 520 l 1
 170 520 l 1
 170 50 l 1
 340 50 l 1
 400 110 l 1
 400 610 l 1
 340 670 l 1
 70 670 l 1
 70 720 l 1
 380 720 l 1
 490 610 l 1
 490 110 l 1
 380 0 l 1
 80 0 l 1
EndSplineSet
EndChar

StartChar: E
Encoding: 69 69 17
Width: 520
Flags: W
HStem: 0 50<170 460> 350 50<170 430> 670 50<170 460>
VStem: 80 90<50 350 400 670>
AnchorPoint: "bottom" 290 -30 basechar 0
AnchorPoint: "top" 290 770 basechar 0
AnchorPoint: "ogonek" 400 0 basechar 0
LayerCount: 4
Fore
SplineSet
80 0 m 1
 80 720 l 1
 460 720 l 1
 460 670 l 1
 170 670 l 1
 170 400 l 1
 430 400 l 1
 430 350 l 1
 170 350 l 1
 170 50 l 1
 460 50 l 1
 460 0 l 1
 80 0 l 1
EndSplineSet
EndChar

StartChar: F
Encoding: 70 70 18
Width: 450
Flags: W
HStem: 0 21G<80 170> 280 50<170 400> 670 50<170 420>
VStem: 80 90<0 280 330 670>
AnchorPoint: "bottom" 125 -30 basechar 0
AnchorPoint: "top" 260 770 basechar 0
LayerCount: 4
Fore
SplineSet
80 0 m 1
 80 720 l 1
 420 720 l 1
 420 670 l 1
 170 670 l 1
 170 330 l 1
 400 330 l 1
 400 280 l 1
 170 280 l 1
 170 0 l 1
 80 0 l 1
EndSplineSet
EndChar

StartChar: G
Encoding: 71 71 19
Width: 570
Flags: W
HStem: 0 50<170 400> 300 50<330 400> 570 150<410 490> 670 50<170 410>
VStem: 80 90<50 670> 400 90<50 300> 410 80<570 670>
AnchorPoint: "bottom" 285 -30 basechar 0
AnchorPoint: "top" 285 770 basechar 0
LayerCount: 4
Fore
SplineSet
80 0 m 1xda
 80 720 l 1xda
 490 720 l 1
 490 570 l 1
 410 570 l 1xea
 410 670 l 1xda
 170 670 l 1
 170 50 l 1
 400 50 l 1
 400 300 l 1xdc
 330 300 l 1
 330 350 l 1
 490 350 l 1
 490 0 l 1
 80 0 l 1xda
EndSplineSet
EndChar

StartChar: H
Encoding: 72 72 20
Width: 570
Flags: W
HStem: 0 21G<80 170 400 490> 360 50<170 400> 700 20G<80 170 400 490>
VStem: 80 90<0 360 410 720> 400 90<0 360 410 720>
AnchorPoint: "top" 285 770 basechar 0
AnchorPoint: "bottom" 285 -30 basechar 0
AnchorPoint: "ogonek" 445 0 basechar 0
LayerCount: 4
Fore
SplineSet
80 0 m 1
 80 720 l 1
 170 720 l 1
 170 410 l 1
 400 410 l 1
 400 720 l 1
 490 720 l 1
 490 0 l 1
 400 0 l 1
 400 360 l 1
 170 360 l 1
 170 0 l 1
 80 0 l 1
EndSplineSet
EndChar

StartChar: I
Encoding: 73 73 21
Width: 270
Flags: W
HStem: 0 21G<90 180> 700 20G<90 180>
VStem: 90 90<0 720>
AnchorPoint: "bottom" 135 -30 basechar 0
AnchorPoint: "top" 135 770 basechar 0
AnchorPoint: "ogonek" 135 0 basechar 0
LayerCount: 4
Fore
SplineSet
90 0 m 1
 90 720 l 1
 180 720 l 1
 180 0 l 1
 90 0 l 1
EndSplineSet
EndChar

StartChar: J
Encoding: 74 74 22
Width: 520
Flags: W
HStem: 0 50<160 350> 670 50<140 350>
VStem: 80 80<50 200> 350 90<50 670>
AnchorPoint: "bottom" 260 -30 basechar 0
AnchorPoint: "top" 300 770 basechar 0
LayerCount: 4
Fore
SplineSet
80 0 m 1
 80 200 l 1
 160 200 l 1
 160 50 l 1
 350 50 l 1
 350 670 l 1
 140 670 l 1
 140 720 l 1
 440 720 l 1
 440 0 l 1
 80 0 l 1
EndSplineSet
EndChar

StartChar: K
Encoding: 75 75 23
Width: 540
Flags: W
HStem: 0 21G<80 170 370 460> 350 50<170 270 360 370> 700 20G<80 170 373.125 480>
VStem: 80 90<0 350 400 720> 370 90<0 350>
AnchorPoint: "bottom" 280 -30 basechar 0
AnchorPoint: "top" 280 770 basechar 0
LayerCount: 4
Fore
SplineSet
80 0 m 1
 80 720 l 1
 170 720 l 1
 170 400 l 1
 270 400 l 1
 380 720 l 1
 480 720 l 1
 360 400 l 1
 460 400 l 1
 460 0 l 1
 370 0 l 1
 370 350 l 1
 170 350 l 1
 170 0 l 1
 80 0 l 1
EndSplineSet
Layer: 2
SplineSet
70 0 m 17xbc
 70 720 l 17
 160 720 l 9
 160 400 l 25
 260 400 l 17
 360 500 l 1
 360 720 l 1
 450 720 l 1
 450 500 l 1
 350 400 l 1
 450 400 l 1
 450 0 l 1
 360 0 l 1
 360 350 l 1
 160 350 l 1
 160 0 l 9
 70 0 l 17xbc
EndSplineSet
EndChar

StartChar: L
Encoding: 76 76 24
Width: 450
Flags: W
HStem: 0 50<170 440> 700 20G<80 170>
VStem: 80 90<50 720>
AnchorPoint: "bottom" 270 -30 basechar 0
AnchorPoint: "top" 270 770 basechar 0
AnchorPoint: "dot" 390 400 basechar 0
AnchorPoint: "comma" 380 720 basechar 0
LayerCount: 4
Fore
SplineSet
80 0 m 1
 80 720 l 1
 170 720 l 1
 170 50 l 1
 440 50 l 1
 440 0 l 1
 80 0 l 1
EndSplineSet
EndChar

StartChar: M
Encoding: 77 77 25
Width: 820
Flags: W
HStem: 0 21G<80 170 365 455 650 740> 670 50<170 365 455 620>
VStem: 80 90<0 670> 365 90<0 670> 650 90<0 640>
CounterMasks: 1 38
AnchorPoint: "bottom" 410 -30 basechar 0
AnchorPoint: "top" 410 770 basechar 0
LayerCount: 4
Fore
SplineSet
80 0 m 1
 80 720 l 1
 660 720 l 1
 740 640 l 1
 740 0 l 1
 650 0 l 1
 650 640 l 1
 620 670 l 1
 455 670 l 1
 455 0 l 1
 365 0 l 1
 365 670 l 1
 170 670 l 1
 170 0 l 1
 80 0 l 1
EndSplineSet
EndChar

StartChar: N
Encoding: 78 78 26
Width: 570
Flags: W
HStem: 0 21G<80 170 400 490> 670 50<170 370>
VStem: 80 90<0 670> 400 90<0 640>
AnchorPoint: "bottom" 290 -30 basechar 0
AnchorPoint: "top" 290 770 basechar 0
LayerCount: 4
Fore
SplineSet
80 0 m 1
 80 720 l 1
 410 720 l 1
 490 640 l 1
 490 0 l 1
 400 0 l 1
 400 640 l 1
 370 670 l 1
 170 670 l 1
 170 0 l 1
 80 0 l 1
EndSplineSet
EndChar

StartChar: O
Encoding: 79 79 27
Width: 570
Flags: W
HStem: 0 50<170 400> 670 50<170 400>
VStem: 80 90<50 670> 400 90<50 670>
AnchorPoint: "top" 285 770 basechar 0
AnchorPoint: "bottom" 285 -30 basechar 0
AnchorPoint: "horn" 480 570 basechar 0
AnchorPoint: "ogonek" 285 0 basechar 0
LayerCount: 4
Fore
SplineSet
80 0 m 1
 80 720 l 1
 490 720 l 1
 490 0 l 1
 80 0 l 1
170 50 m 1
 400 50 l 1
 400 670 l 1
 170 670 l 1
 170 50 l 1
EndSplineSet
EndChar

StartChar: P
Encoding: 80 80 28
Width: 520
Flags: W
HStem: 0 21G<80 170> 290 50<170 360> 670 50<170 360>
VStem: 80 90<0 290 340 670> 360 90<340 670>
AnchorPoint: "bottom" 260 -30 basechar 0
AnchorPoint: "top" 260 770 basechar 0
LayerCount: 4
Fore
SplineSet
80 0 m 1
 80 720 l 1
 450 720 l 1
 450 290 l 1
 170 290 l 1
 170 0 l 1
 80 0 l 1
170 340 m 1
 360 340 l 1
 360 670 l 1
 170 670 l 1
 170 340 l 1
EndSplineSet
EndChar

StartChar: Q
Encoding: 81 81 29
Width: 570
Flags: W
HStem: 0 50<170 230 330 400> 670 50<170 400>
VStem: 80 90<50 670> 400 90<50 670>
AnchorPoint: "bottom" 285 -180 basechar 0
AnchorPoint: "top" 285 770 basechar 0
LayerCount: 4
Fore
SplineSet
80 0 m 1
 80 720 l 1
 490 720 l 1
 490 0 l 1
 330 0 l 1
 400 -150 l 1
 290 -150 l 1
 230 0 l 1
 80 0 l 1
170 50 m 1
 400 50 l 1
 400 670 l 1
 170 670 l 1
 170 50 l 1
EndSplineSet
EndChar

StartChar: R
Encoding: 82 82 30
Width: 570
Flags: W
HStem: 0 21G<80 170 431.515 540> 330 50<170 300 390 400> 670 50<170 400>
VStem: 80 90<0 330 380 670> 400 90<380 670>
AnchorPoint: "bottom" 300 -30 basechar 0
AnchorPoint: "top" 290 770 basechar 0
LayerCount: 4
Fore
SplineSet
80 0 m 1
 80 720 l 1
 490 720 l 1
 490 330 l 1
 390 330 l 1
 540 0 l 1
 440 0 l 1
 300 330 l 1
 170 330 l 1
 170 0 l 1
 80 0 l 1
170 380 m 1
 400 380 l 1
 400 670 l 1
 170 670 l 1
 170 380 l 1
EndSplineSet
Layer: 2
SplineSet
160 360 m 1x3c
 390 360 l 1
 390 670 l 1
 160 670 l 1
 160 360 l 1x3c
70 0 m 1xbc
 70 720 l 1
 480 720 l 1
 480 310 l 1
 380 310 l 1
 480 200 l 1
 480 0 l 1
 390 0 l 1
 390 200 l 1
 290 310 l 1
 160 310 l 9
 160 0 l 25
 70 0 l 1xbc
EndSplineSet
Layer: 3
SplineSet
80 0 m 5
 80 570 l 5
 170 570 l 5
 170 380 l 5
 400 380 l 5
 400 670 l 5
 70 670 l 5
 70 720 l 5
 490 720 l 5
 490 330 l 5
 390 330 l 5
 520 0 l 5
 420 0 l 5
 300 330 l 5
 170 330 l 13
 170 0 l 29
 80 0 l 5
EndSplineSet
EndChar

StartChar: S
Encoding: 83 83 31
Width: 570
Flags: W
HStem: 0 150<70 150> 0 50<150 400> 330 80<170 400> 600 120<410 490> 670 50<170 410>
VStem: 70 80<50 150> 80 90<410 670> 400 90<50 330> 410 80<600 670>
AnchorPoint: "bottom" 280 -30 basechar 0
AnchorPoint: "top" 280 770 basechar 0
LayerCount: 4
Fore
SplineSet
70 0 m 1xa480
 70 150 l 1
 150 150 l 1xa480
 150 50 l 1x6480
 400 50 l 1
 400 330 l 1
 80 330 l 1
 80 720 l 1x6b
 490 720 l 1
 490 600 l 1
 410 600 l 1x3280
 410 670 l 1
 170 670 l 1
 170 410 l 1
 490 410 l 1
 490 0 l 1x6a80
 70 0 l 1xa480
EndSplineSet
EndChar

StartChar: T
Encoding: 84 84 32
Width: 470
Flags: W
HStem: 0 21G<190 280> 670 50<30 190 280 440>
VStem: 190 90<0 670>
AnchorPoint: "bottom" 235 -30 basechar 0
AnchorPoint: "top" 235 770 basechar 0
LayerCount: 4
Fore
SplineSet
190 0 m 1
 190 670 l 1
 30 670 l 1
 30 720 l 1
 440 720 l 1
 440 670 l 1
 280 670 l 1
 280 0 l 1
 190 0 l 1
EndSplineSet
EndChar

StartChar: U
Encoding: 85 85 33
Width: 570
Flags: W
HStem: 0 50<200 400> 700 20G<80 170 400 490>
VStem: 80 90<80 720> 400 90<50 720>
AnchorPoint: "bottom" 285 -30 basechar 0
AnchorPoint: "horn" 480 570 basechar 0
AnchorPoint: "top" 285 770 basechar 0
AnchorPoint: "ogonek" 285 0 basechar 0
LayerCount: 4
Fore
SplineSet
160 0 m 1
 80 80 l 1
 80 720 l 1
 170 720 l 1
 170 80 l 1
 200 50 l 1
 400 50 l 1
 400 720 l 1
 490 720 l 1
 490 0 l 1
 160 0 l 1
EndSplineSet
EndChar

StartChar: V
Encoding: 86 86 34
Width: 540
Flags: W
HStem: 0 50<170 270> 700 20G<80 170 380 470>
VStem: 80 90<50 720> 380 90<160 720>
AnchorPoint: "bottom" 275 -30 basechar 0
AnchorPoint: "top" 275 770 basechar 0
LayerCount: 4
Fore
SplineSet
80 0 m 1
 80 720 l 1
 170 720 l 1
 170 50 l 1
 270 50 l 1
 380 160 l 1
 380 720 l 1
 470 720 l 1
 470 160 l 1
 310 0 l 1
 80 0 l 1
EndSplineSet
EndChar

StartChar: W
Encoding: 87 87 35
Width: 820
Flags: W
HStem: 0 50<170 365 455 620> 700 20G<80 170 365 455 650 740>
VStem: 80 90<50 720> 365 90<50 720> 650 90<80 720>
CounterMasks: 1 38
AnchorPoint: "bottom" 410 -30 basechar 0
AnchorPoint: "top" 410 770 basechar 0
LayerCount: 4
Fore
SplineSet
80 0 m 1
 80 720 l 1
 170 720 l 1
 170 50 l 1
 365 50 l 1
 365 720 l 1
 455 720 l 1
 455 50 l 1
 620 50 l 1
 650 80 l 1
 650 720 l 1
 740 720 l 1
 740 80 l 1
 660 0 l 1
 80 0 l 1
EndSplineSet
EndChar

StartChar: X
Encoding: 88 88 36
Width: 570
Flags: W
HStem: 0 21G<60 157.674 401.964 510> 700 20G<60 168.498 411.885 510>
AnchorPoint: "bottom" 285 -30 basechar 0
AnchorPoint: "top" 285 770 basechar 0
LayerCount: 4
Fore
SplineSet
60 0 m 1
 220 380 l 1
 60 720 l 1
 160 720 l 1
 293 407 l 1
 420 720 l 1
 510 720 l 1
 350 360 l 1
 510 0 l 1
 410 0 l 1
 277 331 l 1
 150 0 l 1
 60 0 l 1
EndSplineSet
Layer: 2
SplineSet
60 0 m 1xac
 60 190 l 9
 180 310 l 25
 60 430 l 9xac
 60 600 l 17
 140 600 l 9
 140 450 l 17
 240 350 l 1
 270 350 l 1
 360 440 l 1
 360 600 l 1
 430 600 l 1
 430 440 l 1
 310 320 l 1
 430 200 l 1xb2
 430 0 l 1
 350 0 l 1
 350 180 l 1
 250 280 l 1
 220 280 l 1
 130 190 l 1
 130 0 l 1
 60 0 l 1xac
EndSplineSet
EndChar

StartChar: Y
Encoding: 89 89 37
Width: 520
Flags: W
HStem: 0 21G<215 305> 310 50<160 215 305 360> 700 20G<70 160 360 450>
VStem: 70 90<360 720> 215 90<0 310> 360 90<360 720>
CounterMasks: 1 1c
AnchorPoint: "bottom" 260 -30 basechar 0
AnchorPoint: "top" 260 770 basechar 0
AnchorPoint: "ogonek" 260 0 basechar 0
LayerCount: 4
Fore
SplineSet
215 0 m 1
 215 310 l 1
 70 310 l 1
 70 720 l 1
 160 720 l 1
 160 360 l 1
 360 360 l 1
 360 720 l 1
 450 720 l 1
 450 310 l 1
 305 310 l 1
 305 0 l 1
 215 0 l 1
EndSplineSet
EndChar

StartChar: Z
Encoding: 90 90 38
Width: 520
Flags: W
HStem: 0 50<160 450> 670 50<70 350>
AnchorPoint: "bottom" 260 -30 basechar 0
AnchorPoint: "top" 260 770 basechar 0
LayerCount: 4
Fore
SplineSet
70 0 m 1
 70 70 l 1
 350 670 l 1
 70 670 l 1
 70 720 l 1
 440 720 l 1
 440 650 l 1
 160 50 l 1
 450 50 l 1
 450 0 l 1
 70 0 l 1
EndSplineSet
Layer: 2
SplineSet
60 0 m 25x6a80
 60 170 l 25
 340 450 l 25
 340 550 l 17
 60 550 l 1
 60 600 l 25
 420 600 l 25x6b
 420 430 l 25
 140 150 l 25
 140 50 l 25
 430 50 l 25x6480
 430 0 l 25xa480
 60 0 l 25x6a80
EndSplineSet
EndChar

StartChar: colon
Encoding: 58 58 39
Width: 250
Flags: W
HStem: 0 130<65 185> 370 130<65 185>
VStem: 65 120<0 130 370 500>
LayerCount: 4
Fore
SplineSet
65 0 m 1
 65 130 l 1
 185 130 l 1
 185 0 l 1
 65 0 l 1
65 370 m 1
 65 500 l 1
 185 500 l 1
 185 370 l 1
 65 370 l 1
EndSplineSet
EndChar

StartChar: semicolon
Encoding: 59 59 40
Width: 250
Flags: W
HStem: 370 130<65 185>
VStem: 65 120<40 130 370 500>
LayerCount: 4
Fore
SplineSet
65 0 m 1
 65 130 l 1
 185 130 l 1
 185 40 l 1
 130 -100 l 1
 70 -100 l 1
 115 0 l 1
 65 0 l 1
65 370 m 1
 65 500 l 1
 185 500 l 1
 185 370 l 1
 65 370 l 1
EndSplineSet
EndChar

StartChar: exclam
Encoding: 33 33 41
Width: 250
Flags: W
HStem: 0 110<75 175> 700 20G<75 175>
VStem: 75 100<0 110 370 720> 85 80<220 570>
LayerCount: 4
Fore
SplineSet
75 0 m 1xe0
 75 110 l 1
 175 110 l 1
 175 0 l 1
 75 0 l 1xe0
85 220 m 1xd0
 75 720 l 1
 175 720 l 1xe0
 165 220 l 1
 85 220 l 1xd0
EndSplineSet
EndChar

StartChar: quotedbl
Encoding: 34 34 42
Width: 400
Flags: W
HStem: 440 280<90 150 250 310>
VStem: 70 260
LayerCount: 4
Fore
SplineSet
70 720 m 1
 160 720 l 1
 150 440 l 1
 90 440 l 1
 70 720 l 1
240 720 m 1
 330 720 l 1
 310 440 l 1
 250 440 l 1
 240 720 l 1
EndSplineSet
EndChar

StartChar: quotesingle
Encoding: 39 39 43
Width: 250
Flags: W
HStem: 440 280<95 155>
VStem: 95 60<440 538>
LayerCount: 4
Fore
SplineSet
75 720 m 1
 175 720 l 1
 155 440 l 1
 95 440 l 1
 75 720 l 1
EndSplineSet
EndChar

StartChar: hyphen
Encoding: 45 45 44
Width: 400
Flags: W
HStem: 250 80<60 340>
VStem: 60 280<250 330>
LayerCount: 4
Fore
SplineSet
60 250 m 1
 60 330 l 1
 340 330 l 1
 340 250 l 1
 60 250 l 1
EndSplineSet
EndChar

StartChar: question
Encoding: 63 63 45
Width: 400
Flags: W
HStem: 0 110<75 175> 320 80<140 280> 640 80<50 280>
VStem: 75 100<0 110> 80 60<190 320> 280 60<400 640>
LayerCount: 4
Fore
SplineSet
75 0 m 1xf4
 75 110 l 1
 175 110 l 1
 175 0 l 1
 75 0 l 1xf4
80 190 m 1xec
 80 400 l 1
 280 400 l 1
 280 640 l 1
 50 640 l 1
 50 720 l 1
 340 720 l 1
 340 320 l 1
 140 320 l 1
 140 190 l 1
 80 190 l 1xec
EndSplineSet
EndChar

StartChar: numbersign
Encoding: 35 35 46
Width: 500
Flags: W
HStem: 0 21G<120 200 300 380> 180 50<50 120 200 300 380 450> 490 50<50 120 200 300 380 450> 700 20G<120 200 300 380>
VStem: 120 80<0 180 230 490 540 720> 300 80<0 180 230 490 540 720>
LayerCount: 4
Fore
SplineSet
50 180 m 1
 50 230 l 1
 120 230 l 1
 120 490 l 1
 50 490 l 1
 50 540 l 1
 120 540 l 1
 120 720 l 1
 200 720 l 1
 200 540 l 1
 300 540 l 1
 300 720 l 1
 380 720 l 1
 380 540 l 1
 450 540 l 1
 450 490 l 1
 380 490 l 1
 380 230 l 1
 450 230 l 1
 450 180 l 1
 380 180 l 1
 380 0 l 1
 300 0 l 1
 300 180 l 1
 200 180 l 1
 200 0 l 1
 120 0 l 1
 120 180 l 1
 50 180 l 1
200 230 m 1
 300 230 l 1
 300 490 l 1
 200 490 l 1
 200 230 l 1
EndSplineSet
EndChar

StartChar: dollar
Encoding: 36 36 47
Width: 570
Flags: W
HStem: 0 150<70 150> 0 50<150 240 320 400> 330 80<170 400> 600 120<420 490> 670 50<170 240 320 420>
VStem: 70 80<50 150> 80 90<410 670> 240 80<-60 0 720 780> 400 90<50 330> 420 70<600 670>
LayerCount: 4
Fore
SplineSet
70 0 m 1xa540
 70 150 l 1
 150 150 l 1xa540
 150 50 l 1x6540
 400 50 l 1
 400 330 l 1
 80 330 l 1
 80 720 l 1
 240 720 l 1
 240 780 l 1
 320 820 l 1
 320 720 l 1x6b80
 490 720 l 1
 490 600 l 1
 420 600 l 1x3340
 420 670 l 1
 170 670 l 1
 170 410 l 1
 490 410 l 1
 490 0 l 1
 320 0 l 1
 320 -60 l 1
 240 -100 l 1
 240 0 l 1x6b40
 70 0 l 1xa540
EndSplineSet
EndChar

StartChar: slash
Encoding: 47 47 48
Width: 340
Flags: W
VStem: 20 300
LayerCount: 4
Fore
SplineSet
245 780 m 1
 320 780 l 1
 95 -60 l 1
 20 -60 l 1
 245 780 l 1
EndSplineSet
EndChar

StartChar: parenleft
Encoding: 40 40 49
Width: 380
Flags: W
VStem: 90 90<104.536 495.464>
LayerCount: 4
Fore
SplineSet
210 -165 m 1
 120 -25 90 140 90 300 c 0
 90 460 120 625 210 765 c 1
 310 765 l 1
 220 625 180 460 180 300 c 0
 180 140 220 -25 310 -165 c 1
 210 -165 l 1
EndSplineSet
EndChar

StartChar: parenright
Encoding: 41 41 50
Width: 380
Flags: W
VStem: 200 90<104.536 495.464>
LayerCount: 4
Fore
SplineSet
170 765 m 1
 260 625 290 460 290 300 c 0
 290 140 260 -25 170 -165 c 1
 70 -165 l 1
 160 -25 200 140 200 300 c 0
 200 460 160 625 70 765 c 1
 170 765 l 1
EndSplineSet
EndChar

StartChar: asterisk
Encoding: 42 42 51
Width: 540
Flags: W
LayerCount: 4
Fore
SplineSet
236 500 m 1
 50 475 l 1
 50 565 l 1
 236 540 l 1
 121 688 l 1
 199 733 l 1
 270 559 l 1
 341 733 l 1
 419 688 l 1
 304 540 l 1
 490 565 l 1
 490 475 l 1
 304 500 l 1
 419 352 l 1
 341 307 l 1
 270 481 l 1
 199 307 l 1
 121 352 l 1
 236 500 l 1
EndSplineSet
EndChar

StartChar: plus
Encoding: 43 43 52
Width: 540
Flags: W
HStem: 250 80<60 230 310 480> 480 20G<230 310>
VStem: 230 80<80 250 330 500>
LayerCount: 4
Fore
SplineSet
60 250 m 1
 60 330 l 1
 230 330 l 1
 230 500 l 1
 310 500 l 1
 310 330 l 1
 480 330 l 1
 480 250 l 1
 310 250 l 1
 310 80 l 1
 230 80 l 1
 230 250 l 1
 60 250 l 1
EndSplineSet
EndChar

StartChar: less
Encoding: 60 60 53
Width: 540
Flags: W
HStem: 480 20G<430.588 480>
LayerCount: 4
Fore
SplineSet
60 330 m 1
 480 500 l 1
 480 417 l 1
 148 290 l 1
 480 163 l 1
 480 80 l 1
 60 250 l 1
 60 330 l 1
EndSplineSet
EndChar

StartChar: equal
Encoding: 61 61 54
Width: 540
Flags: W
HStem: 160 80<60 480> 340 80<60 480>
LayerCount: 4
Fore
SplineSet
60 160 m 1
 60 240 l 1
 480 240 l 1
 480 160 l 1
 60 160 l 1
60 340 m 1
 60 420 l 1
 480 420 l 1
 480 340 l 1
 60 340 l 1
EndSplineSet
EndChar

StartChar: greater
Encoding: 62 62 55
Width: 540
Flags: W
HStem: 480 20G<60 109.412>
LayerCount: 4
Fore
SplineSet
480 250 m 1
 60 80 l 1
 60 163 l 1
 392 290 l 1
 60 417 l 1
 60 500 l 1
 480 330 l 1
 480 250 l 1
EndSplineSet
EndChar

StartChar: bracketleft
Encoding: 91 91 56
Width: 380
Flags: W
HStem: -160 50<190 320> 710 50<190 320>
VStem: 100 90<-110 710>
LayerCount: 4
Fore
SplineSet
320 -160 m 1
 100 -160 l 1
 100 760 l 1
 320 760 l 1
 320 710 l 1
 190 710 l 1
 190 -110 l 1
 320 -110 l 1
 320 -160 l 1
EndSplineSet
EndChar

StartChar: backslash
Encoding: 92 92 57
Width: 340
Flags: W
VStem: 20 300
LayerCount: 4
Fore
SplineSet
95 780 m 1
 320 -60 l 1
 245 -60 l 1
 20 780 l 1
 95 780 l 1
EndSplineSet
EndChar

StartChar: bracketright
Encoding: 93 93 58
Width: 380
Flags: W
HStem: -160 50<60 190> 710 50<60 190>
VStem: 190 90<-110 710>
LayerCount: 4
Fore
SplineSet
60 760 m 1
 280 760 l 1
 280 -160 l 1
 60 -160 l 1
 60 -110 l 1
 190 -110 l 1
 190 710 l 1
 60 710 l 1
 60 760 l 1
EndSplineSet
EndChar

StartChar: asciicircum
Encoding: 94 94 59
Width: 540
Flags: W
HStem: 700 20G<220.556 319.444>
LayerCount: 4
Fore
SplineSet
310 720 m 1
 480 360 l 1
 397 360 l 1
 270 641 l 1
 143 360 l 1
 60 360 l 1
 230 720 l 1
 310 720 l 1
EndSplineSet
EndChar

StartChar: underscore
Encoding: 95 95 60
Width: 540
Flags: W
HStem: -130 80<20 520>
LayerCount: 4
Fore
SplineSet
20 -130 m 1
 20 -50 l 1
 520 -50 l 1
 520 -130 l 1
 20 -130 l 1
EndSplineSet
EndChar

StartChar: grave
Encoding: 96 96 61
Width: 320
Flags: W
HStem: 560 160
VStem: 40 230
LayerCount: 4
Fore
SplineSet
200 560 m 1
 40 720 l 1
 150 720 l 1
 270 560 l 1
 200 560 l 1
EndSplineSet
EndChar

StartChar: braceleft
Encoding: 123 123 62
Width: 380
Flags: W
HStem: -160 60<275.585 340> 275 50<40 95.1562> 700 60<275.585 340>
VStem: 150 90<-59.3077 208.75 391.25 659.308>
CounterMasks: 1 e0
LayerCount: 4
Fore
SplineSet
340 760 m 1
 340 700 l 1
 260 700 240 645 240 540 c 0
 240 433 226 337 133 300 c 1
 226 263 240 167 240 60 c 0
 240 -45 260 -100 340 -100 c 1
 340 -160 l 1
 200 -160 150 -105 150 60 c 0
 150 180 130 265 40 275 c 1
 40 325 l 1
 130 335 150 420 150 540 c 0
 150 705 200 760 340 760 c 1
EndSplineSet
EndChar

StartChar: bar
Encoding: 124 124 63
Width: 340
Flags: W
VStem: 130 80<-160 760>
LayerCount: 4
Fore
SplineSet
130 760 m 1
 210 760 l 1
 210 -160 l 1
 130 -160 l 1
 130 760 l 1
EndSplineSet
EndChar

StartChar: braceright
Encoding: 125 125 64
Width: 380
Flags: W
HStem: -160 60<40 104.415> 275 50<284.844 340> 700 60<40 104.415>
VStem: 140 90<-59.3077 208.75 391.25 659.308>
CounterMasks: 1 e0
LayerCount: 4
Fore
SplineSet
40 -160 m 1
 40 -100 l 1
 120 -100 140 -45 140 60 c 0
 140 167 154 263 247 300 c 1
 154 337 140 433 140 540 c 0
 140 645 120 700 40 700 c 1
 40 760 l 1
 180 760 230 705 230 540 c 0
 230 420 250 335 340 325 c 1
 340 275 l 1
 250 265 230 180 230 60 c 0
 230 -105 180 -160 40 -160 c 1
EndSplineSet
EndChar

StartChar: asciitilde
Encoding: 126 126 65
Width: 520
Flags: W
HStem: 210 70<304.596 395.168> 300 70<124.832 215.404>
VStem: 40 70<210 285.746> 410 70<294.254 370>
LayerCount: 4
Fore
SplineSet
160 300 m 0
 133 300 110 274 110 210 c 1
 40 210 l 1
 40 313 95 370 160 370 c 0
 245 370 301 280 360 280 c 0
 387 280 410 306 410 370 c 1
 480 370 l 1
 480 267 425 210 360 210 c 0
 275 210 219 300 160 300 c 0
EndSplineSet
EndChar

StartChar: v
Encoding: 118 118 66
Width: 500
Flags: W
HStem: 0 50<158 240> 480 20G<70 158 352 440>
VStem: 70 88<50 500> 352 88<162 500>
AnchorPoint: "bottom" 260 -30 basechar 0
AnchorPoint: "top" 260 550 basechar 0
LayerCount: 4
Fore
SplineSet
70 0 m 1
 70 500 l 1
 158 500 l 1
 158 50 l 1
 240 50 l 1
 352 162 l 1
 352 500 l 1
 440 500 l 1
 440 160 l 1
 280 0 l 1
 70 0 l 1
EndSplineSet
EndChar

StartChar: at
Encoding: 64 64 67
Width: 750
Flags: W
HStem: 0 50<148 322 410 592> 250 50<148 322> 450 50<70 322> 590 150<70 145> 690 50<145 592>
VStem: 60 88<50 250> 70 75<590 690> 322 88<50 250 300 450> 592 88<50 690>
LayerCount: 4
Fore
SplineSet
148 50 m 1xe580
 322 50 l 1
 322 250 l 1
 148 250 l 1
 148 50 l 1xe580
60 0 m 1
 60 300 l 1xed80
 322 300 l 1
 322 450 l 1
 70 450 l 1
 70 500 l 1
 410 500 l 1
 410 50 l 1
 592 50 l 1
 592 690 l 1
 145 690 l 1xeb80
 145 590 l 1
 70 590 l 1
 70 740 l 1xf380
 680 740 l 1xeb80
 680 0 l 1
 60 0 l 1
EndSplineSet
EndChar

StartChar: r
Encoding: 114 114 68
Width: 400
Flags: W
HStem: 0 21G<70 158> 400 100<285 360> 450 50<158 285>
VStem: 70 88<0 450> 285 75<400 450>
AnchorPoint: "bottom" 130 -30 basechar 0
AnchorPoint: "top" 210 550 basechar 0
LayerCount: 4
Fore
SplineSet
70 0 m 1xb8
 70 500 l 1xb8
 360 500 l 1
 360 400 l 1
 285 400 l 1xd8
 285 450 l 1
 158 450 l 1
 158 0 l 1
 70 0 l 1xb8
EndSplineSet
EndChar

StartChar: a
Encoding: 97 97 69
Width: 480
Flags: W
HStem: 0 50<148 322 410 450> 250 50<148 322> 450 50<70 322>
VStem: 60 88<50 250> 322 88<50 250 300 450>
AnchorPoint: "bottom" 240 -30 basechar 0
AnchorPoint: "top" 230 550 basechar 0
AnchorPoint: "ogonek" 380 0 basechar 0
LayerCount: 4
Fore
SplineSet
148 50 m 1
 322 50 l 1
 322 250 l 1
 148 250 l 1
 148 50 l 1
60 0 m 1
 60 300 l 1
 322 300 l 1
 322 450 l 1
 70 450 l 1
 70 500 l 1
 410 500 l 1
 410 50 l 1
 450 50 l 1
 450 0 l 1
 60 0 l 1
EndSplineSet
EndChar

StartChar: b
Encoding: 98 98 70
Width: 500
Flags: W
HStem: 0 50<158 342> 450 50<158 342>
VStem: 70 88<50 450 500 720> 342 88<50 450>
AnchorPoint: "bottom" 250 -30 basechar 0
AnchorPoint: "top" 114 790 basechar 0
LayerCount: 4
Fore
SplineSet
70 0 m 1
 70 720 l 1
 158 760 l 1
 158 500 l 1
 430 500 l 1
 430 0 l 1
 70 0 l 1
158 50 m 1
 342 50 l 1
 342 450 l 1
 158 450 l 1
 158 50 l 1
EndSplineSet
EndChar

StartChar: c
Encoding: 99 99 71
Width: 480
Flags: W
HStem: 0 100<355 430> 0 50<158 355> 350 150<355 430> 450 50<158 355>
VStem: 70 88<50 450> 355 75<50 100 350 450>
AnchorPoint: "bottom" 250 -30 basechar 0
AnchorPoint: "top" 250 550 basechar 0
LayerCount: 4
Fore
SplineSet
70 0 m 1x4c
 70 500 l 1x5c
 430 500 l 1
 430 350 l 1
 355 350 l 1x2c
 355 450 l 1
 158 450 l 1
 158 50 l 1
 355 50 l 1x5c
 355 100 l 1
 430 100 l 1
 430 0 l 1x8c
 70 0 l 1x4c
EndSplineSet
EndChar

StartChar: d
Encoding: 100 100 72
Width: 500
Flags: W
HStem: 0 50<158 342> 450 50<158 342>
VStem: 70 88<50 450> 342 88<50 450 500 720>
AnchorPoint: "bottom" 250 -30 basechar 0
AnchorPoint: "top" 386 790 basechar 0
LayerCount: 4
Fore
SplineSet
70 0 m 1
 70 500 l 1
 342 500 l 1
 342 720 l 1
 430 760 l 1
 430 0 l 1
 70 0 l 1
158 50 m 1
 342 50 l 1
 342 450 l 1
 158 450 l 1
 158 50 l 1
EndSplineSet
EndChar

StartChar: e
Encoding: 101 101 73
Width: 500
Flags: W
HStem: 0 90<355 430> 0 50<158 355> 250 50<158 342> 450 50<158 342>
VStem: 70 88<50 250 300 450> 342 88<300 450> 355 75<50 90>
AnchorPoint: "bottom" 250 -30 basechar 0
AnchorPoint: "top" 250 550 basechar 0
AnchorPoint: "ogonek" 310 0 basechar 0
LayerCount: 4
Fore
SplineSet
158 300 m 1x3c
 342 300 l 1
 342 450 l 1
 158 450 l 1
 158 300 l 1x3c
70 0 m 1x7a
 70 500 l 1
 430 500 l 1
 430 250 l 1
 158 250 l 1
 158 50 l 1
 355 50 l 1x7a
 355 90 l 1
 430 90 l 1
 430 0 l 1xba
 70 0 l 1x7a
EndSplineSet
EndChar

StartChar: f
Encoding: 102 102 74
Width: 320
Flags: W
HStem: 0 21G<70 158> 450 50<158 310> 690 50<158 310>
VStem: 70 88<0 450 500 690>
AnchorPoint: "bottom" 160 -30 basechar 0
AnchorPoint: "top" 200 790 basechar 0
LayerCount: 4
Fore
SplineSet
70 0 m 1
 70 740 l 1
 310 740 l 1
 310 690 l 1
 158 690 l 1
 158 500 l 1
 310 500 l 1
 310 450 l 1
 158 450 l 1
 158 0 l 1
 70 0 l 1
EndSplineSet
EndChar

StartChar: g
Encoding: 103 103 75
Width: 500
Flags: W
HStem: -200 50<100 342> 50 50<158 342> 450 50<158 342>
VStem: 70 88<100 450> 342 88<-150 50 100 450>
AnchorPoint: "bottom" 290 -230 basechar 0
AnchorPoint: "top" 250 550 basechar 0
LayerCount: 4
Fore
SplineSet
158 100 m 1
 342 100 l 1
 342 450 l 1
 158 450 l 1
 158 100 l 1
100 -200 m 1
 100 -150 l 1
 342 -150 l 1
 342 50 l 1
 70 50 l 1
 70 500 l 1
 430 500 l 1
 430 -200 l 1
 100 -200 l 1
EndSplineSet
EndChar

StartChar: h
Encoding: 104 104 76
Width: 500
Flags: W
HStem: 0 21G<70 158 342 430> 450 50<158 342>
VStem: 70 88<0 450 500 720> 342 88<0 450>
AnchorPoint: "bottom" 255 -30 basechar 0
AnchorPoint: "top" 120 790 basechar 0
LayerCount: 4
Fore
SplineSet
70 0 m 1
 70 720 l 1
 158 760 l 1
 158 500 l 1
 430 500 l 1
 430 0 l 1
 342 0 l 1
 342 450 l 1
 158 450 l 1
 158 0 l 1
 70 0 l 1
EndSplineSet
EndChar

StartChar: i
Encoding: 105 105 77
Width: 260
Flags: W
HStem: 0 21G<86 174> 480 20G<86 174> 610 130<70 190>
VStem: 70 120<610 740> 86 88<0 500>
AnchorPoint: "bottom" 130 -30 basechar 0
AnchorPoint: "top" 130 770 basechar 0
LayerCount: 4
Fore
SplineSet
86 0 m 1xe8
 86 500 l 1
 174 500 l 1
 174 0 l 1
 86 0 l 1xe8
70 610 m 1xf0
 70 740 l 1
 190 740 l 1
 190 610 l 1
 70 610 l 1xf0
EndSplineSet
EndChar

StartChar: j
Encoding: 106 106 78
Width: 350
Flags: W
HStem: -200 150<0 75> -200 50<75 192> 450 50<30 192> 610 130<160 280>
VStem: 0 75<-150 -50> 160 120<610 740> 192 88<-150 450>
AnchorPoint: "bottom" 135 -230 basechar 0
AnchorPoint: "top" 220 770 basechar 0
LayerCount: 4
Fore
SplineSet
160 610 m 1x3c
 160 740 l 1
 280 740 l 1
 280 610 l 1
 160 610 l 1x3c
0 -200 m 1xba
 0 -50 l 1
 75 -50 l 1xba
 75 -150 l 1
 192 -150 l 1
 192 450 l 1
 30 450 l 1
 30 500 l 1
 280 500 l 1
 280 -200 l 1x7a
 0 -200 l 1xba
EndSplineSet
EndChar

StartChar: k
Encoding: 107 107 79
Width: 500
Flags: W
HStem: 0 21G<70 158 342 430> 250 50<158 240 330 342> 480 20G<339 450>
VStem: 70 88<0 250 300 720> 342 88<0 250>
AnchorPoint: "bottom" 250 -30 basechar 0
AnchorPoint: "top" 114 790 basechar 0
LayerCount: 4
Fore
SplineSet
70 0 m 1
 70 720 l 1
 158 760 l 1
 158 300 l 1
 240 300 l 1
 350 500 l 1
 450 500 l 1
 330 300 l 1
 430 300 l 1
 430 0 l 1
 342 0 l 1
 342 250 l 1
 158 250 l 1
 158 0 l 1
 70 0 l 1
EndSplineSet
EndChar

StartChar: l
Encoding: 108 108 80
Width: 260
Flags: W
HStem: 0 21G<86 174>
VStem: 86 88<0 720>
AnchorPoint: "bottom" 130 -30 basechar 0
AnchorPoint: "top" 130 790 basechar 0
AnchorPoint: "dot" 300 290 basechar 0
AnchorPoint: "comma" 280 720 basechar 0
LayerCount: 4
Fore
SplineSet
86 0 m 1
 86 720 l 1
 174 760 l 1
 174 0 l 1
 86 0 l 1
EndSplineSet
EndChar

StartChar: m
Encoding: 109 109 81
Width: 700
Flags: W
HStem: 0 21G<70 158 306 394 542 630> 450 50<158 306 394 510>
VStem: 70 88<0 450> 306 88<0 450> 542 88<0 418>
CounterMasks: 1 38
AnchorPoint: "bottom" 350 -30 basechar 0
AnchorPoint: "top" 350 550 basechar 0
LayerCount: 4
Fore
SplineSet
70 0 m 1
 70 500 l 1
 550 500 l 1
 630 420 l 1
 630 0 l 1
 542 0 l 1
 542 418 l 1
 510 450 l 1
 394 450 l 1
 394 0 l 1
 306 0 l 1
 306 450 l 1
 158 450 l 1
 158 0 l 1
 70 0 l 1
EndSplineSet
EndChar

StartChar: n
Encoding: 110 110 82
Width: 500
Flags: W
HStem: 0 21G<70 158 342 430> 450 50<158 310>
VStem: 70 88<0 450> 342 88<0 418>
AnchorPoint: "bottom" 250 -30 basechar 0
AnchorPoint: "top" 250 550 basechar 0
AnchorPoint: "comma" 70 720 basechar 0
LayerCount: 4
Fore
SplineSet
70 0 m 1
 70 500 l 1
 350 500 l 1
 430 420 l 1
 430 0 l 1
 342 0 l 1
 342 418 l 1
 310 450 l 1
 158 450 l 1
 158 0 l 1
 70 0 l 1
EndSplineSet
EndChar

StartChar: o
Encoding: 111 111 83
Width: 500
Flags: W
HStem: 0 50<158 342> 450 50<158 342>
VStem: 70 88<50 450> 342 88<50 450>
AnchorPoint: "bottom" 250 -30 basechar 0
AnchorPoint: "horn" 410 350 basechar 0
AnchorPoint: "top" 250 550 basechar 0
AnchorPoint: "ogonek" 250 0 basechar 0
LayerCount: 4
Fore
SplineSet
70 0 m 1
 70 500 l 1
 430 500 l 1
 430 0 l 1
 70 0 l 1
158 50 m 1
 342 50 l 1
 342 450 l 1
 158 450 l 1
 158 50 l 1
EndSplineSet
EndChar

StartChar: p
Encoding: 112 112 84
Width: 500
Flags: W
HStem: 0 50<158 342> 450 50<158 342>
VStem: 70 88<-180 0 50 450> 342 88<50 450>
AnchorPoint: "bottom" 114 -230 basechar 0
AnchorPoint: "top" 250 550 basechar 0
LayerCount: 4
Fore
SplineSet
70 -220 m 1
 70 500 l 1
 430 500 l 1
 430 0 l 1
 158 0 l 1
 158 -180 l 1
 70 -220 l 1
158 50 m 1
 342 50 l 1
 342 450 l 1
 158 450 l 1
 158 50 l 1
EndSplineSet
EndChar

StartChar: q
Encoding: 113 113 85
Width: 500
Flags: W
HStem: 0 50<158 342> 450 50<158 342>
VStem: 70 88<50 450> 342 88<-180 0 50 450>
AnchorPoint: "bottom" 388 -230 basechar 0
AnchorPoint: "top" 250 550 basechar 0
LayerCount: 4
Fore
SplineSet
70 0 m 1
 70 500 l 1
 430 500 l 1
 430 -180 l 1
 342 -220 l 1
 342 0 l 1
 70 0 l 1
158 50 m 1
 342 50 l 1
 342 450 l 1
 158 450 l 1
 158 50 l 1
EndSplineSet
EndChar

StartChar: s
Encoding: 115 115 86
Width: 500
Flags: W
HStem: 0 100<60 140> 0 50<140 342> 231 78<158 342> 420 80<350 430> 450 50<158 350>
VStem: 60 80<50 100> 70 88<309 450> 342 88<50 231> 350 80<420 450>
AnchorPoint: "bottom" 250 -30 basechar 0
AnchorPoint: "top" 250 550 basechar 0
LayerCount: 4
Fore
SplineSet
60 0 m 1xa480
 60 100 l 1
 140 100 l 1xa480
 140 50 l 1x6480
 342 50 l 1
 342 231 l 1
 70 231 l 1
 70 500 l 1x6b
 430 500 l 1
 430 420 l 1
 350 420 l 1x3280
 350 450 l 1
 158 450 l 1
 158 309 l 1
 430 309 l 1
 430 0 l 1x6a80
 60 0 l 1xa480
EndSplineSet
EndChar

StartChar: t
Encoding: 116 116 87
Width: 300
Flags: W
HStem: 0 21G<106 194> 450 50<20 106 194 280>
VStem: 106 88<0 450 500 600>
AnchorPoint: "bottom" 150 -30 basechar 0
AnchorPoint: "top" 150 670 basechar 0
AnchorPoint: "comma" 290 720 basechar 0
LayerCount: 4
Fore
SplineSet
106 0 m 1
 106 450 l 1
 20 450 l 1
 20 500 l 1
 106 500 l 1
 106 600 l 1
 194 640 l 1
 194 500 l 1
 280 500 l 1
 280 450 l 1
 194 450 l 1
 194 0 l 1
 106 0 l 1
EndSplineSet
EndChar

StartChar: u
Encoding: 117 117 88
Width: 500
Flags: W
HStem: 0 50<190 340> 480 20G<70 158 340 430>
VStem: 70 88<82 500> 340 90<50 500>
AnchorPoint: "bottom" 250 -30 basechar 0
AnchorPoint: "horn" 410 350 basechar 0
AnchorPoint: "top" 250 550 basechar 0
AnchorPoint: "ogonek" 370 0 basechar 0
LayerCount: 4
Fore
SplineSet
150 0 m 1
 70 80 l 1
 70 500 l 1
 158 500 l 1
 158 82 l 1
 190 50 l 1
 340 50 l 1
 340 500 l 1
 430 500 l 1
 430 0 l 1
 150 0 l 1
EndSplineSet
EndChar

StartChar: w
Encoding: 119 119 89
Width: 700
Flags: W
HStem: 0 50<158 306 394 510> 480 20G<70 158 306 394 542 630>
VStem: 70 88<50 500> 306 88<50 500> 542 88<82 500>
CounterMasks: 1 38
AnchorPoint: "bottom" 350 -30 basechar 0
AnchorPoint: "top" 350 550 basechar 0
LayerCount: 4
Fore
SplineSet
70 0 m 1
 70 500 l 1
 158 500 l 1
 158 50 l 1
 306 50 l 1
 306 500 l 1
 394 500 l 1
 394 50 l 1
 510 50 l 1
 542 82 l 1
 542 500 l 1
 630 500 l 1
 630 80 l 1
 550 0 l 1
 70 0 l 1
EndSplineSet
EndChar

StartChar: x
Encoding: 120 120 90
Width: 500
Flags: W
HStem: 0 21G<40 140.798 349.202 460> 480 20G<40 150.798 359.202 460>
AnchorPoint: "bottom" 250 -30 basechar 0
AnchorPoint: "top" 250 550 basechar 0
LayerCount: 4
Fore
SplineSet
40 0 m 1
 190 250 l 1
 40 500 l 1
 140 500 l 1
 255 287 l 1
 370 500 l 1
 460 500 l 1
 310 250 l 1
 460 0 l 1
 360 0 l 1
 245 213 l 1
 130 0 l 1
 40 0 l 1
EndSplineSet
EndChar

StartChar: y
Encoding: 121 121 91
Width: 500
Flags: W
HStem: -200 50<70 342> 50 50<158 342> 480 20G<70 158 342 430>
VStem: 70 88<100 500> 342 88<-150 50 100 500>
AnchorPoint: "bottom" 250 -230 basechar 0
AnchorPoint: "top" 250 550 basechar 0
AnchorPoint: "ogonek" 500 0 basechar 0
LayerCount: 4
Fore
SplineSet
70 -200 m 1
 70 -150 l 1
 342 -150 l 1
 342 50 l 1
 70 50 l 1
 70 500 l 1
 158 500 l 1
 158 100 l 1
 342 100 l 1
 342 500 l 1
 430 500 l 1
 430 -200 l 1
 70 -200 l 1
EndSplineSet
EndChar

StartChar: z
Encoding: 122 122 92
Width: 450
Flags: W
HStem: 0 50<140 390> 450 50<60 300>
VStem: 60 330<70 120>
AnchorPoint: "bottom" 230 -30 basechar 0
AnchorPoint: "top" 230 550 basechar 0
LayerCount: 4
Fore
SplineSet
60 0 m 1
 60 70 l 1
 300 450 l 1
 60 450 l 1
 60 500 l 1
 380 500 l 1
 380 430 l 1
 140 50 l 1
 390 50 l 1
 390 0 l 1
 60 0 l 1
EndSplineSet
EndChar

StartChar: percent
Encoding: 37 37 93
Width: 960
Flags: W
HStem: 0 50<670 810> 290 50<670 810> 380 50<150 290> 670 50<150 290>
VStem: 70 80<430 670> 290 80<430 670> 590 80<50 290> 810 80<50 290>
LayerCount: 4
Fore
SplineSet
70 380 m 1
 70 720 l 1
 370 720 l 1
 370 380 l 1
 70 380 l 1
150 430 m 1
 290 430 l 1
 290 670 l 1
 150 670 l 1
 150 430 l 1
250 -40 m 1
 630 760 l 1
 710 760 l 1
 330 -40 l 1
 250 -40 l 1
590 0 m 1
 590 340 l 1
 890 340 l 1
 890 0 l 1
 590 0 l 1
670 50 m 1
 810 50 l 1
 810 290 l 1
 670 290 l 1
 670 50 l 1
EndSplineSet
EndChar

StartChar: ampersand
Encoding: 38 38 94
Width: 620
Flags: W
HStem: 0 50<170 420> 360 50<170 200 270 420 510 580> 670 50<190 400>
VStem: 80 90<50 360> 100 90<510 670> 420 90<50 360 410 560>
LayerCount: 4
Fore
SplineSet
170 50 m 1xf4
 420 50 l 1
 420 360 l 1
 170 360 l 1
 170 50 l 1xf4
80 0 m 1
 80 410 l 1xf4
 200 410 l 1
 100 510 l 1
 100 720 l 1
 400 720 l 1
 400 670 l 1
 190 670 l 1
 190 490 l 1xec
 270 410 l 1
 420 410 l 1
 420 560 l 1
 510 600 l 1
 510 410 l 1
 580 410 l 1
 580 360 l 1
 510 360 l 1
 510 0 l 1
 80 0 l 1
EndSplineSet
EndChar

StartChar: uni02BB
Encoding: 699 699 95
Width: 250
Flags: W
HStem: 530 130<115 185>
VStem: 65 120<530 660>
LayerCount: 4
Fore
SplineSet
65 530 m 1
 65 660 l 1
 140 800 l 1
 200 800 l 1
 115 660 l 1
 185 660 l 1
 185 530 l 1
 65 530 l 1
EndSplineSet
EndChar

StartChar: uni02BC
Encoding: 700 700 96
Width: 250
Flags: W
HStem: 670 130<65 135>
VStem: 65 120<670 800>
LayerCount: 4
Fore
SplineSet
65 670 m 1
 65 800 l 1
 185 800 l 1
 185 670 l 1
 110 530 l 1
 50 530 l 1
 135 670 l 1
 65 670 l 1
EndSplineSet
EndChar

StartChar: circumflex
Encoding: 710 710 97
Width: 320
Flags: W
HStem: 560 160
VStem: 10 300
LayerCount: 4
Fore
SplineSet
160 672 m 1
 83 560 l 1
 10 560 l 1
 120 720 l 1
 200 720 l 1
 310 560 l 1
 237 560 l 1
 160 672 l 1
EndSplineSet
EndChar

StartChar: caron
Encoding: 711 711 98
Width: 320
Flags: W
HStem: 560 160
VStem: 10 300
LayerCount: 4
Fore
SplineSet
160 608 m 1
 237 720 l 1
 310 720 l 1
 200 560 l 1
 120 560 l 1
 10 720 l 1
 83 720 l 1
 160 608 l 1
EndSplineSet
EndChar

StartChar: uni02C8
Encoding: 712 712 99
Width: 220
Flags: W
HStem: 500 220<80 140>
VStem: 80 60<500 720>
LayerCount: 4
Fore
SplineSet
140 720 m 1
 140 500 l 1
 80 500 l 1
 80 720 l 1
 140 720 l 1
EndSplineSet
EndChar

StartChar: uni02C9
Encoding: 713 713 100
Width: 400
Flags: W
HStem: 560 70<50 350>
VStem: 50 300<560 630>
LayerCount: 4
Fore
SplineSet
50 560 m 1
 50 630 l 1
 350 630 l 1
 350 560 l 1
 50 560 l 1
EndSplineSet
EndChar

StartChar: uni02CA
Encoding: 714 714 101
Width: 320
Flags: W
HStem: 560 160
VStem: 50 230
LayerCount: 4
Fore
SplineSet
120 560 m 1
 50 560 l 1
 170 720 l 1
 280 720 l 1
 120 560 l 1
EndSplineSet
EndChar

StartChar: uni02CB
Encoding: 715 715 102
Width: 320
Flags: W
HStem: 560 160
VStem: 40 230
LayerCount: 4
Fore
SplineSet
200 560 m 1
 40 720 l 1
 150 720 l 1
 270 560 l 1
 200 560 l 1
EndSplineSet
EndChar

StartChar: breve
Encoding: 728 728 103
Width: 400
Flags: W
HStem: 550 50<140.879 259.121>
VStem: 40 75<626.076 690> 285 75<626.076 690>
LayerCount: 4
Fore
SplineSet
360 690 m 1
 360 598 290 550 200 550 c 0
 110 550 40 598 40 690 c 1
 115 690 l 1
 115 638 145 600 200 600 c 0
 255 600 285 638 285 690 c 1
 360 690 l 1
EndSplineSet
EndChar

StartChar: dotaccent
Encoding: 729 729 104
Width: 180
Flags: W
HStem: 570 130<30 150>
VStem: 30 120<570 700>
LayerCount: 4
Fore
SplineSet
30 570 m 1
 30 700 l 1
 150 700 l 1
 150 570 l 1
 30 570 l 1
EndSplineSet
EndChar

StartChar: ring
Encoding: 730 730 105
Width: 280
Flags: W
HStem: 550 40<96.745 183.255> 710 40<96.745 183.255>
VStem: 40 45<600.225 699.775> 195 45<600.225 699.775>
LayerCount: 4
Fore
SplineSet
140 550 m 0
 80 550 40 590 40 650 c 0
 40 710 80 750 140 750 c 0
 200 750 240 710 240 650 c 0
 240 590 200 550 140 550 c 0
140 590 m 0
 180 590 195 620 195 650 c 0
 195 680 180 710 140 710 c 0
 100 710 85 680 85 650 c 0
 85 620 100 590 140 590 c 0
EndSplineSet
EndChar

StartChar: ogonek
Encoding: 731 731 106
Width: 250
Flags: W
HStem: -160 50<150 220>
VStem: 90 60<-110 10>
LayerCount: 4
Fore
SplineSet
90 -160 m 1
 90 10 l 1
 150 10 l 1
 150 -110 l 1
 220 -110 l 1
 220 -160 l 1
 90 -160 l 1
EndSplineSet
EndChar

StartChar: tilde
Encoding: 732 732 107
Width: 440
Flags: W
HStem: 560 70<232.234 334.821> 610 70<105.179 207.766>
VStem: 40 60<560 606.576> 340 60<633.424 680>
LayerCount: 4
Fore
SplineSet
140 610 m 0x70
 113 610 100 594 100 560 c 1
 40 560 l 1xb0
 40 633 85 680 140 680 c 0x70
 215 680 241 630 300 630 c 0xb0
 327 630 340 646 340 680 c 1
 400 680 l 1x70
 400 607 355 560 300 560 c 0xb0
 225 560 199 610 140 610 c 0x70
EndSplineSet
EndChar

StartChar: hungarumlaut
Encoding: 733 733 108
Width: 500
Flags: W
HStem: 560 160
LayerCount: 4
Fore
SplineSet
320 560 m 1
 250 560 l 1
 350 720 l 1
 460 720 l 1
 320 560 l 1
120 560 m 1
 50 560 l 1
 150 720 l 1
 260 720 l 1
 120 560 l 1
EndSplineSet
EndChar

StartChar: gravecomb
Encoding: 768 768 109
Width: 0
Flags: W
HStem: 560 160
VStem: -130 230
AnchorPoint: "Altnidrig-mktop" 0 750 basemark 0
AnchorPoint: "Altnidrig-mktop" 0 560 mark 0
AnchorPoint: "top" 0 530 mark 0
LayerCount: 4
Fore
SplineSet
30 560 m 1
 -130 720 l 1
 -20 720 l 1
 100 560 l 1
 30 560 l 1
EndSplineSet
EndChar

StartChar: acutecomb
Encoding: 769 769 110
Width: 0
Flags: W
HStem: 560 160
VStem: -100 230
AnchorPoint: "Altnidrig-mktop" 0 750 basemark 0
AnchorPoint: "Altnidrig-mktop" 0 560 mark 0
AnchorPoint: "top" 0 530 mark 0
LayerCount: 4
Fore
SplineSet
-30 560 m 1
 -100 560 l 1
 20 720 l 1
 130 720 l 1
 -30 560 l 1
EndSplineSet
EndChar

StartChar: uni0302
Encoding: 770 770 111
Width: 0
Flags: W
HStem: 560 160
VStem: -150 300
AnchorPoint: "Altnidrig-mktop" 0 750 basemark 0
AnchorPoint: "Altnidrig-mktop" 0 560 mark 0
AnchorPoint: "top" 0 530 mark 0
LayerCount: 4
Fore
SplineSet
-0 672 m 1
 -77 560 l 1
 -150 560 l 1
 -40 720 l 1
 40 720 l 1
 150 560 l 1
 77 560 l 1
 -0 672 l 1
EndSplineSet
EndChar

StartChar: tildecomb
Encoding: 771 771 112
Width: 0
Flags: W
HStem: 560 70<12.2337 114.821> 610 70<-114.821 -12.2337>
VStem: -180 60<560 606.576> 120 60<633.424 680>
AnchorPoint: "Altnidrig-mktop" 0 560 mark 0
AnchorPoint: "Altnidrig-mktop" 0 700 basemark 0
AnchorPoint: "top" 0 530 mark 0
LayerCount: 4
Fore
SplineSet
-80 610 m 0x70
 -107 610 -120 594 -120 560 c 1
 -180 560 l 1xb0
 -180 633 -135 680 -80 680 c 0x70
 -5 680 21 630 80 630 c 0xb0
 107 630 120 646 120 680 c 1
 180 680 l 1x70
 180 607 135 560 80 560 c 0xb0
 5 560 -21 610 -80 610 c 0x70
EndSplineSet
EndChar

StartChar: uni0304
Encoding: 772 772 113
Width: 0
Flags: W
HStem: 560 70<-150 150>
VStem: -150 300<560 630>
AnchorPoint: "Altnidrig-mktop" 0 550 mark 0
AnchorPoint: "Altnidrig-mktop" 0 660 basemark 0
AnchorPoint: "top" 0 530 mark 0
LayerCount: 4
Fore
SplineSet
-150 560 m 1
 -150 630 l 1
 150 630 l 1
 150 560 l 1
 -150 560 l 1
EndSplineSet
EndChar

StartChar: uni0306
Encoding: 774 774 114
Width: 0
Flags: W
HStem: 550 50<-59.1214 59.1214>
VStem: -160 75<626.076 690> 85 75<626.076 690>
AnchorPoint: "Altnidrig-mktop" 0 560 mark 0
AnchorPoint: "Altnidrig-mktop" 0 720 basemark 0
AnchorPoint: "top" 0 530 mark 0
LayerCount: 4
Fore
SplineSet
160 690 m 1
 160 598 90 550 0 550 c 0
 -90 550 -160 598 -160 690 c 1
 -85 690 l 1
 -85 638 -55 600 0 600 c 0
 55 600 85 638 85 690 c 1
 160 690 l 1
EndSplineSet
EndChar

StartChar: uni0307
Encoding: 775 775 115
Width: 0
Flags: W
HStem: 570 130<-60 60>
VStem: -60 120<570 700>
AnchorPoint: "Altnidrig-mktop" 0 730 basemark 0
AnchorPoint: "Altnidrig-mktop" 0 560 mark 0
AnchorPoint: "top" 0 530 mark 0
LayerCount: 4
Fore
SplineSet
-60 570 m 1
 -60 700 l 1
 60 700 l 1
 60 570 l 1
 -60 570 l 1
EndSplineSet
EndChar

StartChar: uni0308
Encoding: 776 776 116
Width: 0
Flags: W
HStem: 570 130<-160 -70 60 150>
VStem: -160 90<570 700> 60 90<570 700>
AnchorPoint: "Altnidrig-mktop" 0 730 basemark 0
AnchorPoint: "Altnidrig-mktop" 0 560 mark 0
AnchorPoint: "top" 0 530 mark 0
LayerCount: 4
Fore
SplineSet
-160 570 m 1
 -160 700 l 1
 -70 700 l 1
 -70 570 l 1
 -160 570 l 1
60 570 m 1
 60 700 l 1
 150 700 l 1
 150 570 l 1
 60 570 l 1
EndSplineSet
EndChar

StartChar: hookabovecomb
Encoding: 777 777 117
Width: 0
Flags: W
HStem: 560 40<-10 30> 660 40<-90 30>
VStem: -10 100<560 600> 30 60<600 660>
AnchorPoint: "Altnidrig-mktop" 0 730 basemark 0
AnchorPoint: "Altnidrig-mktop" 0 560 mark 0
AnchorPoint: "top" 0 530 mark 0
LayerCount: 4
Fore
SplineSet
-10 560 m 1xe0
 -10 600 l 1xe0
 30 600 l 1
 30 660 l 1
 -90 660 l 1
 -90 700 l 1
 90 700 l 1xd0
 90 560 l 1
 -10 560 l 1xe0
EndSplineSet
EndChar

StartChar: uni030A
Encoding: 778 778 118
Width: 0
Flags: W
HStem: 550 40<-43.255 43.255> 710 40<-43.255 43.255>
VStem: -100 45<600.225 699.775> 55 45<600.225 699.775>
AnchorPoint: "Altnidrig-mktop" 0 740 basemark 0
AnchorPoint: "Altnidrig-mktop" 0 560 mark 0
AnchorPoint: "top" 0 530 mark 0
LayerCount: 4
Fore
SplineSet
0 550 m 0
 -60 550 -100 590 -100 650 c 0
 -100 710 -60 750 0 750 c 0
 60 750 100 710 100 650 c 0
 100 590 60 550 0 550 c 0
0 590 m 0
 40 590 55 620 55 650 c 0
 55 680 40 710 0 710 c 0
 -40 710 -55 680 -55 650 c 0
 -55 620 -40 590 0 590 c 0
EndSplineSet
EndChar

StartChar: uni030B
Encoding: 779 779 119
Width: 0
Flags: W
HStem: 560 160
AnchorPoint: "Altnidrig-mktop" 0 560 mark 0
AnchorPoint: "Altnidrig-mktop" 0 750 basemark 0
AnchorPoint: "top" 0 530 mark 0
LayerCount: 4
Fore
SplineSet
90 560 m 1
 20 560 l 1
 120 720 l 1
 230 720 l 1
 90 560 l 1
-110 560 m 1
 -180 560 l 1
 -80 720 l 1
 30 720 l 1
 -110 560 l 1
EndSplineSet
EndChar

StartChar: uni030C
Encoding: 780 780 120
Width: 0
Flags: W
HStem: 560 160
VStem: -150 300
AnchorPoint: "Altnidrig-mktop" 0 560 mark 0
AnchorPoint: "Altnidrig-mktop" 0 750 basemark 0
AnchorPoint: "top" 0 530 mark 0
LayerCount: 4
Fore
SplineSet
0 608 m 1
 77 720 l 1
 150 720 l 1
 40 560 l 1
 -40 560 l 1
 -150 720 l 1
 -77 720 l 1
 0 608 l 1
EndSplineSet
EndChar

StartChar: uni030F
Encoding: 783 783 121
Width: 0
Flags: W
HStem: 560 160
AnchorPoint: "Altnidrig-mktop" 0 560 mark 0
AnchorPoint: "Altnidrig-mktop" 0 750 basemark 0
AnchorPoint: "top" 0 530 mark 0
LayerCount: 4
Fore
SplineSet
180 560 m 1
 110 560 l 1
 -30 720 l 1
 80 720 l 1
 180 560 l 1
-20 560 m 1
 -90 560 l 1
 -230 720 l 1
 -120 720 l 1
 -20 560 l 1
EndSplineSet
EndChar

StartChar: uni0311
Encoding: 785 785 122
Width: 0
Flags: W
HStem: 650 50<-59.1214 59.1214>
VStem: -160 75<560 623.924> 85 75<560 623.924>
AnchorPoint: "Altnidrig-mktop" 0 560 mark 0
AnchorPoint: "Altnidrig-mktop" 0 720 basemark 0
AnchorPoint: "top" 0 530 mark 0
LayerCount: 4
Fore
SplineSet
-160 560 m 1
 -160 652 -90 700 0 700 c 0
 90 700 160 652 160 560 c 1
 85 560 l 1
 85 612 55 650 0 650 c 0
 -55 650 -85 612 -85 560 c 1
 -160 560 l 1
EndSplineSet
EndChar

StartChar: uni0312
Encoding: 786 786 123
Width: 0
Flags: W
HStem: 530 130<-5 65>
VStem: -55 120<530 660>
AnchorPoint: "Altnidrig-mktop" 0 750 basemark 0
AnchorPoint: "Altnidrig-mktop" 0 560 mark 0
AnchorPoint: "top" 0 530 mark 0
LayerCount: 4
Fore
SplineSet
-55 530 m 1
 -55 660 l 1
 20 800 l 1
 80 800 l 1
 -5 660 l 1
 65 660 l 1
 65 530 l 1
 -55 530 l 1
EndSplineSet
EndChar

StartChar: uni0313
Encoding: 787 787 124
Width: 0
Flags: W
HStem: 670 130<-65 5>
VStem: -65 120<670 800>
AnchorPoint: "Altnidrig-mktop" 0 750 basemark 0
AnchorPoint: "Altnidrig-mktop" 0 560 mark 0
AnchorPoint: "top" 0 530 mark 0
LayerCount: 4
Fore
SplineSet
-65 670 m 1
 -65 800 l 1
 55 800 l 1
 55 670 l 1
 -20 530 l 1
 -80 530 l 1
 5 670 l 1
 -65 670 l 1
EndSplineSet
EndChar

StartChar: uni0315
Encoding: 789 789 125
Width: 0
Flags: W
HStem: 630 90<-45 5>
VStem: -45 90<630 720>
AnchorPoint: "comma" 0 720 mark 0
LayerCount: 4
Fore
SplineSet
-45 630 m 1
 -45 720 l 1
 45 720 l 1
 45 630 l 1
 0 550 l 1
 -50 550 l 1
 5 630 l 1
 -45 630 l 1
EndSplineSet
EndChar

StartChar: uni031B
Encoding: 795 795 126
Width: 0
Flags: W
HStem: 320 40<-20 80> 480 20G<80 140>
VStem: 80 60<360 500>
AnchorPoint: "horn" -20 350 mark 0
LayerCount: 4
Fore
SplineSet
-20 320 m 1
 -20 360 l 1
 80 360 l 1
 80 500 l 1
 140 500 l 1
 140 320 l 1
 -20 320 l 1
EndSplineSet
EndChar

StartChar: dotbelowcomb
Encoding: 803 803 127
Width: 0
Flags: W
HStem: -160 90<-45 45>
VStem: -45 90<-160 -70>
AnchorPoint: "bottom" 0 -30 mark 0
LayerCount: 4
Fore
SplineSet
-45 -160 m 1
 -45 -70 l 1
 45 -70 l 1
 45 -160 l 1
 -45 -160 l 1
EndSplineSet
EndChar

StartChar: uni0326
Encoding: 806 806 128
Width: 0
Flags: W
HStem: -160 90<-45 5>
VStem: -45 90<-160 -70>
AnchorPoint: "bottom" 0 -30 mark 0
LayerCount: 4
Fore
SplineSet
-45 -160 m 1
 -45 -70 l 1
 45 -70 l 1
 45 -160 l 1
 0 -240 l 1
 -50 -240 l 1
 5 -160 l 1
 -45 -160 l 1
EndSplineSet
EndChar

StartChar: uni0327
Encoding: 807 807 129
Width: 0
Flags: W
HStem: -160 50<-100 -30>
VStem: -30 60<-110 10>
AnchorPoint: "bottom" 0 -30 mark 0
LayerCount: 4
Fore
SplineSet
-100 -160 m 1
 -100 -110 l 1
 -30 -110 l 1
 -30 10 l 1
 30 10 l 1
 30 -160 l 1
 -100 -160 l 1
EndSplineSet
EndChar

StartChar: uni0328
Encoding: 808 808 130
Width: 0
Flags: W
HStem: -160 50<30 100>
VStem: -30 60<-110 10>
AnchorPoint: "ogonek" 0 0 mark 0
LayerCount: 4
Fore
SplineSet
-30 -160 m 1
 -30 10 l 1
 30 10 l 1
 30 -110 l 1
 100 -110 l 1
 100 -160 l 1
 -30 -160 l 1
EndSplineSet
EndChar

StartChar: Agrave
Encoding: 192 192 131
Width: 570
Flags: W
HStem: 0 21G<80 170 400 490> 230 50<170 400> 670 50<170 400>
VStem: 80 90<0 230 280 670> 400 90<0 230 280 670>
LayerCount: 4
Fore
SplineSet
315 800 m 1
 155 960 l 1
 265 960 l 1
 385 800 l 1
 315 800 l 1
80 0 m 1
 80 720 l 1
 490 720 l 1
 490 0 l 1
 400 0 l 1
 400 230 l 1
 170 230 l 1
 170 0 l 1
 80 0 l 1
170 280 m 1
 400 280 l 1
 400 670 l 1
 170 670 l 1
 170 280 l 1
EndSplineSet
EndChar

StartChar: Aacute
Encoding: 193 193 132
Width: 570
Flags: W
HStem: 0 21G<80 170 400 490> 230 50<170 400> 670 50<170 400>
VStem: 80 90<0 230 280 670> 400 90<0 230 280 670>
LayerCount: 4
Fore
SplineSet
255 800 m 1
 185 800 l 1
 305 960 l 1
 415 960 l 1
 255 800 l 1
80 0 m 1
 80 720 l 1
 490 720 l 1
 490 0 l 1
 400 0 l 1
 400 230 l 1
 170 230 l 1
 170 0 l 1
 80 0 l 1
170 280 m 1
 400 280 l 1
 400 670 l 1
 170 670 l 1
 170 280 l 1
EndSplineSet
EndChar

StartChar: Acircumflex
Encoding: 194 194 133
Width: 570
Flags: W
HStem: 0 21G<80 170 400 490> 230 50<170 400> 670 50<170 400>
VStem: 80 90<0 230 280 670> 400 90<0 230 280 670>
AnchorPoint: "top" 285 990 basechar 0
LayerCount: 4
Fore
SplineSet
80 0 m 1
 80 720 l 1
 490 720 l 1
 490 0 l 1
 400 0 l 1
 400 230 l 1
 170 230 l 1
 170 0 l 1
 80 0 l 1
170 280 m 1
 400 280 l 1
 400 670 l 1
 170 670 l 1
 170 280 l 1
285 912 m 1
 208 800 l 1
 135 800 l 1
 245 960 l 1
 325 960 l 1
 435 800 l 1
 362 800 l 1
 285 912 l 1
EndSplineSet
EndChar

StartChar: Atilde
Encoding: 195 195 134
Width: 570
Flags: W
HStem: 0 21G<80 170 400 490> 230 50<170 400> 670 50<170 400> 800 70<297.234 399.821> 850 70<170.179 272.766>
VStem: 80 90<0 230 280 670> 105 60<800 846.576> 400 90<0 230 280 670> 405 60<873.424 920>
LayerCount: 4
Fore
SplineSet
205 850 m 0xea80
 178 850 165 834 165 800 c 1
 105 800 l 1xf280
 105 873 150 920 205 920 c 0xea80
 280 920 306 870 365 870 c 0xf280
 392 870 405 886 405 920 c 1
 465 920 l 1xea80
 465 847 420 800 365 800 c 0xf280
 290 800 264 850 205 850 c 0xea80
80 0 m 1xe5
 80 720 l 1
 490 720 l 1
 490 0 l 1
 400 0 l 1
 400 230 l 1
 170 230 l 1
 170 0 l 1
 80 0 l 1xe5
170 280 m 1
 400 280 l 1
 400 670 l 1
 170 670 l 1
 170 280 l 1
EndSplineSet
EndChar

StartChar: Adieresis
Encoding: 196 196 135
Width: 570
Flags: W
HStem: 0 21G<80 170 400 490> 230 50<170 400> 670 50<170 400> 810 130<125 215 345 435>
VStem: 80 90<0 230 280 670> 125 90<810 940> 345 90<810 940> 400 90<0 230 280 670>
LayerCount: 4
Fore
SplineSet
125 810 m 1xf4
 125 940 l 1
 215 940 l 1
 215 810 l 1
 125 810 l 1xf4
345 810 m 1xf2
 345 940 l 1
 435 940 l 1
 435 810 l 1
 345 810 l 1xf2
80 0 m 1xf9
 80 720 l 1
 490 720 l 1
 490 0 l 1
 400 0 l 1
 400 230 l 1
 170 230 l 1
 170 0 l 1
 80 0 l 1xf9
170 280 m 1
 400 280 l 1
 400 670 l 1
 170 670 l 1
 170 280 l 1
EndSplineSet
EndChar

StartChar: Aring
Encoding: 197 197 136
Width: 570
Flags: W
HStem: 0 21G<80 170 400 490> 230 50<170 400> 670 50<170 400> 790 40<241.745 328.255> 950 40<241.745 328.255>
VStem: 80 90<0 230 280 670> 185 45<840.225 939.775> 340 45<840.225 939.775> 400 90<0 230 280 670>
LayerCount: 4
Fore
SplineSet
285 790 m 0
 225 790 185 830 185 890 c 0
 185 950 225 990 285 990 c 0
 345 990 385 950 385 890 c 0
 385 830 345 790 285 790 c 0
285 830 m 0
 325 830 340 860 340 890 c 0
 340 920 325 950 285 950 c 0
 245 950 230 920 230 890 c 0
 230 860 245 830 285 830 c 0
80 0 m 1
 80 720 l 1
 490 720 l 1
 490 0 l 1
 400 0 l 1
 400 230 l 1
 170 230 l 1
 170 0 l 1
 80 0 l 1
170 280 m 1
 400 280 l 1
 400 670 l 1
 170 670 l 1
 170 280 l 1
EndSplineSet
EndChar

StartChar: Ccedilla
Encoding: 199 199 137
Width: 550
Flags: W
HStem: -160 50<190 260> 0 120<410 490> 0 50<170 260 320 410> 670 50<170 410>
VStem: 80 90<50 670> 260 60<-110 0> 410 80<50 120 520 670>
LayerCount: 4
Fore
SplineSet
190 -160 m 1xbe
 190 -110 l 1
 260 -110 l 1
 260 0 l 1
 80 0 l 1
 80 720 l 1
 490 720 l 1
 490 520 l 1
 410 520 l 1
 410 670 l 1
 170 670 l 1
 170 50 l 1
 410 50 l 1xbe
 410 120 l 1
 490 120 l 1
 490 0 l 1xde
 320 0 l 1
 320 -160 l 1
 190 -160 l 1xbe
EndSplineSet
EndChar

StartChar: Egrave
Encoding: 200 200 138
Width: 520
Flags: W
HStem: 0 50<170 460> 350 50<170 430> 670 50<170 460>
VStem: 80 90<50 350 400 670>
LayerCount: 4
Fore
SplineSet
320 800 m 1
 160 960 l 1
 270 960 l 1
 390 800 l 1
 320 800 l 1
80 0 m 1
 80 720 l 1
 460 720 l 1
 460 670 l 1
 170 670 l 1
 170 400 l 1
 430 400 l 1
 430 350 l 1
 170 350 l 1
 170 50 l 1
 460 50 l 1
 460 0 l 1
 80 0 l 1
EndSplineSet
EndChar

StartChar: Eacute
Encoding: 201 201 139
Width: 520
Flags: W
HStem: 0 50<170 460> 350 50<170 430> 670 50<170 460>
VStem: 80 90<50 350 400 670>
LayerCount: 4
Fore
SplineSet
260 800 m 1
 190 800 l 1
 310 960 l 1
 420 960 l 1
 260 800 l 1
80 0 m 1
 80 720 l 1
 460 720 l 1
 460 670 l 1
 170 670 l 1
 170 400 l 1
 430 400 l 1
 430 350 l 1
 170 350 l 1
 170 50 l 1
 460 50 l 1
 460 0 l 1
 80 0 l 1
EndSplineSet
EndChar

StartChar: Ecircumflex
Encoding: 202 202 140
Width: 520
Flags: W
HStem: 0 50<170 460> 350 50<170 430> 670 50<170 460>
VStem: 80 90<50 350 400 670>
AnchorPoint: "top" 290 990 basechar 0
LayerCount: 4
Fore
SplineSet
80 0 m 1
 80 720 l 1
 460 720 l 1
 460 670 l 1
 170 670 l 1
 170 400 l 1
 430 400 l 1
 430 350 l 1
 170 350 l 1
 170 50 l 1
 460 50 l 1
 460 0 l 1
 80 0 l 1
290 912 m 1
 213 800 l 1
 140 800 l 1
 250 960 l 1
 330 960 l 1
 440 800 l 1
 367 800 l 1
 290 912 l 1
EndSplineSet
EndChar

StartChar: Edieresis
Encoding: 203 203 141
Width: 520
Flags: W
HStem: 0 50<170 460> 350 50<170 430> 670 50<170 460> 810 130<130 220 350 440>
VStem: 80 90<50 350 400 670> 130 90<810 940> 350 90<810 940>
LayerCount: 4
Fore
SplineSet
130 810 m 1xf6
 130 940 l 1
 220 940 l 1
 220 810 l 1
 130 810 l 1xf6
350 810 m 1
 350 940 l 1
 440 940 l 1
 440 810 l 1
 350 810 l 1
80 0 m 1xfa
 80 720 l 1
 460 720 l 1
 460 670 l 1
 170 670 l 1
 170 400 l 1
 430 400 l 1
 430 350 l 1
 170 350 l 1
 170 50 l 1
 460 50 l 1
 460 0 l 1
 80 0 l 1xfa
EndSplineSet
EndChar

StartChar: Igrave
Encoding: 204 204 142
Width: 270
Flags: W
HStem: 0 21G<90 180> 700 20G<90 180>
VStem: 90 90<0 720>
LayerCount: 4
Fore
SplineSet
165 800 m 1
 5 960 l 1
 115 960 l 1
 235 800 l 1
 165 800 l 1
90 0 m 1
 90 720 l 1
 180 720 l 1
 180 0 l 1
 90 0 l 1
EndSplineSet
EndChar

StartChar: Iacute
Encoding: 205 205 143
Width: 270
Flags: W
HStem: 0 21G<90 180> 700 20G<90 180>
VStem: 90 90<0 720>
LayerCount: 4
Fore
SplineSet
105 800 m 1
 35 800 l 1
 155 960 l 1
 265 960 l 1
 105 800 l 1
90 0 m 1
 90 720 l 1
 180 720 l 1
 180 0 l 1
 90 0 l 1
EndSplineSet
EndChar

StartChar: Icircumflex
Encoding: 206 206 144
Width: 270
Flags: W
HStem: 0 21G<90 180> 700 20G<90 180>
VStem: 90 90<0 720>
LayerCount: 4
Fore
SplineSet
90 0 m 1
 90 720 l 1
 180 720 l 1
 180 0 l 1
 90 0 l 1
135 912 m 1
 58 800 l 1
 -15 800 l 1
 95 960 l 1
 175 960 l 1
 285 800 l 1
 212 800 l 1
 135 912 l 1
EndSplineSet
EndChar

StartChar: Idieresis
Encoding: 207 207 145
Width: 270
Flags: W
HStem: 0 21G<90 180> 700 20G<90 180> 810 130<-25 65 195 285>
VStem: -25 90<810 940> 90 90<0 720> 195 90<810 940>
LayerCount: 4
Fore
SplineSet
-25 810 m 1
 -25 940 l 1
 65 940 l 1
 65 810 l 1
 -25 810 l 1
195 810 m 1
 195 940 l 1
 285 940 l 1
 285 810 l 1
 195 810 l 1
90 0 m 1
 90 720 l 1
 180 720 l 1
 180 0 l 1
 90 0 l 1
EndSplineSet
EndChar

StartChar: Ntilde
Encoding: 209 209 146
Width: 570
Flags: W
HStem: 0 21G<80 170 400 490> 670 50<170 370> 800 70<302.234 404.821> 850 70<175.179 277.766>
VStem: 80 90<0 670> 110 60<800 846.576> 400 90<0 640> 410 60<873.424 920>
LayerCount: 4
Fore
SplineSet
210 850 m 0xd5
 183 850 170 834 170 800 c 1
 110 800 l 1xe5
 110 873 155 920 210 920 c 0xd5
 285 920 311 870 370 870 c 0xe5
 397 870 410 886 410 920 c 1
 470 920 l 1xd5
 470 847 425 800 370 800 c 0xe5
 295 800 269 850 210 850 c 0xd5
80 0 m 1xca
 80 720 l 1
 410 720 l 1xc9
 490 640 l 1
 490 0 l 1
 400 0 l 1
 400 640 l 1
 370 670 l 1
 170 670 l 1
 170 0 l 1
 80 0 l 1xca
EndSplineSet
EndChar

StartChar: Ograve
Encoding: 210 210 147
Width: 570
Flags: W
HStem: 0 50<170 400> 670 50<170 400>
VStem: 80 90<50 670> 400 90<50 670>
LayerCount: 4
Fore
SplineSet
315 800 m 1
 155 960 l 1
 265 960 l 1
 385 800 l 1
 315 800 l 1
80 0 m 1
 80 720 l 1
 490 720 l 1
 490 0 l 1
 80 0 l 1
170 50 m 1
 400 50 l 1
 400 670 l 1
 170 670 l 1
 170 50 l 1
EndSplineSet
EndChar

StartChar: Oacute
Encoding: 211 211 148
Width: 570
Flags: W
HStem: 0 50<170 400> 670 50<170 400>
VStem: 80 90<50 670> 400 90<50 670>
LayerCount: 4
Fore
SplineSet
255 800 m 1
 185 800 l 1
 305 960 l 1
 415 960 l 1
 255 800 l 1
80 0 m 1
 80 720 l 1
 490 720 l 1
 490 0 l 1
 80 0 l 1
170 50 m 1
 400 50 l 1
 400 670 l 1
 170 670 l 1
 170 50 l 1
EndSplineSet
EndChar

StartChar: Ocircumflex
Encoding: 212 212 149
Width: 570
Flags: W
HStem: 0 50<170 400> 670 50<170 400>
VStem: 80 90<50 670> 400 90<50 670>
AnchorPoint: "top" 285 990 basechar 0
LayerCount: 4
Fore
SplineSet
80 0 m 1
 80 720 l 1
 490 720 l 1
 490 0 l 1
 80 0 l 1
170 50 m 1
 400 50 l 1
 400 670 l 1
 170 670 l 1
 170 50 l 1
285 912 m 1
 208 800 l 1
 135 800 l 1
 245 960 l 1
 325 960 l 1
 435 800 l 1
 362 800 l 1
 285 912 l 1
EndSplineSet
EndChar

StartChar: Otilde
Encoding: 213 213 150
Width: 570
Flags: W
HStem: 0 50<170 400> 670 50<170 400> 800 70<297.234 399.821> 850 70<170.179 272.766>
VStem: 80 90<50 670> 105 60<800 846.576> 400 90<50 670> 405 60<873.424 920>
LayerCount: 4
Fore
SplineSet
205 850 m 0xd5
 178 850 165 834 165 800 c 1
 105 800 l 1xe5
 105 873 150 920 205 920 c 0xd5
 280 920 306 870 365 870 c 0xe5
 392 870 405 886 405 920 c 1
 465 920 l 1xd5
 465 847 420 800 365 800 c 0xe5
 290 800 264 850 205 850 c 0xd5
80 0 m 1xca
 80 720 l 1
 490 720 l 1
 490 0 l 1
 80 0 l 1xca
170 50 m 1
 400 50 l 1
 400 670 l 1
 170 670 l 1
 170 50 l 1
EndSplineSet
EndChar

StartChar: Odieresis
Encoding: 214 214 151
Width: 570
Flags: W
HStem: 0 50<170 400> 670 50<170 400> 810 130<125 215 345 435>
VStem: 80 90<50 670> 125 90<810 940> 345 90<810 940> 400 90<50 670>
LayerCount: 4
Fore
SplineSet
125 810 m 1xe8
 125 940 l 1
 215 940 l 1
 215 810 l 1
 125 810 l 1xe8
345 810 m 1xe4
 345 940 l 1
 435 940 l 1
 435 810 l 1
 345 810 l 1xe4
80 0 m 1xf2
 80 720 l 1
 490 720 l 1
 490 0 l 1
 80 0 l 1xf2
170 50 m 1
 400 50 l 1
 400 670 l 1
 170 670 l 1
 170 50 l 1
EndSplineSet
EndChar

StartChar: Ugrave
Encoding: 217 217 152
Width: 570
Flags: W
HStem: 0 50<200 400> 700 20G<80 170 400 490>
VStem: 80 90<80 720> 400 90<50 720>
LayerCount: 4
Fore
SplineSet
315 800 m 1
 155 960 l 1
 265 960 l 1
 385 800 l 1
 315 800 l 1
160 0 m 1
 80 80 l 1
 80 720 l 1
 170 720 l 1
 170 80 l 1
 200 50 l 1
 400 50 l 1
 400 720 l 1
 490 720 l 1
 490 0 l 1
 160 0 l 1
EndSplineSet
EndChar

StartChar: Uacute
Encoding: 218 218 153
Width: 570
Flags: W
HStem: 0 50<200 400> 700 20G<80 170 400 490>
VStem: 80 90<80 720> 400 90<50 720>
LayerCount: 4
Fore
SplineSet
255 800 m 1
 185 800 l 1
 305 960 l 1
 415 960 l 1
 255 800 l 1
160 0 m 1
 80 80 l 1
 80 720 l 1
 170 720 l 1
 170 80 l 1
 200 50 l 1
 400 50 l 1
 400 720 l 1
 490 720 l 1
 490 0 l 1
 160 0 l 1
EndSplineSet
EndChar

StartChar: Ucircumflex
Encoding: 219 219 154
Width: 570
Flags: W
HStem: 0 50<200 400> 700 20G<80 170 400 490>
VStem: 80 90<80 720> 400 90<50 720>
LayerCount: 4
Fore
SplineSet
160 0 m 1
 80 80 l 1
 80 720 l 1
 170 720 l 1
 170 80 l 1
 200 50 l 1
 400 50 l 1
 400 720 l 1
 490 720 l 1
 490 0 l 1
 160 0 l 1
285 912 m 1
 208 800 l 1
 135 800 l 1
 245 960 l 1
 325 960 l 1
 435 800 l 1
 362 800 l 1
 285 912 l 1
EndSplineSet
EndChar

StartChar: Udieresis
Encoding: 220 220 155
Width: 570
Flags: W
HStem: 0 50<200 400> 700 20G<80 170 400 490> 810 130<125 215 345 435>
VStem: 80 90<80 720> 125 90<810 940> 345 90<810 940> 400 90<50 720>
AnchorPoint: "top" 285 970 basechar 0
LayerCount: 4
Fore
SplineSet
125 810 m 1xe8
 125 940 l 1
 215 940 l 1
 215 810 l 1
 125 810 l 1xe8
345 810 m 1xe4
 345 940 l 1
 435 940 l 1
 435 810 l 1
 345 810 l 1xe4
160 0 m 1
 80 80 l 1
 80 720 l 1
 170 720 l 1
 170 80 l 1
 200 50 l 1
 400 50 l 1
 400 720 l 1
 490 720 l 1
 490 0 l 1xf2
 160 0 l 1
EndSplineSet
EndChar

StartChar: Yacute
Encoding: 221 221 156
Width: 520
Flags: W
HStem: 0 21G<215 305> 310 50<160 215 305 360> 700 20G<70 160 360 450>
VStem: 70 90<360 720> 215 90<0 310> 360 90<360 720>
CounterMasks: 1 1c
LayerCount: 4
Fore
SplineSet
230 800 m 1
 160 800 l 1
 280 960 l 1
 390 960 l 1
 230 800 l 1
215 0 m 1
 215 310 l 1
 70 310 l 1
 70 720 l 1
 160 720 l 1
 160 360 l 1
 360 360 l 1
 360 720 l 1
 450 720 l 1
 450 310 l 1
 305 310 l 1
 305 0 l 1
 215 0 l 1
EndSplineSet
EndChar

StartChar: agrave
Encoding: 224 224 157
Width: 480
HStem: 0 50<148 322 410 450> 250 50<148 322> 450 50<70 322> 720 20G<100 225>
VStem: 60 88<50 250> 322 88<50 250 300 450>
LayerCount: 4
Fore
SplineSet
260 580 m 1
 100 740 l 1
 210 740 l 1
 330 580 l 1
 260 580 l 1
148 50 m 1
 322 50 l 1
 322 250 l 1
 148 250 l 1
 148 50 l 1
60 0 m 1
 60 300 l 1
 322 300 l 1
 322 450 l 1
 70 450 l 1
 70 500 l 1
 410 500 l 1
 410 50 l 1
 450 50 l 1
 450 0 l 1
 60 0 l 1
EndSplineSet
EndChar

StartChar: aacute
Encoding: 225 225 158
Width: 480
HStem: 0 50<148 322 410 450> 250 50<148 322> 450 50<70 322> 720 20G<235 360>
VStem: 60 88<50 250> 322 88<50 250 300 450>
LayerCount: 4
Fore
SplineSet
200 580 m 1
 130 580 l 1
 250 740 l 1
 360 740 l 1
 200 580 l 1
148 50 m 1
 322 50 l 1
 322 250 l 1
 148 250 l 1
 148 50 l 1
60 0 m 1
 60 300 l 1
 322 300 l 1
 322 450 l 1
 70 450 l 1
 70 500 l 1
 410 500 l 1
 410 50 l 1
 450 50 l 1
 450 0 l 1
 60 0 l 1
EndSplineSet
EndChar

StartChar: acircumflex
Encoding: 226 226 159
Width: 480
HStem: 0 50<148 322 410 450> 250 50<148 322> 450 50<70 322> 720 20G<176.25 283.75>
VStem: 60 88<50 250> 322 88<50 250 300 450>
AnchorPoint: "top" 230 770 basechar 0
LayerCount: 4
Fore
SplineSet
148 50 m 1
 322 50 l 1
 322 250 l 1
 148 250 l 1
 148 50 l 1
60 0 m 1
 60 300 l 1
 322 300 l 1
 322 450 l 1
 70 450 l 1
 70 500 l 1
 410 500 l 1
 410 50 l 1
 450 50 l 1
 450 0 l 1
 60 0 l 1
230 692 m 1
 153 580 l 1
 80 580 l 1
 190 740 l 1
 270 740 l 1
 380 580 l 1
 307 580 l 1
 230 692 l 1
EndSplineSet
EndChar

StartChar: atilde
Encoding: 227 227 160
Width: 480
HStem: 0 50<148 322 410 450> 250 50<148 322> 450 50<70 322> 580 70<242.234 344.821> 630 70<115.179 217.766>
VStem: 50 60<580 626.576> 60 88<50 250> 322 88<50 250 300 450> 350 60<653.424 700>
LayerCount: 4
Fore
SplineSet
150 630 m 0xec80
 123 630 110 614 110 580 c 1
 50 580 l 1xf480
 50 653 95 700 150 700 c 0xec80
 225 700 251 650 310 650 c 0xf480
 337 650 350 666 350 700 c 1
 410 700 l 1xec80
 410 627 365 580 310 580 c 0xf480
 235 580 209 630 150 630 c 0xec80
148 50 m 1xe3
 322 50 l 1
 322 250 l 1
 148 250 l 1
 148 50 l 1xe3
60 0 m 1
 60 300 l 1
 322 300 l 1
 322 450 l 1xe3
 70 450 l 1
 70 500 l 1
 410 500 l 1xe080
 410 50 l 1
 450 50 l 1
 450 0 l 1
 60 0 l 1
EndSplineSet
EndChar

StartChar: adieresis
Encoding: 228 228 161
Width: 480
HStem: 0 50<148 322 410 450> 250 50<148 322> 450 50<70 322> 590 130<70 160 290 380>
VStem: 60 88<50 250> 70 90<590 720> 290 90<590 720> 322 88<50 250 300 450>
LayerCount: 4
Fore
SplineSet
70 590 m 1xf4
 70 720 l 1
 160 720 l 1
 160 590 l 1
 70 590 l 1xf4
290 590 m 1xf2
 290 720 l 1
 380 720 l 1
 380 590 l 1
 290 590 l 1xf2
148 50 m 1xf9
 322 50 l 1
 322 250 l 1
 148 250 l 1
 148 50 l 1xf9
60 0 m 1
 60 300 l 1xf9
 322 300 l 1
 322 450 l 1
 70 450 l 1
 70 500 l 1xf5
 410 500 l 1
 410 50 l 1
 450 50 l 1
 450 0 l 1
 60 0 l 1
EndSplineSet
EndChar

StartChar: aring
Encoding: 229 229 162
Width: 480
HStem: 0 50<148 322 410 450> 250 50<148 322> 450 50<70 322> 570 40<186.745 273.255> 730 40<186.745 273.255>
VStem: 60 88<50 250> 130 45<620.225 719.775> 285 45<620.225 719.775> 322 88<50 250 300 450>
LayerCount: 4
Fore
SplineSet
230 570 m 0xfb
 170 570 130 610 130 670 c 0
 130 730 170 770 230 770 c 0
 290 770 330 730 330 670 c 0
 330 610 290 570 230 570 c 0xfb
230 610 m 0
 270 610 285 640 285 670 c 0
 285 700 270 730 230 730 c 0
 190 730 175 700 175 670 c 0
 175 640 190 610 230 610 c 0
148 50 m 1xfc80
 322 50 l 1
 322 250 l 1
 148 250 l 1
 148 50 l 1xfc80
60 0 m 1
 60 300 l 1
 322 300 l 1
 322 450 l 1
 70 450 l 1
 70 500 l 1
 410 500 l 1
 410 50 l 1
 450 50 l 1
 450 0 l 1
 60 0 l 1
EndSplineSet
EndChar

StartChar: ccedilla
Encoding: 231 231 163
Width: 480
Flags: W
HStem: -160 50<150 220> 0 100<355 430> 0 50<158 220 280 355> 350 150<355 430> 450 50<158 355>
VStem: 70 88<50 450> 220 60<-110 0> 355 75<50 100 350 450>
LayerCount: 4
Fore
SplineSet
150 -160 m 1xa7
 150 -110 l 1
 220 -110 l 1
 220 0 l 1
 70 0 l 1
 70 500 l 1xaf
 430 500 l 1
 430 350 l 1
 355 350 l 1x97
 355 450 l 1
 158 450 l 1
 158 50 l 1
 355 50 l 1xaf
 355 100 l 1
 430 100 l 1
 430 0 l 1xc7
 280 0 l 1
 280 -160 l 1
 150 -160 l 1xa7
EndSplineSet
EndChar

StartChar: egrave
Encoding: 232 232 164
Width: 500
HStem: 0 90<355 430> 0 50<158 355> 250 50<158 342> 450 50<158 342> 720 20G<120 245>
VStem: 70 88<50 250 300 450> 342 88<300 450> 355 75<50 90>
LayerCount: 4
Fore
SplineSet
280 580 m 1x3c
 120 740 l 1
 230 740 l 1
 350 580 l 1
 280 580 l 1x3c
158 300 m 1
 342 300 l 1
 342 450 l 1x3e
 158 450 l 1
 158 300 l 1
70 0 m 1x7d
 70 500 l 1
 430 500 l 1
 430 250 l 1
 158 250 l 1
 158 50 l 1
 355 50 l 1x7d
 355 90 l 1
 430 90 l 1
 430 0 l 1xbd
 70 0 l 1x7d
EndSplineSet
EndChar

StartChar: eacute
Encoding: 233 233 165
Width: 500
HStem: 0 90<355 430> 0 50<158 355> 250 50<158 342> 450 50<158 342> 720 20G<255 380>
VStem: 70 88<50 250 300 450> 342 88<300 450> 355 75<50 90>
LayerCount: 4
Fore
SplineSet
220 580 m 1x3c
 150 580 l 1
 270 740 l 1
 380 740 l 1
 220 580 l 1x3c
158 300 m 1
 342 300 l 1
 342 450 l 1x3e
 158 450 l 1
 158 300 l 1
70 0 m 1x7d
 70 500 l 1
 430 500 l 1
 430 250 l 1
 158 250 l 1
 158 50 l 1
 355 50 l 1x7d
 355 90 l 1
 430 90 l 1
 430 0 l 1xbd
 70 0 l 1x7d
EndSplineSet
EndChar

StartChar: ecircumflex
Encoding: 234 234 166
Width: 500
HStem: 0 90<355 430> 0 50<158 355> 250 50<158 342> 450 50<158 342> 720 20G<196.25 303.75>
VStem: 70 88<50 250 300 450> 342 88<300 450> 355 75<50 90>
AnchorPoint: "top" 250 770 basechar 0
LayerCount: 4
Fore
SplineSet
158 300 m 1x3e
 342 300 l 1
 342 450 l 1
 158 450 l 1
 158 300 l 1x3e
70 0 m 1x7d
 70 500 l 1
 430 500 l 1
 430 250 l 1
 158 250 l 1
 158 50 l 1
 355 50 l 1x7d
 355 90 l 1
 430 90 l 1
 430 0 l 1xbd
 70 0 l 1x7d
250 692 m 1
 173 580 l 1
 100 580 l 1
 210 740 l 1
 290 740 l 1
 400 580 l 1
 327 580 l 1
 250 692 l 1
EndSplineSet
EndChar

StartChar: edieresis
Encoding: 235 235 167
Width: 500
HStem: 0 90<355 430> 0 50<158 355> 250 50<158 342> 450 50<158 342> 590 130<90 180 310 400>
VStem: 70 88<50 250 300 450> 90 90<590 720> 310 90<590 720> 342 88<300 450> 355 75<50 90>
LayerCount: 4
Fore
SplineSet
90 590 m 1x3a
 90 720 l 1
 180 720 l 1
 180 590 l 1
 90 590 l 1x3a
310 590 m 1x39
 310 720 l 1
 400 720 l 1
 400 590 l 1
 310 590 l 1x39
158 300 m 1x3c80
 342 300 l 1
 342 450 l 1
 158 450 l 1
 158 300 l 1x3c80
70 0 m 1x7c40
 70 500 l 1
 430 500 l 1
 430 250 l 1
 158 250 l 1
 158 50 l 1
 355 50 l 1x7c40
 355 90 l 1
 430 90 l 1
 430 0 l 1xbc40
 70 0 l 1x7c40
EndSplineSet
EndChar

StartChar: igrave
Encoding: 236 236 168
Width: 260
HStem: 0 21G<86 174> 480 20G<86 174> 720 20G<0 125>
VStem: 86 88<0 500>
LayerCount: 4
Fore
SplineSet
160 580 m 1
 0 740 l 1
 110 740 l 1
 230 580 l 1
 160 580 l 1
86 0 m 1
 86 500 l 1
 174 500 l 1
 174 0 l 1
 86 0 l 1
EndSplineSet
EndChar

StartChar: iacute
Encoding: 237 237 169
Width: 260
HStem: 0 21G<86 174> 480 20G<86 174> 720 20G<135 260>
VStem: 86 88<0 500>
LayerCount: 4
Fore
SplineSet
100 580 m 1
 30 580 l 1
 150 740 l 1
 260 740 l 1
 100 580 l 1
86 0 m 1
 86 500 l 1
 174 500 l 1
 174 0 l 1
 86 0 l 1
EndSplineSet
EndChar

StartChar: icircumflex
Encoding: 238 238 170
Width: 260
HStem: 0 21G<86 174> 480 20G<86 174> 720 20G<76.25 183.75>
VStem: 86 88<0 500>
LayerCount: 4
Fore
SplineSet
86 0 m 1
 86 500 l 1
 174 500 l 1
 174 0 l 1
 86 0 l 1
130 692 m 1
 53 580 l 1
 -20 580 l 1
 90 740 l 1
 170 740 l 1
 280 580 l 1
 207 580 l 1
 130 692 l 1
EndSplineSet
EndChar

StartChar: idieresis
Encoding: 239 239 171
Width: 260
HStem: 0 21G<86 174> 480 20G<86 174> 590 130<-30 60 190 280>
VStem: -30 90<590 720> 86 88<0 500> 190 90<590 720>
LayerCount: 4
Fore
SplineSet
-30 590 m 1
 -30 720 l 1
 60 720 l 1
 60 590 l 1
 -30 590 l 1
190 590 m 1
 190 720 l 1
 280 720 l 1
 280 590 l 1
 190 590 l 1
86 0 m 1
 86 500 l 1
 174 500 l 1
 174 0 l 1
 86 0 l 1
EndSplineSet
EndChar

StartChar: ntilde
Encoding: 241 241 172
Width: 500
HStem: 0 21G<70 158 342 430> 450 50<158 310> 580 70<262.234 364.821> 630 70<135.179 237.766>
VStem: 70 88<0 450> 70 60<580 626.576> 342 88<0 418> 370 60<653.424 700>
LayerCount: 4
Fore
SplineSet
170 630 m 0xd5
 143 630 130 614 130 580 c 1
 70 580 l 1xe5
 70 653 115 700 170 700 c 0xd5
 245 700 271 650 330 650 c 0xe5
 357 650 370 666 370 700 c 1
 430 700 l 1xd5
 430 627 385 580 330 580 c 0xe5
 255 580 229 630 170 630 c 0xd5
70 0 m 1xca
 70 500 l 1
 350 500 l 1
 430 420 l 1xc5
 430 0 l 1
 342 0 l 1
 342 418 l 1
 310 450 l 1
 158 450 l 1
 158 0 l 1
 70 0 l 1xca
EndSplineSet
EndChar

StartChar: ograve
Encoding: 242 242 173
Width: 500
HStem: 0 50<158 342> 450 50<158 342> 720 20G<120 245>
VStem: 70 88<50 450> 342 88<50 450>
LayerCount: 4
Fore
SplineSet
280 580 m 1
 120 740 l 1
 230 740 l 1
 350 580 l 1
 280 580 l 1
70 0 m 1
 70 500 l 1
 430 500 l 1
 430 0 l 1
 70 0 l 1
158 50 m 1
 342 50 l 1
 342 450 l 1
 158 450 l 1
 158 50 l 1
EndSplineSet
EndChar

StartChar: oacute
Encoding: 243 243 174
Width: 500
HStem: 0 50<158 342> 450 50<158 342> 720 20G<255 380>
VStem: 70 88<50 450> 342 88<50 450>
LayerCount: 4
Fore
SplineSet
220 580 m 1
 150 580 l 1
 270 740 l 1
 380 740 l 1
 220 580 l 1
70 0 m 1
 70 500 l 1
 430 500 l 1
 430 0 l 1
 70 0 l 1
158 50 m 1
 342 50 l 1
 342 450 l 1
 158 450 l 1
 158 50 l 1
EndSplineSet
EndChar

StartChar: ocircumflex
Encoding: 244 244 175
Width: 500
HStem: 0 50<158 342> 450 50<158 342> 720 20G<196.25 303.75>
VStem: 70 88<50 450> 342 88<50 450>
AnchorPoint: "top" 250 770 basechar 0
LayerCount: 4
Fore
SplineSet
70 0 m 1
 70 500 l 1
 430 500 l 1
 430 0 l 1
 70 0 l 1
158 50 m 1
 342 50 l 1
 342 450 l 1
 158 450 l 1
 158 50 l 1
250 692 m 1
 173 580 l 1
 100 580 l 1
 210 740 l 1
 290 740 l 1
 400 580 l 1
 327 580 l 1
 250 692 l 1
EndSplineSet
EndChar

StartChar: otilde
Encoding: 245 245 176
Width: 500
HStem: 0 50<158 342> 450 50<158 342> 580 70<262.234 364.821> 630 70<135.179 237.766>
VStem: 70 88<50 450> 70 60<580 626.576> 342 88<50 450> 370 60<653.424 700>
LayerCount: 4
Fore
SplineSet
170 630 m 0xd5
 143 630 130 614 130 580 c 1
 70 580 l 1xe5
 70 653 115 700 170 700 c 0xd5
 245 700 271 650 330 650 c 0xe5
 357 650 370 666 370 700 c 1
 430 700 l 1xd5
 430 627 385 580 330 580 c 0xe5
 255 580 229 630 170 630 c 0xd5
70 0 m 1
 70 500 l 1
 430 500 l 1
 430 0 l 1
 70 0 l 1
158 50 m 1xca
 342 50 l 1
 342 450 l 1
 158 450 l 1
 158 50 l 1xca
EndSplineSet
EndChar

StartChar: odieresis
Encoding: 246 246 177
Width: 500
HStem: 0 50<158 342> 450 50<158 342> 590 130<90 180 310 400>
VStem: 70 88<50 450> 90 90<590 720> 310 90<590 720> 342 88<50 450>
LayerCount: 4
Fore
SplineSet
90 590 m 1xe8
 90 720 l 1
 180 720 l 1
 180 590 l 1
 90 590 l 1xe8
310 590 m 1xe4
 310 720 l 1
 400 720 l 1
 400 590 l 1
 310 590 l 1xe4
70 0 m 1xf2
 70 500 l 1
 430 500 l 1
 430 0 l 1
 70 0 l 1xf2
158 50 m 1
 342 50 l 1
 342 450 l 1
 158 450 l 1
 158 50 l 1
EndSplineSet
EndChar

StartChar: ugrave
Encoding: 249 249 178
Width: 500
HStem: 0 50<190 340> 480 20G<70 158 340 430> 720 20G<120 245>
VStem: 70 88<82 500> 340 90<50 500>
LayerCount: 4
Fore
SplineSet
280 580 m 1
 120 740 l 1
 230 740 l 1
 350 580 l 1
 280 580 l 1
150 0 m 1
 70 80 l 1
 70 500 l 1
 158 500 l 1
 158 82 l 1
 190 50 l 1
 340 50 l 1
 340 500 l 1
 430 500 l 1
 430 0 l 1
 150 0 l 1
EndSplineSet
EndChar

StartChar: uacute
Encoding: 250 250 179
Width: 500
HStem: 0 50<190 340> 480 20G<70 158 340 430> 720 20G<255 380>
VStem: 70 88<82 500> 340 90<50 500>
LayerCount: 4
Fore
SplineSet
220 580 m 1
 150 580 l 1
 270 740 l 1
 380 740 l 1
 220 580 l 1
150 0 m 1
 70 80 l 1
 70 500 l 1
 158 500 l 1
 158 82 l 1
 190 50 l 1
 340 50 l 1
 340 500 l 1
 430 500 l 1
 430 0 l 1
 150 0 l 1
EndSplineSet
EndChar

StartChar: ucircumflex
Encoding: 251 251 180
Width: 500
HStem: 0 50<190 340> 480 20G<70 158 340 430> 720 20G<196.25 303.75>
VStem: 70 88<82 500> 340 90<50 500>
LayerCount: 4
Fore
SplineSet
150 0 m 1
 70 80 l 1
 70 500 l 1
 158 500 l 1
 158 82 l 1
 190 50 l 1
 340 50 l 1
 340 500 l 1
 430 500 l 1
 430 0 l 1
 150 0 l 1
250 692 m 1
 173 580 l 1
 100 580 l 1
 210 740 l 1
 290 740 l 1
 400 580 l 1
 327 580 l 1
 250 692 l 1
EndSplineSet
EndChar

StartChar: udieresis
Encoding: 252 252 181
Width: 500
HStem: 0 50<190 340> 480 20G<70 158 340 430> 590 130<90 180 310 400>
VStem: 70 88<82 500> 90 90<590 720> 310 90<590 720> 340 90<50 500>
AnchorPoint: "top" 250 750 basechar 0
LayerCount: 4
Fore
SplineSet
90 590 m 1xe8
 90 720 l 1
 180 720 l 1
 180 590 l 1
 90 590 l 1xe8
310 590 m 1xe4
 310 720 l 1
 400 720 l 1
 400 590 l 1
 310 590 l 1xe4
150 0 m 1
 70 80 l 1
 70 500 l 1
 158 500 l 1
 158 82 l 1
 190 50 l 1
 340 50 l 1
 340 500 l 1
 430 500 l 1
 430 0 l 1xf2
 150 0 l 1
EndSplineSet
EndChar

StartChar: yacute
Encoding: 253 253 182
Width: 500
HStem: -200 50<70 342> 50 50<158 342> 480 20G<70 158 342 430> 720 20G<255 380>
VStem: 70 88<100 500> 342 88<-150 50 100 500>
LayerCount: 4
Fore
SplineSet
220 580 m 1
 150 580 l 1
 270 740 l 1
 380 740 l 1
 220 580 l 1
70 -200 m 1
 70 -150 l 1
 342 -150 l 1
 342 50 l 1
 70 50 l 1
 70 500 l 1
 158 500 l 1
 158 100 l 1
 342 100 l 1
 342 500 l 1
 430 500 l 1
 430 -200 l 1
 70 -200 l 1
EndSplineSet
EndChar

StartChar: ydieresis
Encoding: 255 255 183
Width: 500
HStem: -200 50<70 342> 50 50<158 342> 480 20G<70 158 342 430> 590 130<90 180 310 400>
VStem: 70 88<100 500> 90 90<590 720> 310 90<590 720> 342 88<-150 50 100 500>
LayerCount: 4
Fore
SplineSet
90 590 m 1xf4
 90 720 l 1
 180 720 l 1
 180 590 l 1
 90 590 l 1xf4
310 590 m 1xf2
 310 720 l 1
 400 720 l 1
 400 590 l 1
 310 590 l 1xf2
70 -200 m 1xf9
 70 -150 l 1
 342 -150 l 1
 342 50 l 1
 70 50 l 1
 70 500 l 1
 158 500 l 1
 158 100 l 1
 342 100 l 1
 342 500 l 1
 430 500 l 1
 430 -200 l 1
 70 -200 l 1xf9
EndSplineSet
EndChar

StartChar: dotlessi
Encoding: 305 305 184
Width: 260
Flags: W
HStem: 0 21G<86 174> 480 20G<86 174>
VStem: 86 88<0 500>
AnchorPoint: "bottom" 130 -30 basechar 0
AnchorPoint: "top" 130 550 basechar 0
LayerCount: 4
Fore
SplineSet
86 0 m 1
 86 500 l 1
 174 500 l 1
 174 0 l 1
 86 0 l 1
EndSplineSet
EndChar

StartChar: uni0237
Encoding: 567 567 185
Width: 350
Flags: W
HStem: -200 50<75 192> -20 20G<0 75> 450 50<30 192>
VStem: 0 75<-150 0> 192 88<-150 450>
AnchorPoint: "bottom" 135 -230 basechar 0
AnchorPoint: "top" 220 550 basechar 0
LayerCount: 4
Fore
SplineSet
0 -200 m 1
 0 0 l 1
 75 0 l 1
 75 -150 l 1
 192 -150 l 1
 192 450 l 1
 30 450 l 1
 30 500 l 1
 280 500 l 1
 280 -200 l 1
 0 -200 l 1
EndSplineSet
EndChar

StartChar: multiply
Encoding: 215 215 186
Width: 500
VWidth: 1040
Flags: W
LayerCount: 4
Fore
SplineSet
110 93 m 1
 53 150 l 1
 193 290 l 1
 53 430 l 1
 110 487 l 1
 250 347 l 1
 390 487 l 1
 447 430 l 1
 307 290 l 1
 447 150 l 1
 390 93 l 1
 250 233 l 1
 110 93 l 1
EndSplineSet
EndChar

StartChar: divide
Encoding: 247 247 187
Width: 500
VWidth: 1040
Flags: W
HStem: 50 110<190 310> 250 80<40 460> 420 110<190 310>
VStem: 190 120<50 160 420 530>
CounterMasks: 1 e0
LayerCount: 4
Fore
SplineSet
40 250 m 1
 40 330 l 1
 460 330 l 1
 460 250 l 1
 40 250 l 1
190 50 m 1
 190 160 l 1
 310 160 l 1
 310 50 l 1
 190 50 l 1
190 420 m 1
 190 530 l 1
 310 530 l 1
 310 420 l 1
 190 420 l 1
EndSplineSet
EndChar

StartChar: Oslash
Encoding: 216 216 188
Width: 570
Flags: W
HStem: 0 50<226 400> 670 50<170 344>
VStem: 80 90<50 670> 400 90<50 670>
AnchorPoint: "bottom" 290 -30 basechar 0
AnchorPoint: "top" 290 770 basechar 0
AnchorPoint: "ogonek" 290 0 basechar 0
LayerCount: 4
Back
SplineSet
375 780 m 1
 430 780 l 1
 195 -60 l 1
 140 -60 l 1
 375 780 l 1
170 50 m 1
 400 50 l 1
 400 670 l 1
 170 670 l 1
 170 50 l 1
80 0 m 1
 80 720 l 1
 490 720 l 1
 490 0 l 1
 80 0 l 1
EndSplineSet
Fore
SplineSet
375 780 m 1
 430 780 l 1
 413 720 l 1
 490 720 l 1
 490 0 l 1
 212 0 l 1
 195 -60 l 1
 140 -60 l 1
 157 0 l 1
 80 0 l 1
 80 720 l 1
 358 720 l 1
 375 780 l 1
399 670 m 1
 226 50 l 1
 400 50 l 1
 400 670 l 1
 399 670 l 1
344 670 m 1
 170 670 l 1
 170 50 l 1
 171 50 l 1
 344 670 l 1
EndSplineSet
EndChar

StartChar: AE
Encoding: 198 198 189
Width: 820
Flags: W
HStem: 0 50<480 760> 230 50<170 390> 350 50<480 730> 670 50<170 390 480 760>
VStem: 80 90<0 230 280 670> 390 90<50 230 280 350 400 670>
AnchorPoint: "top" 435 770 basechar 0
AnchorPoint: "bottom" 435 -30 basechar 0
LayerCount: 4
Fore
SplineSet
170 280 m 1
 390 280 l 1
 390 670 l 1
 170 670 l 1
 170 280 l 1
80 0 m 1
 80 720 l 1
 760 720 l 1
 760 670 l 1
 480 670 l 1
 480 400 l 1
 730 400 l 1
 730 350 l 1
 480 350 l 1
 480 50 l 1
 760 50 l 1
 760 0 l 1
 390 0 l 1
 390 230 l 1
 170 230 l 1
 170 0 l 1
 80 0 l 1
EndSplineSet
EndChar

StartChar: Eth
Encoding: 208 208 190
Width: 570
Flags: W
HStem: 0 50<170 340> 330 60<40 80 170 310> 670 50<70 340>
VStem: 80 90<50 330 390 520> 400 90<110 610>
CounterMasks: 1 e0
AnchorPoint: "top" 280 770 basechar 0
AnchorPoint: "bottom" 280 -30 basechar 0
LayerCount: 4
Fore
SplineSet
40 330 m 1
 40 390 l 1
 80 390 l 1
 80 520 l 1
 170 520 l 1
 170 390 l 1
 310 390 l 1
 310 330 l 1
 170 330 l 1
 170 50 l 1
 340 50 l 1
 400 110 l 1
 400 610 l 1
 340 670 l 1
 70 670 l 1
 70 720 l 1
 380 720 l 1
 490 610 l 1
 490 110 l 1
 380 0 l 1
 80 0 l 1
 80 330 l 1
 40 330 l 1
EndSplineSet
EndChar

StartChar: eth
Encoding: 240 240 191
Width: 500
Flags: W
HStem: 0 50<158 342> 450 50<158 342> 720 20G<132 246.667>
VStem: 70 88<50 450> 342 88<50 450>
AnchorPoint: "top" 180 790 basechar 0
AnchorPoint: "bottom" 290 -30 basechar 0
LayerCount: 4
Fore
SplineSet
70 0 m 1
 70 500 l 1
 342 500 l 1
 272 580 l 1
 120 560 l 1
 120 620 l 1
 225 634 l 1
 132 740 l 1
 230 740 l 1
 310 644 l 1
 430 660 l 1
 430 600 l 1
 355 590 l 1
 430 500 l 1
 430 0 l 1
 70 0 l 1
158 50 m 1
 342 50 l 1
 342 450 l 1
 158 450 l 1
 158 50 l 1
EndSplineSet
EndChar

StartChar: Dcroat
Encoding: 272 272 192
Width: 590
Flags: W
HStem: 0 50<170 340> 330 60<30 80 170 260> 670 50<70 340>
VStem: 80 90<50 330 390 520> 400 90<110 610>
CounterMasks: 1 e0
AnchorPoint: "bottom" 270 -30 basechar 0
AnchorPoint: "top" 270 770 basechar 0
LayerCount: 4
Fore
SplineSet
30 330 m 1
 30 390 l 1
 80 390 l 1
 80 520 l 1
 170 520 l 1
 170 390 l 1
 260 390 l 1
 260 330 l 1
 170 330 l 1
 170 50 l 1
 340 50 l 1
 400 110 l 1
 400 610 l 1
 340 670 l 1
 70 670 l 1
 70 720 l 1
 380 720 l 1
 490 610 l 1
 490 110 l 1
 380 0 l 1
 80 0 l 1
 80 330 l 1
 30 330 l 1
EndSplineSet
EndChar

StartChar: dcroat
Encoding: 273 273 193
Width: 500
Flags: W
HStem: 0 50<158 342> 450 50<158 342>
VStem: 70 88<50 450> 342 88<50 450 500 720>
AnchorPoint: "top" 386 790 basechar 0
AnchorPoint: "bottom" 250 -30 basechar 0
LayerCount: 4
Fore
SplineSet
70 0 m 1
 70 500 l 1
 342 500 l 1
 342 720 l 1
 430 760 l 1
 430 0 l 1
 70 0 l 1
158 50 m 1
 342 50 l 1
 342 450 l 1
 158 450 l 1
 158 50 l 1
EndSplineSet
EndChar

StartChar: oslash
Encoding: 248 248 194
Width: 500
Flags: W
HStem: 0 50<218 342> 450 50<158 282>
VStem: 70 88<50 450> 342 88<50 450>
AnchorPoint: "bottom" 250 -30 basechar 0
AnchorPoint: "horn" 410 350 basechar 0
AnchorPoint: "top" 250 550 basechar 0
AnchorPoint: "ogonek" 250 0 basechar 0
LayerCount: 4
Fore
SplineSet
70 0 m 1
 70 500 l 1
 297 500 l 1
 315 560 l 1
 370 560 l 1
 352 500 l 1
 430 500 l 1
 430 0 l 1
 203 0 l 1
 185 -60 l 1
 130 -60 l 1
 148 0 l 1
 70 0 l 1
163 50 m 1
 282 450 l 1
 158 450 l 1
 158 50 l 1
 163 50 l 1
218 50 m 1
 342 50 l 1
 342 450 l 1
 337 450 l 1
 218 50 l 1
EndSplineSet
EndChar

StartChar: ae
Encoding: 230 230 195
Width: 750
Flags: W
HStem: 0 90<605 680> 0 50<148 321 409 605> 250 50<148 321 409 592> 450 50<70 321 409 592>
VStem: 60 88<50 250> 321 88<50 250 300 450> 592 88<300 450> 605 75<50 90>
AnchorPoint: "top" 360 550 basechar 0
AnchorPoint: "bottom" 360 -30 basechar 0
LayerCount: 4
Fore
SplineSet
148 50 m 1x7c
 321 50 l 1
 321 250 l 1
 148 250 l 1
 148 50 l 1x7c
409 300 m 1
 592 300 l 1
 592 450 l 1x3e
 409 450 l 1
 409 300 l 1
60 0 m 1x7d
 60 300 l 1
 321 300 l 1
 321 450 l 1
 70 450 l 1
 70 500 l 1
 680 500 l 1
 680 250 l 1
 409 250 l 1
 409 50 l 1
 605 50 l 1x7d
 605 90 l 1
 680 90 l 1
 680 0 l 1xbd
 60 0 l 1x7d
EndSplineSet
EndChar

StartChar: Thorn
Encoding: 222 222 196
Width: 560
Flags: W
HStem: 0 21G<80 170> 150 50<170 410> 540 50<170 410> 700 20G<80 170>
VStem: 80 90<0 150 200 540 590 720> 410 90<200 540>
AnchorPoint: "bottom" 125 -30 basechar 0
AnchorPoint: "top" 125 770 basechar 0
LayerCount: 4
Fore
SplineSet
80 0 m 1
 80 720 l 1
 170 720 l 1
 170 590 l 1
 500 590 l 1
 500 150 l 1
 170 150 l 1
 170 0 l 1
 80 0 l 1
170 200 m 1
 410 200 l 1
 410 540 l 1
 170 540 l 1
 170 200 l 1
EndSplineSet
EndChar

StartChar: thorn
Encoding: 254 254 197
Width: 500
Flags: W
HStem: 0 50<158 342> 450 50<158 342> 720 20G<114 158>
VStem: 70 88<-180 0 50 450 500 700> 342 88<50 450>
AnchorPoint: "top" 114 790 basechar 0
AnchorPoint: "bottom" 114 -230 basechar 0
LayerCount: 4
Fore
SplineSet
158 50 m 1
 342 50 l 1
 342 450 l 1
 158 450 l 1
 158 50 l 1
70 -220 m 1
 70 700 l 1
 158 740 l 1
 158 500 l 1
 430 500 l 1
 430 0 l 1
 158 0 l 1
 158 -180 l 1
 70 -220 l 1
EndSplineSet
EndChar

StartChar: dieresis
Encoding: 168 168 198
Width: 450
Flags: W
HStem: 610 130<70 160 290 380>
VStem: 70 90<610 740> 290 90<610 740>
LayerCount: 4
Fore
SplineSet
70 610 m 1
 70 740 l 1
 160 740 l 1
 160 610 l 1
 70 610 l 1
290 610 m 1
 290 740 l 1
 380 740 l 1
 380 610 l 1
 290 610 l 1
EndSplineSet
EndChar

StartChar: exclamdown
Encoding: 161 161 199
Width: 250
Flags: W
HStem: 410 110<75 175>
VStem: 75 100<-200 150 410 520> 85 80<-50 300>
LayerCount: 4
Fore
SplineSet
175 520 m 1xc0
 175 410 l 1
 75 410 l 1
 75 520 l 1
 175 520 l 1xc0
165 300 m 1xa0
 175 -200 l 1
 75 -200 l 1xc0
 85 300 l 1
 165 300 l 1xa0
EndSplineSet
EndChar

StartChar: cent
Encoding: 162 162 200
Width: 480
Flags: W
HStem: 0 100<355 430> 0 50<158 210 290 355> 350 150<355 430> 450 50<158 210 290 355>
VStem: 70 88<50 450> 210 80<-120 0 500 620> 355 75<50 100 350 450>
LayerCount: 4
Back
SplineSet
210 -120 m 1x8380
 210 30 l 1
 290 30 l 1
 290 -120 l 1
 210 -120 l 1x8380
210 470 m 1x0780
 210 620 l 1
 290 620 l 1
 290 470 l 1
 210 470 l 1x0780
EndSplineSet
Refer: 71 99 N 1 0 0 1 0 0 2
Fore
SplineSet
210 -120 m 1x4e
 210 0 l 1
 70 0 l 1
 70 500 l 1
 210 500 l 1
 210 620 l 1
 290 620 l 1
 290 500 l 1x5e
 430 500 l 1
 430 350 l 1
 355 350 l 1x2e
 355 450 l 1
 158 450 l 1
 158 50 l 1
 355 50 l 1x5e
 355 100 l 1
 430 100 l 1
 430 0 l 1x8e
 290 0 l 1
 290 -120 l 1
 210 -120 l 1x4e
EndSplineSet
EndChar

StartChar: sterling
Encoding: 163 163 201
Width: 500
Flags: W
HStem: 0 80<130 470> 330 60<30 100 190 330> 670 50<190 380>
VStem: 100 90<140 330 390 670> 380 80<520 670>
AnchorPoint: "bottom" 260 -30 basechar 0
AnchorPoint: "top" 260 770 basechar 0
LayerCount: 4
Fore
SplineSet
30 0 m 1
 30 50 l 1
 100 120 l 1
 100 330 l 1
 30 330 l 1
 30 390 l 1
 100 390 l 1
 100 720 l 1
 460 720 l 1
 460 520 l 1
 380 520 l 1
 380 670 l 1
 190 670 l 1
 190 390 l 1
 330 390 l 1
 330 330 l 1
 190 330 l 1
 190 140 l 1
 130 80 l 1
 470 80 l 1
 470 0 l 1
 30 0 l 1
EndSplineSet
EndChar

StartChar: currency
Encoding: 164 164 202
Width: 600
Flags: W
HStem: 160 70<222.66 377.34> 490 70<223.942 376.058>
VStem: 100 75<278.217 441.2> 425 75<278.217 441.2>
LayerCount: 4
Fore
SplineSet
300 490 m 0
 230 490 175 450 175 360 c 0
 175 269 230 230 300 230 c 0
 370 230 425 269 425 360 c 0
 425 450 370 490 300 490 c 0
470 473 m 1
 489 442 500 403 500 360 c 0
 500 318 490 281 472 250 c 1
 562 160 l 1
 505 103 l 1
 416 192 l 1
 384 171 345 160 300 160 c 0
 255 160 216 171 184 192 c 1
 95 103 l 1
 38 160 l 1
 128 250 l 1
 110 281 100 318 100 360 c 0
 100 403 111 442 130 473 c 1
 38 565 l 1
 95 622 l 1
 187 530 l 1
 218 549 256 560 300 560 c 0
 344 560 382 549 413 530 c 1
 505 622 l 1
 562 565 l 1
 470 473 l 1
EndSplineSet
EndChar

StartChar: yen
Encoding: 165 165 203
Width: 520
Flags: W
HStem: 0 21G<215 305> 90 50<50 215 305 470> 220 50<50 215 305 470> 370 50<160 215 305 360> 700 20G<70 160 360 450>
VStem: 70 90<420 720> 215 90<0 90 140 220 270 370> 360 90<420 720>
CounterMasks: 1 07
LayerCount: 4
Fore
SplineSet
215 0 m 1
 215 90 l 1
 50 90 l 1
 50 140 l 1
 215 140 l 1
 215 220 l 1
 50 220 l 1
 50 270 l 1
 215 270 l 1
 215 370 l 1
 70 370 l 1
 70 720 l 1
 160 720 l 1
 160 420 l 1
 360 420 l 1
 360 720 l 1
 450 720 l 1
 450 370 l 1
 305 370 l 1
 305 270 l 1
 470 270 l 1
 470 220 l 1
 305 220 l 1
 305 140 l 1
 470 140 l 1
 470 90 l 1
 305 90 l 1
 305 0 l 1
 215 0 l 1
EndSplineSet
EndChar

StartChar: brokenbar
Encoding: 166 166 204
Width: 340
Flags: W
VStem: 130 80<-160 240 360 760>
LayerCount: 4
Fore
SplineSet
130 760 m 1
 210 760 l 1
 210 360 l 1
 130 360 l 1
 130 760 l 1
130 240 m 1
 210 240 l 1
 210 -160 l 1
 130 -160 l 1
 130 240 l 1
EndSplineSet
EndChar

StartChar: section
Encoding: 167 167 205
Width: 540
Flags: W
HStem: -160 100<80 160> -160 50<160 372> 101 78<178 372> 401 78<178 372> 640 80<380 460> 670 50<178 380>
VStem: 80 80<-110 -60> 90 88<179 231 479 670> 372 88<-110 101 349 401> 380 80<640 670>
LayerCount: 4
Back
SplineSet
60 -160 m 1xb240
 60 -60 l 1
 140 -60 l 1xb240
 140 -110 l 1x7240
 432 -110 l 1
 432 91 l 1
 70 91 l 1
 70 301 l 1
 180 411 l 1
 70 411 l 1
 70 720 l 1x7580
 520 720 l 1
 520 640 l 1
 450 640 l 1x3940
 450 670 l 1
 158 670 l 1
 158 489 l 1
 520 489 l 1x3540
 520 279 l 1x3480
 410 169 l 1
 520 169 l 1
 520 -160 l 1x7440
 60 -160 l 1xb240
158 169 m 1x3180
 340 169 l 1
 432 261 l 1
 432 411 l 1
 250 411 l 1
 158 319 l 1
 158 169 l 1x3180
EndSplineSet
Fore
SplineSet
80 -160 m 1xb240
 80 -60 l 1
 160 -60 l 1xb240
 160 -110 l 1
 372 -110 l 1
 372 101 l 1x7280
 90 101 l 1
 90 231 l 1
 178 319 l 1
 178 179 l 1
 460 179 l 1
 460 -160 l 1x7140
 80 -160 l 1xb240
372 261 m 1x3480
 372 401 l 1
 90 401 l 1
 90 720 l 1x3580
 460 720 l 1
 460 640 l 1
 380 640 l 1x3940
 380 670 l 1
 178 670 l 1
 178 479 l 1
 460 479 l 1x3540
 460 349 l 1
 372 261 l 1x3480
EndSplineSet
EndChar

StartChar: copyright
Encoding: 169 169 206
Width: 860
Flags: W
HStem: -10 50<315.803 544.197> 140 60<362.598 493.377> 520 60<364.669 493.377> 680 50<315.803 544.197>
VStem: 70 55<236.221 483.573> 240 75<253.946 465.839> 735 55<236.221 483.573>
LayerCount: 4
Fore
SplineSet
430 680 m 0
 260 680 125 550 125 360 c 0
 125 169 260 40 430 40 c 0
 600 40 735 169 735 360 c 0
 735 550 600 680 430 680 c 0
430 -10 m 0
 230 -10 70 141 70 360 c 0
 70 579 230 730 430 730 c 0
 630 730 790 579 790 360 c 0
 790 141 630 -10 430 -10 c 0
525 270 m 1
 590 240 l 1
 570 180 511 140 430 140 c 0
 340 140 240 201 240 360 c 0
 240 519 340 580 430 580 c 0
 511 580 570 540 590 480 c 1
 525 450 l 1
 515 490 480 520 430 520 c 0
 360 520 315 470 315 360 c 0
 315 249 360 200 430 200 c 0
 480 200 515 230 525 270 c 1
EndSplineSet
EndChar

StartChar: guillemotleft
Encoding: 171 171 207
Width: 550
Flags: W
HStem: 0 21G<198 300 398 500> 480 20G<198 300 398 500>
LayerCount: 4
Fore
SplineSet
60 250 m 1
 210 500 l 1
 300 500 l 1
 150 250 l 1
 300 0 l 1
 210 0 l 1
 60 250 l 1
260 250 m 1
 410 500 l 1
 500 500 l 1
 350 250 l 1
 500 0 l 1
 410 0 l 1
 260 250 l 1
EndSplineSet
EndChar

StartChar: logicalnot
Encoding: 172 172 208
Width: 500
Flags: W
HStem: 310 80<40 350>
VStem: 350 80<110 310>
LayerCount: 4
Fore
SplineSet
40 310 m 1
 40 390 l 1
 430 390 l 1
 430 110 l 1
 350 110 l 1
 350 310 l 1
 40 310 l 1
EndSplineSet
EndChar

StartChar: uni00AD
Encoding: 173 173 209
Width: 400
Flags: W
HStem: 250 80<60 340>
VStem: 60 280<250 330>
LayerCount: 4
Fore
SplineSet
60 250 m 1
 60 330 l 1
 340 330 l 1
 340 250 l 1
 60 250 l 1
EndSplineSet
EndChar

StartChar: registered
Encoding: 174 174 210
Width: 860
Flags: W
HStem: -10 50<315.803 544.197> 310 60<340 454> 510 60<340 518.447> 680 50<315.803 544.197>
VStem: 70 55<236.221 483.573> 270 70<150 310 370 510> 535 75<388.13 491.863> 735 55<236.221 483.573>
LayerCount: 4
Fore
SplineSet
430 680 m 0
 260 680 125 550 125 360 c 0
 125 169 260 40 430 40 c 0
 600 40 735 169 735 360 c 0
 735 550 600 680 430 680 c 0
430 -10 m 0
 230 -10 70 141 70 360 c 0
 70 579 230 730 430 730 c 0
 630 730 790 579 790 360 c 0
 790 141 630 -10 430 -10 c 0
340 370 m 1
 460 370 l 2
 500 370 535 390 535 440 c 0
 535 490 500 510 460 510 c 2
 340 510 l 1
 340 370 l 1
340 310 m 1
 340 150 l 1
 270 150 l 1
 270 570 l 1
 460 570 l 2
 560 570 610 520 610 440 c 0
 610 377 572 332 522 316 c 1
 610 150 l 1
 530 150 l 1
 454 310 l 1
 340 310 l 1
EndSplineSet
EndChar

StartChar: macron
Encoding: 175 175 211
Width: 400
Flags: W
HStem: 560 70<50 350>
VStem: 50 300<560 630>
LayerCount: 4
Fore
SplineSet
50 560 m 1
 50 630 l 1
 350 630 l 1
 350 560 l 1
 50 560 l 1
EndSplineSet
EndChar

StartChar: degree
Encoding: 176 176 212
Width: 440
Flags: W
HStem: 430 60<164.345 275.655> 670 60<164.345 275.655>
VStem: 70 65<518.981 641.019> 305 65<518.981 641.019>
LayerCount: 4
Fore
SplineSet
220 430 m 0
 130 430 70 490 70 580 c 0
 70 670 130 730 220 730 c 0
 310 730 370 670 370 580 c 0
 370 490 310 430 220 430 c 0
220 490 m 0
 270 490 305 530 305 580 c 0
 305 630 270 670 220 670 c 0
 170 670 135 630 135 580 c 0
 135 530 170 490 220 490 c 0
EndSplineSet
EndChar

StartChar: plusminus
Encoding: 177 177 213
Width: 540
Flags: W
HStem: 80 80<60 480> 310 80<60 230 310 480> 480 20G<230 310>
VStem: 230 80<200 310 390 500>
LayerCount: 4
Fore
SplineSet
60 310 m 1
 60 390 l 1
 230 390 l 1
 230 500 l 1
 310 500 l 1
 310 390 l 1
 480 390 l 1
 480 310 l 1
 310 310 l 1
 310 200 l 1
 230 200 l 1
 230 310 l 1
 60 310 l 1
60 80 m 1
 60 160 l 1
 480 160 l 1
 480 80 l 1
 60 80 l 1
EndSplineSet
EndChar

StartChar: acute
Encoding: 180 180 214
Width: 320
Flags: W
HStem: 560 160
VStem: 50 230
LayerCount: 4
Fore
SplineSet
120 560 m 1
 50 560 l 1
 170 720 l 1
 280 720 l 1
 120 560 l 1
EndSplineSet
EndChar

StartChar: paragraph
Encoding: 182 182 215
Width: 550
Flags: W
HStem: 636 70<310 390>
VStem: 40 270<453.795 619.74> 240 70<-180 356> 390 70<-180 636>
LayerCount: 4
Fore
SplineSet
40 536 m 0xd0
 40 636 120 706 220 706 c 2
 460 706 l 1
 460 -180 l 1
 390 -220 l 1
 390 636 l 1
 310 636 l 1
 310 -180 l 1
 240 -220 l 1
 240 356 l 1xb0
 120 356 40 436 40 536 c 0xd0
EndSplineSet
EndChar

StartChar: periodcentered
Encoding: 183 183 216
Width: 250
Flags: W
HStem: 270 130<65 185>
VStem: 65 120<270 400>
LayerCount: 4
Fore
SplineSet
65 270 m 1
 65 400 l 1
 185 400 l 1
 185 270 l 1
 65 270 l 1
EndSplineSet
EndChar

StartChar: cedilla
Encoding: 184 184 217
Width: 250
Flags: W
HStem: -160 50<30 100>
VStem: 100 60<-110 10>
LayerCount: 4
Fore
SplineSet
30 -160 m 1
 30 -110 l 1
 100 -110 l 1
 100 10 l 1
 160 10 l 1
 160 -160 l 1
 30 -160 l 1
EndSplineSet
EndChar

StartChar: guillemotright
Encoding: 187 187 218
Width: 550
Flags: W
HStem: 0 21G<50 152 250 352> 480 20G<50 152 250 352>
LayerCount: 4
Fore
SplineSet
490 250 m 1
 340 0 l 1
 250 0 l 1
 400 250 l 1
 250 500 l 1
 340 500 l 1
 490 250 l 1
290 250 m 1
 140 0 l 1
 50 0 l 1
 200 250 l 1
 50 500 l 1
 140 500 l 1
 290 250 l 1
EndSplineSet
EndChar

StartChar: Amacron
Encoding: 256 256 219
Width: 570
Flags: W
HStem: 0 21G<80 170 400 490> 230 50<170 400> 670 50<170 400> 800 70<135 435>
VStem: 80 90<0 230 280 670> 400 90<0 230 280 670>
LayerCount: 4
Fore
SplineSet
135 800 m 1
 135 870 l 1
 435 870 l 1
 435 800 l 1
 135 800 l 1
80 0 m 1
 80 720 l 1
 490 720 l 1
 490 0 l 1
 400 0 l 1
 400 230 l 1
 170 230 l 1
 170 0 l 1
 80 0 l 1
170 280 m 1
 400 280 l 1
 400 670 l 1
 170 670 l 1
 170 280 l 1
EndSplineSet
EndChar

StartChar: amacron
Encoding: 257 257 220
Width: 480
HStem: 0 50<148 322 410 450> 250 50<148 322> 450 50<70 322> 580 70<80 380>
VStem: 60 88<50 250> 322 88<50 250 300 450>
LayerCount: 4
Fore
SplineSet
80 580 m 1
 80 650 l 1
 380 650 l 1
 380 580 l 1
 80 580 l 1
148 50 m 1
 322 50 l 1
 322 250 l 1
 148 250 l 1
 148 50 l 1
60 0 m 1
 60 300 l 1
 322 300 l 1
 322 450 l 1
 70 450 l 1
 70 500 l 1
 410 500 l 1
 410 50 l 1
 450 50 l 1
 450 0 l 1
 60 0 l 1
EndSplineSet
EndChar

StartChar: Abreve
Encoding: 258 258 221
Width: 570
Flags: W
HStem: 0 21G<80 170 400 490> 230 50<170 400> 670 50<170 400> 790 50<225.879 344.121>
VStem: 80 90<0 230 280 670> 125 75<866.076 930> 370 75<866.076 930> 400 90<0 230 280 670>
AnchorPoint: "top" 285 960 basechar 0
LayerCount: 4
Fore
SplineSet
445 930 m 1xf6
 445 838 375 790 285 790 c 0
 195 790 125 838 125 930 c 1
 200 930 l 1
 200 878 230 840 285 840 c 0
 340 840 370 878 370 930 c 1
 445 930 l 1xf6
80 0 m 1xf9
 80 720 l 1
 490 720 l 1
 490 0 l 1
 400 0 l 1
 400 230 l 1
 170 230 l 1
 170 0 l 1
 80 0 l 1xf9
170 280 m 1
 400 280 l 1
 400 670 l 1
 170 670 l 1
 170 280 l 1
EndSplineSet
EndChar

StartChar: abreve
Encoding: 259 259 222
Width: 480
HStem: 0 50<148 322 410 450> 250 50<148 322> 450 50<70 322> 570 50<170.879 289.121>
VStem: 60 88<50 250> 70 75<646.076 710> 315 75<646.076 710> 322 88<50 250 300 450>
AnchorPoint: "top" 230 740 basechar 0
LayerCount: 4
Fore
SplineSet
390 710 m 1xf6
 390 618 320 570 230 570 c 0
 140 570 70 618 70 710 c 1
 145 710 l 1
 145 658 175 620 230 620 c 0
 285 620 315 658 315 710 c 1
 390 710 l 1xf6
148 50 m 1xf9
 322 50 l 1
 322 250 l 1
 148 250 l 1
 148 50 l 1xf9
60 0 m 1
 60 300 l 1xf9
 322 300 l 1
 322 450 l 1
 70 450 l 1
 70 500 l 1xf5
 410 500 l 1
 410 50 l 1
 450 50 l 1
 450 0 l 1
 60 0 l 1
EndSplineSet
EndChar

StartChar: Aogonek
Encoding: 260 260 223
Width: 570
Flags: W
HStem: -160 50<470 540> 0 21G<80 170> 230 50<170 400> 670 50<170 400>
VStem: 80 90<0 230 280 670> 400 90<0 230 280 670> 410 60<-110 0>
LayerCount: 4
Fore
SplineSet
80 0 m 1xfc
 80 720 l 1
 490 720 l 1
 490 0 l 1xfc
 470 0 l 1
 470 -110 l 1
 540 -110 l 1
 540 -160 l 1
 410 -160 l 1
 410 0 l 1xfa
 400 0 l 1
 400 230 l 1
 170 230 l 1
 170 0 l 1
 80 0 l 1xfc
170 280 m 1
 400 280 l 1
 400 670 l 1
 170 670 l 1
 170 280 l 1
EndSplineSet
EndChar

StartChar: aogonek
Encoding: 261 261 224
Width: 480
HStem: -160 50<410 480> 0 50<148 322 410 450> 250 50<148 322> 450 50<70 322>
VStem: 60 88<50 250> 322 88<50 250 300 450> 350 60<-110 0>
LayerCount: 4
Fore
SplineSet
148 50 m 1xfc
 322 50 l 1
 322 250 l 1
 148 250 l 1
 148 50 l 1xfc
60 0 m 1
 60 300 l 1
 322 300 l 1
 322 450 l 1xfc
 70 450 l 1
 70 500 l 1
 410 500 l 1xfa
 410 50 l 1xfc
 450 50 l 1
 450 0 l 1
 410 0 l 1
 410 -110 l 1
 480 -110 l 1
 480 -160 l 1
 350 -160 l 1
 350 0 l 1xfa
 60 0 l 1
EndSplineSet
EndChar

StartChar: Cacute
Encoding: 262 262 225
Width: 550
Flags: W
HStem: 0 120<410 490> 0 50<170 410> 670 50<170 410>
VStem: 80 90<50 670> 410 80<50 120 520 670>
LayerCount: 4
Fore
SplineSet
260 800 m 1x38
 190 800 l 1
 310 960 l 1
 420 960 l 1
 260 800 l 1x38
80 0 m 1x78
 80 720 l 1
 490 720 l 1
 490 520 l 1
 410 520 l 1
 410 670 l 1
 170 670 l 1
 170 50 l 1
 410 50 l 1x78
 410 120 l 1
 490 120 l 1
 490 0 l 1xb8
 80 0 l 1x78
EndSplineSet
EndChar

StartChar: cacute
Encoding: 263 263 226
Width: 480
HStem: 0 100<355 430> 0 50<158 355> 350 150<355 430> 450 50<158 355> 720 20G<255 380>
VStem: 70 88<50 450> 355 75<50 100 350 450>
LayerCount: 4
Fore
SplineSet
220 580 m 1x0e
 150 580 l 1
 270 740 l 1
 380 740 l 1
 220 580 l 1x0e
70 0 m 1x4e
 70 500 l 1x5e
 430 500 l 1
 430 350 l 1
 355 350 l 1x2e
 355 450 l 1
 158 450 l 1
 158 50 l 1
 355 50 l 1x5e
 355 100 l 1
 430 100 l 1
 430 0 l 1x8e
 70 0 l 1x4e
EndSplineSet
EndChar

StartChar: Ccircumflex
Encoding: 264 264 227
Width: 550
Flags: W
HStem: 0 120<410 490> 0 50<170 410> 670 50<170 410>
VStem: 80 90<50 670> 410 80<50 120 520 670>
LayerCount: 4
Fore
SplineSet
80 0 m 1x78
 80 720 l 1
 490 720 l 1
 490 520 l 1
 410 520 l 1
 410 670 l 1
 170 670 l 1
 170 50 l 1
 410 50 l 1x78
 410 120 l 1
 490 120 l 1
 490 0 l 1xb8
 80 0 l 1x78
290 912 m 1
 213 800 l 1
 140 800 l 1
 250 960 l 1
 330 960 l 1
 440 800 l 1
 367 800 l 1
 290 912 l 1
EndSplineSet
EndChar

StartChar: ccircumflex
Encoding: 265 265 228
Width: 480
HStem: 0 100<355 430> 0 50<158 355> 350 150<355 430> 450 50<158 355> 720 20G<196.25 303.75>
VStem: 70 88<50 450> 355 75<50 100 350 450>
LayerCount: 4
Fore
SplineSet
70 0 m 1x4e
 70 500 l 1x5e
 430 500 l 1
 430 350 l 1
 355 350 l 1x2e
 355 450 l 1
 158 450 l 1
 158 50 l 1
 355 50 l 1x5e
 355 100 l 1
 430 100 l 1
 430 0 l 1x8e
 70 0 l 1x4e
250 692 m 1
 173 580 l 1
 100 580 l 1
 210 740 l 1
 290 740 l 1
 400 580 l 1
 327 580 l 1
 250 692 l 1
EndSplineSet
EndChar

StartChar: Cdotaccent
Encoding: 266 266 229
Width: 550
Flags: W
HStem: 0 120<410 490> 0 50<170 410> 670 50<170 410> 810 130<230 350>
VStem: 80 90<50 670> 230 120<810 940> 410 80<50 120 520 670>
LayerCount: 4
Fore
SplineSet
230 810 m 1x3e
 230 940 l 1
 350 940 l 1
 350 810 l 1
 230 810 l 1x3e
80 0 m 1x7e
 80 720 l 1
 490 720 l 1
 490 520 l 1
 410 520 l 1
 410 670 l 1
 170 670 l 1
 170 50 l 1
 410 50 l 1x7e
 410 120 l 1
 490 120 l 1
 490 0 l 1xbe
 80 0 l 1x7e
EndSplineSet
EndChar

StartChar: cdotaccent
Encoding: 267 267 230
Width: 480
HStem: 0 100<355 430> 0 50<158 355> 350 150<355 430> 450 50<158 355> 590 130<190 310>
VStem: 70 88<50 450> 190 120<590 720> 355 75<50 100 350 450>
LayerCount: 4
Fore
SplineSet
190 590 m 1x0f
 190 720 l 1
 310 720 l 1
 310 590 l 1
 190 590 l 1x0f
70 0 m 1x4f
 70 500 l 1x5f
 430 500 l 1
 430 350 l 1
 355 350 l 1x2f
 355 450 l 1
 158 450 l 1
 158 50 l 1
 355 50 l 1x5f
 355 100 l 1
 430 100 l 1
 430 0 l 1x8f
 70 0 l 1x4f
EndSplineSet
EndChar

StartChar: Ccaron
Encoding: 268 268 231
Width: 550
Flags: W
HStem: 0 120<410 490> 0 50<170 410> 670 50<170 410>
VStem: 80 90<50 670> 410 80<50 120 520 670>
LayerCount: 4
Fore
SplineSet
80 0 m 1x78
 80 720 l 1
 490 720 l 1
 490 520 l 1
 410 520 l 1
 410 670 l 1
 170 670 l 1
 170 50 l 1
 410 50 l 1x78
 410 120 l 1
 490 120 l 1
 490 0 l 1xb8
 80 0 l 1x78
290 848 m 1
 367 960 l 1
 440 960 l 1
 330 800 l 1
 250 800 l 1
 140 960 l 1
 213 960 l 1
 290 848 l 1
EndSplineSet
EndChar

StartChar: ccaron
Encoding: 269 269 232
Width: 480
HStem: 0 100<355 430> 0 50<158 355> 350 150<355 430> 450 50<158 355> 720 20G<100 186.75 313.25 400>
VStem: 70 88<50 450> 355 75<50 100 350 450>
LayerCount: 4
Fore
SplineSet
70 0 m 1x4e
 70 500 l 1x5e
 430 500 l 1
 430 350 l 1
 355 350 l 1x2e
 355 450 l 1
 158 450 l 1
 158 50 l 1
 355 50 l 1x5e
 355 100 l 1
 430 100 l 1
 430 0 l 1x8e
 70 0 l 1x4e
250 628 m 1
 327 740 l 1
 400 740 l 1
 290 580 l 1
 210 580 l 1
 100 740 l 1
 173 740 l 1
 250 628 l 1
EndSplineSet
EndChar

StartChar: Dcaron
Encoding: 270 270 233
Width: 570
Flags: W
HStem: 0 50<170 340> 670 50<70 340>
VStem: 80 90<50 520> 400 90<110 610>
LayerCount: 4
Fore
SplineSet
80 0 m 1
 80 520 l 1
 170 520 l 1
 170 50 l 1
 340 50 l 1
 400 110 l 1
 400 610 l 1
 340 670 l 1
 70 670 l 1
 70 720 l 1
 380 720 l 1
 490 610 l 1
 490 110 l 1
 380 0 l 1
 80 0 l 1
280 848 m 1
 357 960 l 1
 430 960 l 1
 320 800 l 1
 240 800 l 1
 130 960 l 1
 203 960 l 1
 280 848 l 1
EndSplineSet
EndChar

StartChar: dcaron
Encoding: 271 271 234
Width: 500
Flags: W
HStem: 0 50<158 342> 450 50<158 342> 650 90<525 575>
VStem: 70 88<50 450> 342 88<50 450 500 720> 525 90<650 740>
LayerCount: 4
Fore
SplineSet
525 650 m 1
 525 740 l 1
 615 740 l 1
 615 650 l 1
 570 570 l 1
 520 570 l 1
 575 650 l 1
 525 650 l 1
70 0 m 1
 70 500 l 1
 342 500 l 1
 342 720 l 1
 430 760 l 1
 430 0 l 1
 70 0 l 1
158 50 m 1
 342 50 l 1
 342 450 l 1
 158 450 l 1
 158 50 l 1
EndSplineSet
EndChar

StartChar: Emacron
Encoding: 274 274 235
Width: 520
Flags: W
HStem: 0 50<170 460> 350 50<170 430> 670 50<170 460> 800 70<140 440>
VStem: 80 90<50 350 400 670>
LayerCount: 4
Fore
SplineSet
140 800 m 1
 140 870 l 1
 440 870 l 1
 440 800 l 1
 140 800 l 1
80 0 m 1
 80 720 l 1
 460 720 l 1
 460 670 l 1
 170 670 l 1
 170 400 l 1
 430 400 l 1
 430 350 l 1
 170 350 l 1
 170 50 l 1
 460 50 l 1
 460 0 l 1
 80 0 l 1
EndSplineSet
EndChar

StartChar: emacron
Encoding: 275 275 236
Width: 500
HStem: 0 90<355 430> 0 50<158 355> 250 50<158 342> 450 50<158 342> 580 70<100 400>
VStem: 70 88<50 250 300 450> 342 88<300 450> 355 75<50 90>
LayerCount: 4
Fore
SplineSet
100 580 m 1x3c
 100 650 l 1
 400 650 l 1
 400 580 l 1
 100 580 l 1x3c
158 300 m 1
 342 300 l 1
 342 450 l 1x3e
 158 450 l 1
 158 300 l 1
70 0 m 1x7d
 70 500 l 1
 430 500 l 1
 430 250 l 1
 158 250 l 1
 158 50 l 1
 355 50 l 1x7d
 355 90 l 1
 430 90 l 1
 430 0 l 1xbd
 70 0 l 1x7d
EndSplineSet
EndChar

StartChar: Ebreve
Encoding: 276 276 237
Width: 520
Flags: W
HStem: 0 50<170 460> 350 50<170 430> 670 50<170 460> 790 50<230.879 349.121>
VStem: 80 90<50 350 400 670> 130 75<866.076 930> 375 75<866.076 930>
LayerCount: 4
Fore
SplineSet
450 930 m 1xf6
 450 838 380 790 290 790 c 0
 200 790 130 838 130 930 c 1
 205 930 l 1
 205 878 235 840 290 840 c 0
 345 840 375 878 375 930 c 1
 450 930 l 1xf6
80 0 m 1xfa
 80 720 l 1
 460 720 l 1
 460 670 l 1
 170 670 l 1
 170 400 l 1
 430 400 l 1
 430 350 l 1
 170 350 l 1
 170 50 l 1
 460 50 l 1
 460 0 l 1
 80 0 l 1xfa
EndSplineSet
EndChar

StartChar: ebreve
Encoding: 277 277 238
Width: 500
HStem: 0 90<355 430> 0 50<158 355> 250 50<158 342> 450 50<158 342> 570 50<190.879 309.121>
VStem: 70 88<50 250 300 450> 90 75<646.076 710> 335 75<646.076 710> 342 88<300 450> 355 75<50 90>
LayerCount: 4
Fore
SplineSet
410 710 m 1x3b
 410 618 340 570 250 570 c 0
 160 570 90 618 90 710 c 1
 165 710 l 1
 165 658 195 620 250 620 c 0
 305 620 335 658 335 710 c 1
 410 710 l 1x3b
158 300 m 1x3c80
 342 300 l 1
 342 450 l 1
 158 450 l 1
 158 300 l 1x3c80
70 0 m 1x7c40
 70 500 l 1
 430 500 l 1
 430 250 l 1
 158 250 l 1
 158 50 l 1
 355 50 l 1x7c40
 355 90 l 1
 430 90 l 1
 430 0 l 1xbc40
 70 0 l 1x7c40
EndSplineSet
EndChar

StartChar: Edotaccent
Encoding: 278 278 239
Width: 520
Flags: W
HStem: 0 50<170 460> 350 50<170 430> 670 50<170 460> 810 130<230 350>
VStem: 80 90<50 350 400 670> 230 120<810 940>
LayerCount: 4
Fore
SplineSet
230 810 m 1
 230 940 l 1
 350 940 l 1
 350 810 l 1
 230 810 l 1
80 0 m 1
 80 720 l 1
 460 720 l 1
 460 670 l 1
 170 670 l 1
 170 400 l 1
 430 400 l 1
 430 350 l 1
 170 350 l 1
 170 50 l 1
 460 50 l 1
 460 0 l 1
 80 0 l 1
EndSplineSet
EndChar

StartChar: edotaccent
Encoding: 279 279 240
Width: 500
HStem: 0 90<355 430> 0 50<158 355> 250 50<158 342> 450 50<158 342> 590 130<190 310>
VStem: 70 88<50 250 300 450> 190 120<590 720> 342 88<300 450> 355 75<50 90>
LayerCount: 4
Fore
SplineSet
190 590 m 1x3e
 190 720 l 1
 310 720 l 1
 310 590 l 1
 190 590 l 1x3e
158 300 m 1
 342 300 l 1
 342 450 l 1x3f
 158 450 l 1
 158 300 l 1
70 0 m 1x7e80
 70 500 l 1
 430 500 l 1
 430 250 l 1
 158 250 l 1
 158 50 l 1
 355 50 l 1x7e80
 355 90 l 1
 430 90 l 1
 430 0 l 1xbe80
 70 0 l 1x7e80
EndSplineSet
EndChar

StartChar: Eogonek
Encoding: 280 280 241
Width: 520
Flags: W
HStem: -160 50<430 500> 0 50<170 370 430 460> 350 50<170 430> 670 50<170 460>
VStem: 80 90<50 350 400 670> 370 60<-110 0>
LayerCount: 4
Fore
SplineSet
80 0 m 1
 80 720 l 1
 460 720 l 1
 460 670 l 1
 170 670 l 1
 170 400 l 1
 430 400 l 1
 430 350 l 1
 170 350 l 1
 170 50 l 1
 460 50 l 1
 460 0 l 1
 430 0 l 1
 430 -110 l 1
 500 -110 l 1
 500 -160 l 1
 370 -160 l 1
 370 0 l 1
 80 0 l 1
EndSplineSet
EndChar

StartChar: eogonek
Encoding: 281 281 242
Width: 500
HStem: -160 50<340 410> 0 90<355 430> 0 50<158 280 340 355> 250 50<158 342> 450 50<158 342>
VStem: 70 88<50 250 300 450> 280 60<-110 0> 342 88<300 450> 355 75<50 90>
LayerCount: 4
Fore
SplineSet
158 300 m 1x9f
 342 300 l 1
 342 450 l 1
 158 450 l 1
 158 300 l 1x9f
70 0 m 1xbe80
 70 500 l 1
 430 500 l 1
 430 250 l 1
 158 250 l 1
 158 50 l 1
 355 50 l 1xbe80
 355 90 l 1
 430 90 l 1
 430 0 l 1xde80
 340 0 l 1
 340 -110 l 1
 410 -110 l 1
 410 -160 l 1
 280 -160 l 1
 280 0 l 1
 70 0 l 1xbe80
EndSplineSet
EndChar

StartChar: Ecaron
Encoding: 282 282 243
Width: 520
Flags: W
HStem: 0 50<170 460> 350 50<170 430> 670 50<170 460>
VStem: 80 90<50 350 400 670>
LayerCount: 4
Fore
SplineSet
80 0 m 1
 80 720 l 1
 460 720 l 1
 460 670 l 1
 170 670 l 1
 170 400 l 1
 430 400 l 1
 430 350 l 1
 170 350 l 1
 170 50 l 1
 460 50 l 1
 460 0 l 1
 80 0 l 1
290 848 m 1
 367 960 l 1
 440 960 l 1
 330 800 l 1
 250 800 l 1
 140 960 l 1
 213 960 l 1
 290 848 l 1
EndSplineSet
EndChar

StartChar: ecaron
Encoding: 283 283 244
Width: 500
HStem: 0 90<355 430> 0 50<158 355> 250 50<158 342> 450 50<158 342> 720 20G<100 186.75 313.25 400>
VStem: 70 88<50 250 300 450> 342 88<300 450> 355 75<50 90>
LayerCount: 4
Fore
SplineSet
158 300 m 1x3e
 342 300 l 1
 342 450 l 1
 158 450 l 1
 158 300 l 1x3e
70 0 m 1x7d
 70 500 l 1
 430 500 l 1
 430 250 l 1
 158 250 l 1
 158 50 l 1
 355 50 l 1x7d
 355 90 l 1
 430 90 l 1
 430 0 l 1xbd
 70 0 l 1x7d
250 628 m 1
 327 740 l 1
 400 740 l 1
 290 580 l 1
 210 580 l 1
 100 740 l 1
 173 740 l 1
 250 628 l 1
EndSplineSet
EndChar

StartChar: Gcircumflex
Encoding: 284 284 245
Width: 570
Flags: W
HStem: 0 50<170 400> 300 50<330 400> 570 150<410 490> 670 50<170 410>
VStem: 80 90<50 670> 400 90<50 300> 410 80<570 670>
LayerCount: 4
Fore
SplineSet
80 0 m 1xda
 80 720 l 1xda
 490 720 l 1
 490 570 l 1
 410 570 l 1xea
 410 670 l 1xda
 170 670 l 1
 170 50 l 1
 400 50 l 1
 400 300 l 1xdc
 330 300 l 1
 330 350 l 1
 490 350 l 1
 490 0 l 1
 80 0 l 1xda
285 912 m 1
 208 800 l 1
 135 800 l 1
 245 960 l 1
 325 960 l 1
 435 800 l 1
 362 800 l 1
 285 912 l 1
EndSplineSet
EndChar

StartChar: gcircumflex
Encoding: 285 285 246
Width: 500
HStem: -200 50<100 342> 50 50<158 342> 450 50<158 342> 720 20G<196.25 303.75>
VStem: 70 88<100 450> 342 88<-150 50 100 450>
LayerCount: 4
Fore
SplineSet
158 100 m 1
 342 100 l 1
 342 450 l 1
 158 450 l 1
 158 100 l 1
100 -200 m 1
 100 -150 l 1
 342 -150 l 1
 342 50 l 1
 70 50 l 1
 70 500 l 1
 430 500 l 1
 430 -200 l 1
 100 -200 l 1
250 692 m 1
 173 580 l 1
 100 580 l 1
 210 740 l 1
 290 740 l 1
 400 580 l 1
 327 580 l 1
 250 692 l 1
EndSplineSet
EndChar

StartChar: Gbreve
Encoding: 286 286 247
Width: 570
Flags: W
HStem: 0 50<170 400> 300 50<330 400> 570 150<410 490> 670 50<170 410> 790 50<225.879 344.121>
VStem: 80 90<50 670> 125 75<866.076 930> 370 75<866.076 930> 400 90<50 300> 410 80<570 670>
LayerCount: 4
Fore
SplineSet
445 930 m 1xcb
 445 838 375 790 285 790 c 0
 195 790 125 838 125 930 c 1
 200 930 l 1
 200 878 230 840 285 840 c 0
 340 840 370 878 370 930 c 1
 445 930 l 1xcb
80 0 m 1xdc40
 80 720 l 1xdc40
 490 720 l 1
 490 570 l 1
 410 570 l 1xec40
 410 670 l 1xdc40
 170 670 l 1
 170 50 l 1
 400 50 l 1
 400 300 l 1xdc80
 330 300 l 1
 330 350 l 1
 490 350 l 1
 490 0 l 1
 80 0 l 1xdc40
EndSplineSet
EndChar

StartChar: gbreve
Encoding: 287 287 248
Width: 500
HStem: -200 50<100 342> 50 50<158 342> 450 50<158 342> 570 50<190.879 309.121>
VStem: 70 88<100 450> 90 75<646.076 710> 335 75<646.076 710> 342 88<-150 50 100 450>
LayerCount: 4
Fore
SplineSet
410 710 m 1xf6
 410 618 340 570 250 570 c 0
 160 570 90 618 90 710 c 1
 165 710 l 1
 165 658 195 620 250 620 c 0
 305 620 335 658 335 710 c 1
 410 710 l 1xf6
158 100 m 1xf9
 342 100 l 1
 342 450 l 1
 158 450 l 1
 158 100 l 1xf9
100 -200 m 1
 100 -150 l 1
 342 -150 l 1
 342 50 l 1
 70 50 l 1
 70 500 l 1
 430 500 l 1
 430 -200 l 1
 100 -200 l 1
EndSplineSet
EndChar

StartChar: Gdotaccent
Encoding: 288 288 249
Width: 570
Flags: W
HStem: 0 50<170 400> 300 50<330 400> 570 150<410 490> 670 50<170 410> 810 130<225 345>
VStem: 80 90<50 670> 225 120<810 940> 400 90<50 300> 410 80<570 670>
LayerCount: 4
Fore
SplineSet
225 810 m 1xce
 225 940 l 1
 345 940 l 1
 345 810 l 1
 225 810 l 1xce
80 0 m 1
 80 720 l 1xde80
 490 720 l 1
 490 570 l 1
 410 570 l 1xee80
 410 670 l 1xde80
 170 670 l 1
 170 50 l 1
 400 50 l 1
 400 300 l 1xdf
 330 300 l 1
 330 350 l 1
 490 350 l 1
 490 0 l 1xde80
 80 0 l 1
EndSplineSet
EndChar

StartChar: gdotaccent
Encoding: 289 289 250
Width: 500
HStem: -200 50<100 342> 50 50<158 342> 450 50<158 342> 590 130<190 310>
VStem: 70 88<100 450> 190 120<590 720> 342 88<-150 50 100 450>
CounterMasks: 1 0e
LayerCount: 4
Fore
SplineSet
190 590 m 1
 190 720 l 1
 310 720 l 1
 310 590 l 1
 190 590 l 1
158 100 m 1
 342 100 l 1
 342 450 l 1
 158 450 l 1
 158 100 l 1
100 -200 m 1
 100 -150 l 1
 342 -150 l 1
 342 50 l 1
 70 50 l 1
 70 500 l 1
 430 500 l 1
 430 -200 l 1
 100 -200 l 1
EndSplineSet
EndChar

StartChar: uni0122
Encoding: 290 290 251
Width: 570
Flags: W
HStem: -160 90<240 290> 0 50<170 400> 300 50<330 400> 570 150<410 490> 670 50<170 410>
VStem: 80 90<50 670> 240 90<-160 -70> 400 90<50 300> 410 80<570 670>
LayerCount: 4
Fore
SplineSet
240 -160 m 1xe6
 240 -70 l 1
 330 -70 l 1
 330 -160 l 1
 285 -240 l 1
 235 -240 l 1
 290 -160 l 1
 240 -160 l 1xe6
80 0 m 1
 80 720 l 1xee80
 490 720 l 1
 490 570 l 1
 410 570 l 1xf680
 410 670 l 1xee80
 170 670 l 1
 170 50 l 1
 400 50 l 1
 400 300 l 1xef
 330 300 l 1
 330 350 l 1
 490 350 l 1
 490 0 l 1xee80
 80 0 l 1
EndSplineSet
EndChar

StartChar: uni0123
Encoding: 291 291 252
Width: 500
HStem: -200 50<100 342> 50 50<158 342> 450 50<158 342> 550 130<245 315>
VStem: 70 88<100 450> 195 120<550 680> 342 88<-150 50 100 450>
LayerCount: 4
Fore
SplineSet
195 550 m 1
 195 680 l 1
 270 820 l 1
 330 820 l 1
 245 680 l 1
 315 680 l 1
 315 550 l 1
 195 550 l 1
158 100 m 1
 342 100 l 1
 342 450 l 1
 158 450 l 1
 158 100 l 1
100 -200 m 1
 100 -150 l 1
 342 -150 l 1
 342 50 l 1
 70 50 l 1
 70 500 l 1
 430 500 l 1
 430 -200 l 1
 100 -200 l 1
EndSplineSet
EndChar

StartChar: Hcircumflex
Encoding: 292 292 253
Width: 570
Flags: W
HStem: 0 21G<80 170 400 490> 360 50<170 400> 700 20G<80 170 400 490>
VStem: 80 90<0 360 410 720> 400 90<0 360 410 720>
LayerCount: 4
Fore
SplineSet
80 0 m 1
 80 720 l 1
 170 720 l 1
 170 410 l 1
 400 410 l 1
 400 720 l 1
 490 720 l 1
 490 0 l 1
 400 0 l 1
 400 360 l 1
 170 360 l 1
 170 0 l 1
 80 0 l 1
285 912 m 1
 208 800 l 1
 135 800 l 1
 245 960 l 1
 325 960 l 1
 435 800 l 1
 362 800 l 1
 285 912 l 1
EndSplineSet
EndChar

StartChar: hcircumflex
Encoding: 293 293 254
Width: 500
HStem: 0 21G<70 158 342 430> 450 50<158 342>
VStem: 70 88<0 450 500 720> 342 88<0 450>
LayerCount: 4
Fore
SplineSet
70 0 m 1
 70 720 l 1
 158 760 l 1
 158 500 l 1
 430 500 l 1
 430 0 l 1
 342 0 l 1
 342 450 l 1
 158 450 l 1
 158 0 l 1
 70 0 l 1
120 932 m 1
 43 820 l 1
 -30 820 l 1
 80 980 l 1
 160 980 l 1
 270 820 l 1
 197 820 l 1
 120 932 l 1
EndSplineSet
EndChar

StartChar: Itilde
Encoding: 296 296 255
Width: 270
Flags: W
HStem: 0 21G<90 180> 700 20G<90 180> 800 70<147.234 249.821> 850 70<20.1786 122.766>
VStem: -45 60<800 846.576> 90 90<0 720> 255 60<873.424 920>
CounterMasks: 1 0e
LayerCount: 4
Fore
SplineSet
55 850 m 0xde
 28 850 15 834 15 800 c 1
 -45 800 l 1xee
 -45 873 0 920 55 920 c 0xde
 130 920 156 870 215 870 c 0xee
 242 870 255 886 255 920 c 1
 315 920 l 1xde
 315 847 270 800 215 800 c 0xee
 140 800 114 850 55 850 c 0xde
90 0 m 1
 90 720 l 1
 180 720 l 1
 180 0 l 1
 90 0 l 1
EndSplineSet
EndChar

StartChar: itilde
Encoding: 297 297 256
Width: 260
HStem: 0 21G<86 174> 480 20G<86 174> 580 70<142.234 244.821> 630 70<15.1786 117.766>
VStem: -50 60<580 626.576> 86 88<0 500> 250 60<653.424 700>
CounterMasks: 1 0e
LayerCount: 4
Fore
SplineSet
50 630 m 0xde
 23 630 10 614 10 580 c 1
 -50 580 l 1xee
 -50 653 -5 700 50 700 c 0xde
 125 700 151 650 210 650 c 0xee
 237 650 250 666 250 700 c 1
 310 700 l 1xde
 310 627 265 580 210 580 c 0xee
 135 580 109 630 50 630 c 0xde
86 0 m 1
 86 500 l 1
 174 500 l 1
 174 0 l 1
 86 0 l 1
EndSplineSet
EndChar

StartChar: Imacron
Encoding: 298 298 257
Width: 270
Flags: W
HStem: 0 21G<90 180> 700 20G<90 180> 800 70<-15 285>
VStem: 90 90<0 720>
LayerCount: 4
Fore
SplineSet
-15 800 m 1
 -15 870 l 1
 285 870 l 1
 285 800 l 1
 -15 800 l 1
90 0 m 1
 90 720 l 1
 180 720 l 1
 180 0 l 1
 90 0 l 1
EndSplineSet
EndChar

StartChar: imacron
Encoding: 299 299 258
Width: 260
HStem: 0 21G<86 174> 480 20G<86 174> 580 70<-20 280>
VStem: 86 88<0 500>
LayerCount: 4
Fore
SplineSet
-20 580 m 1
 -20 650 l 1
 280 650 l 1
 280 580 l 1
 -20 580 l 1
86 0 m 1
 86 500 l 1
 174 500 l 1
 174 0 l 1
 86 0 l 1
EndSplineSet
EndChar

StartChar: Ibreve
Encoding: 300 300 259
Width: 270
Flags: W
HStem: 0 21G<90 180> 700 20G<90 180> 790 50<75.8786 194.121>
VStem: -25 75<866.076 930> 90 90<0 720> 220 75<866.076 930>
CounterMasks: 1 1c
LayerCount: 4
Fore
SplineSet
295 930 m 1
 295 838 225 790 135 790 c 0
 45 790 -25 838 -25 930 c 1
 50 930 l 1
 50 878 80 840 135 840 c 0
 190 840 220 878 220 930 c 1
 295 930 l 1
90 0 m 1
 90 720 l 1
 180 720 l 1
 180 0 l 1
 90 0 l 1
EndSplineSet
EndChar

StartChar: ibreve
Encoding: 301 301 260
Width: 260
HStem: 0 21G<86 174> 480 20G<86 174> 570 50<70.8786 189.121>
VStem: -30 75<646.076 710> 86 88<0 500> 215 75<646.076 710>
CounterMasks: 1 1c
LayerCount: 4
Fore
SplineSet
290 710 m 1
 290 618 220 570 130 570 c 0
 40 570 -30 618 -30 710 c 1
 45 710 l 1
 45 658 75 620 130 620 c 0
 185 620 215 658 215 710 c 1
 290 710 l 1
86 0 m 1
 86 500 l 1
 174 500 l 1
 174 0 l 1
 86 0 l 1
EndSplineSet
EndChar

StartChar: Iogonek
Encoding: 302 302 261
Width: 270
Flags: W
HStem: -160 50<165 235> 700 20G<90 180>
VStem: 90 90<0 720> 105 60<-110 0>
LayerCount: 4
Fore
SplineSet
90 0 m 1xe0
 90 720 l 1
 180 720 l 1
 180 0 l 1xe0
 165 0 l 1
 165 -110 l 1
 235 -110 l 1
 235 -160 l 1
 105 -160 l 1
 105 0 l 1xd0
 90 0 l 1xe0
EndSplineSet
EndChar

StartChar: iogonek
Encoding: 303 303 262
Width: 260
HStem: -164 50<160 230> 480 20G<86 174> 610 130<70 190>
VStem: 70 120<610 740> 86 88<0 500> 100 60<-114 0>
LayerCount: 4
Fore
SplineSet
86 0 m 1xe8
 86 500 l 1
 174 500 l 1
 174 0 l 1xe8
 160 0 l 1
 160 -114 l 1
 230 -114 l 1
 230 -164 l 1
 100 -164 l 1
 100 0 l 1xe4
 86 0 l 1xe8
70 610 m 1xf0
 70 740 l 1
 190 740 l 1
 190 610 l 1
 70 610 l 1xf0
EndSplineSet
EndChar

StartChar: Idotaccent
Encoding: 304 304 263
Width: 270
Flags: W
HStem: 0 21G<90 180> 700 20G<90 180> 810 130<75 195>
VStem: 75 120<810 940> 90 90<0 720>
LayerCount: 4
Fore
SplineSet
75 810 m 1xf0
 75 940 l 1
 195 940 l 1
 195 810 l 1
 75 810 l 1xf0
90 0 m 1xe8
 90 720 l 1
 180 720 l 1
 180 0 l 1
 90 0 l 1xe8
EndSplineSet
EndChar

StartChar: Jcircumflex
Encoding: 308 308 264
Width: 520
Flags: W
HStem: 0 50<160 350> 670 50<140 350>
VStem: 80 80<50 200> 350 90<50 670>
LayerCount: 4
Fore
SplineSet
80 0 m 1
 80 200 l 1
 160 200 l 1
 160 50 l 1
 350 50 l 1
 350 670 l 1
 140 670 l 1
 140 720 l 1
 440 720 l 1
 440 0 l 1
 80 0 l 1
300 912 m 1
 223 800 l 1
 150 800 l 1
 260 960 l 1
 340 960 l 1
 450 800 l 1
 377 800 l 1
 300 912 l 1
EndSplineSet
EndChar

StartChar: jcircumflex
Encoding: 309 309 265
Width: 350
HStem: -200 50<75 192> -20 20G<0 75> 450 50<30 192> 720 20G<166.25 273.75>
VStem: 0 75<-150 0> 192 88<-150 450>
LayerCount: 4
Fore
SplineSet
0 -200 m 1
 0 0 l 1
 75 0 l 1
 75 -150 l 1
 192 -150 l 1
 192 450 l 1
 30 450 l 1
 30 500 l 1
 280 500 l 1
 280 -200 l 1
 0 -200 l 1
220 692 m 1
 143 580 l 1
 70 580 l 1
 180 740 l 1
 260 740 l 1
 370 580 l 1
 297 580 l 1
 220 692 l 1
EndSplineSet
EndChar

StartChar: uni0136
Encoding: 310 310 266
Width: 540
Flags: W
HStem: -160 90<235 285> 0 21G<80 170 370 460> 350 50<170 270 360 370> 700 20G<80 170 373.125 480>
VStem: 80 90<0 350 400 720> 235 90<-160 -70> 370 90<0 350>
LayerCount: 4
Fore
SplineSet
235 -160 m 1
 235 -70 l 1
 325 -70 l 1
 325 -160 l 1
 280 -240 l 1
 230 -240 l 1
 285 -160 l 1
 235 -160 l 1
80 0 m 1
 80 720 l 1
 170 720 l 1
 170 400 l 1
 270 400 l 1
 380 720 l 1
 480 720 l 1
 360 400 l 1
 460 400 l 1
 460 0 l 1
 370 0 l 1
 370 350 l 1
 170 350 l 1
 170 0 l 1
 80 0 l 1
EndSplineSet
EndChar

StartChar: uni0137
Encoding: 311 311 267
Width: 500
HStem: -160 90<205 255> 0 21G<70 158 342 430> 250 50<158 240 330 342> 480 20G<339 450>
VStem: 70 88<0 250 300 720> 205 90<-160 -70> 342 88<0 250>
CounterMasks: 1 0e
LayerCount: 4
Fore
SplineSet
205 -160 m 1
 205 -70 l 1
 295 -70 l 1
 295 -160 l 1
 250 -240 l 1
 200 -240 l 1
 255 -160 l 1
 205 -160 l 1
70 0 m 1
 70 720 l 1
 158 760 l 1
 158 300 l 1
 240 300 l 1
 350 500 l 1
 450 500 l 1
 330 300 l 1
 430 300 l 1
 430 0 l 1
 342 0 l 1
 342 250 l 1
 158 250 l 1
 158 0 l 1
 70 0 l 1
EndSplineSet
EndChar

StartChar: Lacute
Encoding: 313 313 268
Width: 450
Flags: W
HStem: 0 50<170 440> 700 20G<80 170>
VStem: 80 90<50 720>
LayerCount: 4
Fore
SplineSet
240 800 m 1
 170 800 l 1
 290 960 l 1
 400 960 l 1
 240 800 l 1
80 0 m 1
 80 720 l 1
 170 720 l 1
 170 50 l 1
 440 50 l 1
 440 0 l 1
 80 0 l 1
EndSplineSet
EndChar

StartChar: lacute
Encoding: 314 314 269
Width: 260
HStem: 0 21G<86 174>
VStem: 86 88<0 720>
LayerCount: 4
Fore
SplineSet
100 820 m 1
 30 820 l 1
 150 980 l 1
 260 980 l 1
 100 820 l 1
86 0 m 1
 86 720 l 1
 174 760 l 1
 174 0 l 1
 86 0 l 1
EndSplineSet
EndChar

StartChar: uni013B
Encoding: 315 315 270
Width: 450
Flags: W
HStem: -160 90<225 275> 0 50<170 440> 700 20G<80 170>
VStem: 80 90<50 720> 225 90<-160 -70>
LayerCount: 4
Fore
SplineSet
225 -160 m 1
 225 -70 l 1
 315 -70 l 1
 315 -160 l 1
 270 -240 l 1
 220 -240 l 1
 275 -160 l 1
 225 -160 l 1
80 0 m 1
 80 720 l 1
 170 720 l 1
 170 50 l 1
 440 50 l 1
 440 0 l 1
 80 0 l 1
EndSplineSet
EndChar

StartChar: uni013C
Encoding: 316 316 271
Width: 260
HStem: -160 90<85 135> 0 21G<86 174>
VStem: 86 88<-160 -70 0 720>
LayerCount: 4
Fore
SplineSet
85 -160 m 1
 85 -70 l 1
 175 -70 l 1
 175 -160 l 1
 130 -240 l 1
 80 -240 l 1
 135 -160 l 1
 85 -160 l 1
86 0 m 1
 86 720 l 1
 174 760 l 1
 174 0 l 1
 86 0 l 1
EndSplineSet
EndChar

StartChar: Lcaron
Encoding: 317 317 272
Width: 450
Flags: W
HStem: 0 50<170 440> 630 90<335 385>
VStem: 80 90<50 720> 335 90<630 720>
LayerCount: 4
Fore
SplineSet
335 630 m 1
 335 720 l 1
 425 720 l 1
 425 630 l 1
 380 550 l 1
 330 550 l 1
 385 630 l 1
 335 630 l 1
80 0 m 1
 80 720 l 1
 170 720 l 1
 170 50 l 1
 440 50 l 1
 440 0 l 1
 80 0 l 1
EndSplineSet
EndChar

StartChar: lcaron
Encoding: 318 318 273
Width: 260
HStem: 0 21G<86 174> 630 90<235 285>
VStem: 86 88<0 720> 235 90<630 720>
LayerCount: 4
Fore
SplineSet
235 630 m 1
 235 720 l 1
 325 720 l 1
 325 630 l 1
 280 550 l 1
 230 550 l 1
 285 630 l 1
 235 630 l 1
86 0 m 1
 86 720 l 1
 174 760 l 1
 174 0 l 1
 86 0 l 1
EndSplineSet
EndChar

StartChar: Ldot
Encoding: 319 319 274
Width: 450
Flags: W
HStem: 0 50<170 440> 295 130<200 320> 700 20G<80 170>
VStem: 80 90<50 720> 200 120<295 425>
LayerCount: 4
Fore
SplineSet
200 295 m 1
 200 425 l 1
 320 425 l 1
 320 295 l 1
 200 295 l 1
80 0 m 1
 80 720 l 1
 170 720 l 1
 170 50 l 1
 440 50 l 1
 440 0 l 1
 80 0 l 1
EndSplineSet
EndChar

StartChar: ldot
Encoding: 320 320 275
Width: 400
Flags: W
HStem: 0 21G<86 174> 270 130<235 355>
VStem: 86 88<0 720> 235 120<270 400>
LayerCount: 4
Fore
SplineSet
235 270 m 1
 235 400 l 1
 355 400 l 1
 355 270 l 1
 235 270 l 1
86 0 m 1
 86 720 l 1
 174 760 l 1
 174 0 l 1
 86 0 l 1
EndSplineSet
EndChar

StartChar: Nacute
Encoding: 323 323 276
Width: 570
Flags: W
HStem: 0 21G<80 170 400 490> 670 50<170 370>
VStem: 80 90<0 670> 400 90<0 640>
LayerCount: 4
Fore
SplineSet
260 800 m 1
 190 800 l 1
 310 960 l 1
 420 960 l 1
 260 800 l 1
80 0 m 1
 80 720 l 1
 410 720 l 1
 490 640 l 1
 490 0 l 1
 400 0 l 1
 400 640 l 1
 370 670 l 1
 170 670 l 1
 170 0 l 1
 80 0 l 1
EndSplineSet
EndChar

StartChar: nacute
Encoding: 324 324 277
Width: 500
HStem: 0 21G<70 158 342 430> 450 50<158 310> 720 20G<255 380>
VStem: 70 88<0 450> 342 88<0 418>
LayerCount: 4
Fore
SplineSet
220 580 m 1
 150 580 l 1
 270 740 l 1
 380 740 l 1
 220 580 l 1
70 0 m 1
 70 500 l 1
 350 500 l 1
 430 420 l 1
 430 0 l 1
 342 0 l 1
 342 418 l 1
 310 450 l 1
 158 450 l 1
 158 0 l 1
 70 0 l 1
EndSplineSet
EndChar

StartChar: uni0145
Encoding: 325 325 278
Width: 570
Flags: W
HStem: -160 90<245 295> 0 21G<80 170 400 490> 670 50<170 370>
VStem: 80 90<0 670> 245 90<-160 -70> 400 90<0 640>
LayerCount: 4
Fore
SplineSet
245 -160 m 1
 245 -70 l 1
 335 -70 l 1
 335 -160 l 1
 290 -240 l 1
 240 -240 l 1
 295 -160 l 1
 245 -160 l 1
80 0 m 1
 80 720 l 1
 410 720 l 1
 490 640 l 1
 490 0 l 1
 400 0 l 1
 400 640 l 1
 370 670 l 1
 170 670 l 1
 170 0 l 1
 80 0 l 1
EndSplineSet
EndChar

StartChar: uni0146
Encoding: 326 326 279
Width: 500
HStem: -160 90<205 255> 0 21G<70 158 342 430> 450 50<158 310>
VStem: 70 88<0 450> 205 90<-160 -70> 342 88<0 418>
CounterMasks: 1 1c
LayerCount: 4
Fore
SplineSet
205 -160 m 1
 205 -70 l 1
 295 -70 l 1
 295 -160 l 1
 250 -240 l 1
 200 -240 l 1
 255 -160 l 1
 205 -160 l 1
70 0 m 1
 70 500 l 1
 350 500 l 1
 430 420 l 1
 430 0 l 1
 342 0 l 1
 342 418 l 1
 310 450 l 1
 158 450 l 1
 158 0 l 1
 70 0 l 1
EndSplineSet
EndChar

StartChar: Ncaron
Encoding: 327 327 280
Width: 570
Flags: W
HStem: 0 21G<80 170 400 490> 670 50<170 370>
VStem: 80 90<0 670> 400 90<0 640>
LayerCount: 4
Fore
SplineSet
80 0 m 1
 80 720 l 1
 410 720 l 1
 490 640 l 1
 490 0 l 1
 400 0 l 1
 400 640 l 1
 370 670 l 1
 170 670 l 1
 170 0 l 1
 80 0 l 1
290 848 m 1
 367 960 l 1
 440 960 l 1
 330 800 l 1
 250 800 l 1
 140 960 l 1
 213 960 l 1
 290 848 l 1
EndSplineSet
EndChar

StartChar: ncaron
Encoding: 328 328 281
Width: 500
HStem: 0 21G<70 158 342 430> 450 50<158 310> 720 20G<100 186.75 313.25 400>
VStem: 70 88<0 450> 342 88<0 418>
LayerCount: 4
Fore
SplineSet
70 0 m 1
 70 500 l 1
 350 500 l 1
 430 420 l 1
 430 0 l 1
 342 0 l 1
 342 418 l 1
 310 450 l 1
 158 450 l 1
 158 0 l 1
 70 0 l 1
250 628 m 1
 327 740 l 1
 400 740 l 1
 290 580 l 1
 210 580 l 1
 100 740 l 1
 173 740 l 1
 250 628 l 1
EndSplineSet
EndChar

StartChar: napostrophe
Encoding: 329 329 282
Width: 550
Flags: W
HStem: 0 21G<120 208 392 480> 450 50<208 360> 670 130<65 135>
VStem: 65 120<670 800> 120 88<0 450> 392 88<0 418>
LayerCount: 4
Fore
SplineSet
120 0 m 1xec
 120 500 l 1
 400 500 l 1
 480 420 l 1
 480 0 l 1
 392 0 l 1
 392 418 l 1
 360 450 l 1
 208 450 l 1
 208 0 l 1
 120 0 l 1xec
65 670 m 1xf4
 65 800 l 1
 185 800 l 1
 185 670 l 1
 110 530 l 1
 50 530 l 1
 135 670 l 1
 65 670 l 1xf4
EndSplineSet
EndChar

StartChar: Omacron
Encoding: 332 332 283
Width: 570
Flags: W
HStem: 0 50<170 400> 670 50<170 400> 800 70<135 435>
VStem: 80 90<50 670> 400 90<50 670>
LayerCount: 4
Fore
SplineSet
135 800 m 1
 135 870 l 1
 435 870 l 1
 435 800 l 1
 135 800 l 1
80 0 m 1
 80 720 l 1
 490 720 l 1
 490 0 l 1
 80 0 l 1
170 50 m 1
 400 50 l 1
 400 670 l 1
 170 670 l 1
 170 50 l 1
EndSplineSet
EndChar

StartChar: omacron
Encoding: 333 333 284
Width: 500
HStem: 0 50<158 342> 450 50<158 342> 580 70<100 400>
VStem: 70 88<50 450> 342 88<50 450>
LayerCount: 4
Fore
SplineSet
100 580 m 1
 100 650 l 1
 400 650 l 1
 400 580 l 1
 100 580 l 1
70 0 m 1
 70 500 l 1
 430 500 l 1
 430 0 l 1
 70 0 l 1
158 50 m 1
 342 50 l 1
 342 450 l 1
 158 450 l 1
 158 50 l 1
EndSplineSet
EndChar

StartChar: Obreve
Encoding: 334 334 285
Width: 570
Flags: W
HStem: 0 50<170 400> 670 50<170 400> 790 50<225.879 344.121>
VStem: 80 90<50 670> 125 75<866.076 930> 370 75<866.076 930> 400 90<50 670>
LayerCount: 4
Fore
SplineSet
445 930 m 1xec
 445 838 375 790 285 790 c 0
 195 790 125 838 125 930 c 1
 200 930 l 1
 200 878 230 840 285 840 c 0
 340 840 370 878 370 930 c 1
 445 930 l 1xec
80 0 m 1xf2
 80 720 l 1
 490 720 l 1
 490 0 l 1
 80 0 l 1xf2
170 50 m 1
 400 50 l 1
 400 670 l 1
 170 670 l 1
 170 50 l 1
EndSplineSet
EndChar

StartChar: obreve
Encoding: 335 335 286
Width: 500
HStem: 0 50<158 342> 450 50<158 342> 570 50<190.879 309.121>
VStem: 70 88<50 450> 90 75<646.076 710> 335 75<646.076 710> 342 88<50 450>
LayerCount: 4
Fore
SplineSet
410 710 m 1xec
 410 618 340 570 250 570 c 0
 160 570 90 618 90 710 c 1
 165 710 l 1
 165 658 195 620 250 620 c 0
 305 620 335 658 335 710 c 1
 410 710 l 1xec
70 0 m 1xf2
 70 500 l 1
 430 500 l 1
 430 0 l 1
 70 0 l 1xf2
158 50 m 1
 342 50 l 1
 342 450 l 1
 158 450 l 1
 158 50 l 1
EndSplineSet
EndChar

StartChar: Ohungarumlaut
Encoding: 336 336 287
Width: 570
Flags: W
HStem: 0 50<170 400> 670 50<170 400>
VStem: 80 90<50 670> 400 90<50 670>
LayerCount: 4
Fore
SplineSet
375 800 m 1
 305 800 l 1
 405 960 l 1
 515 960 l 1
 375 800 l 1
175 800 m 1
 105 800 l 1
 205 960 l 1
 315 960 l 1
 175 800 l 1
80 0 m 1
 80 720 l 1
 490 720 l 1
 490 0 l 1
 80 0 l 1
170 50 m 1
 400 50 l 1
 400 670 l 1
 170 670 l 1
 170 50 l 1
EndSplineSet
EndChar

StartChar: ohungarumlaut
Encoding: 337 337 288
Width: 500
HStem: 0 50<158 342> 450 50<158 342> 720 20G<157.5 280 357.5 480>
VStem: 70 88<50 450> 342 88<50 450>
LayerCount: 4
Fore
SplineSet
340 580 m 1
 270 580 l 1
 370 740 l 1
 480 740 l 1
 340 580 l 1
140 580 m 1
 70 580 l 1
 170 740 l 1
 280 740 l 1
 140 580 l 1
70 0 m 1
 70 500 l 1
 430 500 l 1
 430 0 l 1
 70 0 l 1
158 50 m 1
 342 50 l 1
 342 450 l 1
 158 450 l 1
 158 50 l 1
EndSplineSet
EndChar

StartChar: Racute
Encoding: 340 340 289
Width: 570
Flags: W
HStem: 0 21G<80 170 431.515 540> 330 50<170 300 390 400> 670 50<170 400>
VStem: 80 90<0 330 380 670> 400 90<380 670>
LayerCount: 4
Fore
SplineSet
260 800 m 1
 190 800 l 1
 310 960 l 1
 420 960 l 1
 260 800 l 1
80 0 m 1
 80 720 l 1
 490 720 l 1
 490 330 l 1
 390 330 l 1
 540 0 l 1
 440 0 l 1
 300 330 l 1
 170 330 l 1
 170 0 l 1
 80 0 l 1
170 380 m 1
 400 380 l 1
 400 670 l 1
 170 670 l 1
 170 380 l 1
EndSplineSet
EndChar

StartChar: racute
Encoding: 341 341 290
Width: 400
HStem: 0 21G<70 158> 400 100<285 360> 450 50<158 285> 720 20G<215 340>
VStem: 70 88<0 450> 285 75<400 450>
LayerCount: 4
Fore
SplineSet
180 580 m 1x9c
 110 580 l 1
 230 740 l 1
 340 740 l 1
 180 580 l 1x9c
70 0 m 1
 70 500 l 1xbc
 360 500 l 1
 360 400 l 1
 285 400 l 1xdc
 285 450 l 1
 158 450 l 1xbc
 158 0 l 1
 70 0 l 1
EndSplineSet
EndChar

StartChar: uni0156
Encoding: 342 342 291
Width: 570
Flags: W
HStem: -160 90<255 305> 0 21G<80 170 431.515 540> 330 50<170 300 390 400> 670 50<170 400>
VStem: 80 90<0 330 380 670> 255 90<-160 -70> 400 90<380 670>
LayerCount: 4
Fore
SplineSet
255 -160 m 1
 255 -70 l 1
 345 -70 l 1
 345 -160 l 1
 300 -240 l 1
 250 -240 l 1
 305 -160 l 1
 255 -160 l 1
80 0 m 1
 80 720 l 1
 490 720 l 1
 490 330 l 1
 390 330 l 1
 540 0 l 1
 440 0 l 1
 300 330 l 1
 170 330 l 1
 170 0 l 1
 80 0 l 1
170 380 m 1
 400 380 l 1
 400 670 l 1
 170 670 l 1
 170 380 l 1
EndSplineSet
EndChar

StartChar: uni0157
Encoding: 343 343 292
Width: 400
HStem: -160 90<85 135> 0 21G<70 158> 400 100<285 360> 450 50<158 285>
VStem: 70 88<0 450> 85 90<-160 -70> 285 75<400 450>
LayerCount: 4
Fore
SplineSet
85 -160 m 1xc6
 85 -70 l 1
 175 -70 l 1
 175 -160 l 1
 130 -240 l 1
 80 -240 l 1
 135 -160 l 1
 85 -160 l 1xc6
70 0 m 1xda
 70 500 l 1xda
 360 500 l 1
 360 400 l 1
 285 400 l 1xea
 285 450 l 1
 158 450 l 1
 158 0 l 1
 70 0 l 1xda
EndSplineSet
EndChar

StartChar: Rcaron
Encoding: 344 344 293
Width: 570
Flags: W
HStem: 0 21G<80 170 431.515 540> 330 50<170 300 390 400> 670 50<170 400>
VStem: 80 90<0 330 380 670> 400 90<380 670>
LayerCount: 4
Fore
SplineSet
80 0 m 1
 80 720 l 1
 490 720 l 1
 490 330 l 1
 390 330 l 1
 540 0 l 1
 440 0 l 1
 300 330 l 1
 170 330 l 1
 170 0 l 1
 80 0 l 1
170 380 m 1
 400 380 l 1
 400 670 l 1
 170 670 l 1
 170 380 l 1
290 848 m 1
 367 960 l 1
 440 960 l 1
 330 800 l 1
 250 800 l 1
 140 960 l 1
 213 960 l 1
 290 848 l 1
EndSplineSet
EndChar

StartChar: rcaron
Encoding: 345 345 294
Width: 400
HStem: 0 21G<70 158> 400 100<285 360> 450 50<158 285> 720 20G<60 146.75 273.25 360>
VStem: 70 88<0 450> 285 75<400 450>
LayerCount: 4
Fore
SplineSet
70 0 m 1xbc
 70 500 l 1xbc
 360 500 l 1
 360 400 l 1
 285 400 l 1xdc
 285 450 l 1
 158 450 l 1
 158 0 l 1
 70 0 l 1xbc
210 628 m 1
 287 740 l 1
 360 740 l 1
 250 580 l 1
 170 580 l 1
 60 740 l 1
 133 740 l 1
 210 628 l 1
EndSplineSet
EndChar

StartChar: Sacute
Encoding: 346 346 295
Width: 570
Flags: W
HStem: 0 150<70 150> 0 50<150 400> 330 80<170 400> 600 120<410 490> 670 50<170 410>
VStem: 70 80<50 150> 80 90<410 670> 400 90<50 330> 410 80<600 670>
LayerCount: 4
Fore
SplineSet
250 800 m 1x2080
 180 800 l 1
 300 960 l 1
 410 960 l 1
 250 800 l 1x2080
70 0 m 1xa480
 70 150 l 1
 150 150 l 1xa480
 150 50 l 1x6480
 400 50 l 1
 400 330 l 1
 80 330 l 1
 80 720 l 1x6b
 490 720 l 1
 490 600 l 1
 410 600 l 1x3280
 410 670 l 1
 170 670 l 1
 170 410 l 1
 490 410 l 1
 490 0 l 1x6a80
 70 0 l 1xa480
EndSplineSet
EndChar

StartChar: sacute
Encoding: 347 347 296
Width: 500
HStem: 0 100<60 140> 0 50<140 342> 231 78<158 342> 420 80<350 430> 450 50<158 350> 720 20G<255 380>
VStem: 60 80<50 100> 70 88<309 450> 342 88<50 231> 350 80<420 450>
LayerCount: 4
Fore
SplineSet
220 580 m 1x24
 150 580 l 1
 270 740 l 1
 380 740 l 1
 220 580 l 1x24
60 0 m 1xa640
 60 100 l 1
 140 100 l 1xa640
 140 50 l 1x6640
 342 50 l 1
 342 231 l 1
 70 231 l 1
 70 500 l 1x6d80
 430 500 l 1
 430 420 l 1
 350 420 l 1x3540
 350 450 l 1
 158 450 l 1
 158 309 l 1
 430 309 l 1
 430 0 l 1x6d40
 60 0 l 1xa640
EndSplineSet
EndChar

StartChar: Scircumflex
Encoding: 348 348 297
Width: 570
Flags: W
HStem: 0 150<70 150> 0 50<150 400> 330 80<170 400> 600 120<410 490> 670 50<170 410>
VStem: 70 80<50 150> 80 90<410 670> 400 90<50 330> 410 80<600 670>
LayerCount: 4
Fore
SplineSet
70 0 m 1xa480
 70 150 l 1
 150 150 l 1xa480
 150 50 l 1x6480
 400 50 l 1
 400 330 l 1
 80 330 l 1
 80 720 l 1x6b
 490 720 l 1
 490 600 l 1
 410 600 l 1x3280
 410 670 l 1
 170 670 l 1
 170 410 l 1
 490 410 l 1
 490 0 l 1x6a80
 70 0 l 1xa480
280 912 m 1
 203 800 l 1
 130 800 l 1
 240 960 l 1
 320 960 l 1
 430 800 l 1
 357 800 l 1
 280 912 l 1
EndSplineSet
EndChar

StartChar: scircumflex
Encoding: 349 349 298
Width: 500
HStem: 0 100<60 140> 0 50<140 342> 231 78<158 342> 420 80<350 430> 450 50<158 350> 720 20G<196.25 303.75>
VStem: 60 80<50 100> 70 88<309 450> 342 88<50 231> 350 80<420 450>
LayerCount: 4
Fore
SplineSet
60 0 m 1xa640
 60 100 l 1
 140 100 l 1xa640
 140 50 l 1x6640
 342 50 l 1
 342 231 l 1
 70 231 l 1
 70 500 l 1x6d80
 430 500 l 1
 430 420 l 1
 350 420 l 1x3540
 350 450 l 1
 158 450 l 1
 158 309 l 1
 430 309 l 1
 430 0 l 1x6d40
 60 0 l 1xa640
250 692 m 1
 173 580 l 1
 100 580 l 1
 210 740 l 1
 290 740 l 1
 400 580 l 1
 327 580 l 1
 250 692 l 1
EndSplineSet
EndChar

StartChar: Scedilla
Encoding: 350 350 299
Width: 570
Flags: W
HStem: -160 50<180 250> 0 150<70 150> 0 50<150 250 310 400> 330 80<170 400> 600 120<410 490> 670 50<170 410>
VStem: 70 80<50 150> 80 90<410 670> 250 60<-110 0> 400 90<50 330> 410 80<600 670>
LayerCount: 4
Fore
SplineSet
180 -160 m 1xb5a0
 180 -110 l 1
 250 -110 l 1
 250 0 l 1xb5a0
 70 0 l 1
 70 150 l 1
 150 150 l 1xd2a0
 150 50 l 1xb2a0
 400 50 l 1
 400 330 l 1
 80 330 l 1
 80 720 l 1xb5c0
 490 720 l 1
 490 600 l 1
 410 600 l 1x99a0
 410 670 l 1
 170 670 l 1
 170 410 l 1
 490 410 l 1
 490 0 l 1
 310 0 l 1
 310 -160 l 1
 180 -160 l 1xb5a0
EndSplineSet
EndChar

StartChar: scedilla
Encoding: 351 351 300
Width: 500
HStem: -160 50<150 220> 0 100<60 140> 0 50<140 220 280 342> 231 78<158 342> 420 80<350 430> 450 50<158 350>
VStem: 60 80<50 100> 70 88<309 450> 220 60<-110 0> 342 88<50 231> 350 80<420 450>
LayerCount: 4
Fore
SplineSet
150 -160 m 1xb5a0
 150 -110 l 1
 220 -110 l 1
 220 0 l 1xb5a0
 60 0 l 1
 60 100 l 1
 140 100 l 1xd2a0
 140 50 l 1xb2a0
 342 50 l 1
 342 231 l 1
 70 231 l 1
 70 500 l 1xb5c0
 430 500 l 1
 430 420 l 1
 350 420 l 1x99a0
 350 450 l 1
 158 450 l 1
 158 309 l 1
 430 309 l 1
 430 0 l 1
 280 0 l 1
 280 -160 l 1
 150 -160 l 1xb5a0
EndSplineSet
EndChar

StartChar: Scaron
Encoding: 352 352 301
Width: 570
Flags: W
HStem: 0 150<70 150> 0 50<150 400> 330 80<170 400> 600 120<410 490> 670 50<170 410>
VStem: 70 80<50 150> 80 90<410 670> 400 90<50 330> 410 80<600 670>
LayerCount: 4
Fore
SplineSet
70 0 m 1xa480
 70 150 l 1
 150 150 l 1xa480
 150 50 l 1x6480
 400 50 l 1
 400 330 l 1
 80 330 l 1
 80 720 l 1x6b
 490 720 l 1
 490 600 l 1
 410 600 l 1x3280
 410 670 l 1
 170 670 l 1
 170 410 l 1
 490 410 l 1
 490 0 l 1x6a80
 70 0 l 1xa480
280 848 m 1
 357 960 l 1
 430 960 l 1
 320 800 l 1
 240 800 l 1
 130 960 l 1
 203 960 l 1
 280 848 l 1
EndSplineSet
EndChar

StartChar: scaron
Encoding: 353 353 302
Width: 500
HStem: 0 100<60 140> 0 50<140 342> 231 78<158 342> 420 80<350 430> 450 50<158 350> 720 20G<100 186.75 313.25 400>
VStem: 60 80<50 100> 70 88<309 450> 342 88<50 231> 350 80<420 450>
LayerCount: 4
Fore
SplineSet
60 0 m 1xa640
 60 100 l 1
 140 100 l 1xa640
 140 50 l 1x6640
 342 50 l 1
 342 231 l 1
 70 231 l 1
 70 500 l 1x6d80
 430 500 l 1
 430 420 l 1
 350 420 l 1x3540
 350 450 l 1
 158 450 l 1
 158 309 l 1
 430 309 l 1
 430 0 l 1x6d40
 60 0 l 1xa640
250 628 m 1
 327 740 l 1
 400 740 l 1
 290 580 l 1
 210 580 l 1
 100 740 l 1
 173 740 l 1
 250 628 l 1
EndSplineSet
EndChar

StartChar: uni0162
Encoding: 354 354 303
Width: 470
Flags: W
HStem: -160 50<135 205> 670 50<30 190 280 440>
VStem: 190 90<0 670> 205 60<-110 0>
LayerCount: 4
Fore
SplineSet
135 -160 m 1xd0
 135 -110 l 1
 205 -110 l 1
 205 0 l 1xd0
 190 0 l 1
 190 670 l 1
 30 670 l 1
 30 720 l 1
 440 720 l 1
 440 670 l 1
 280 670 l 1
 280 0 l 1xe0
 265 0 l 1
 265 -160 l 1
 135 -160 l 1xd0
EndSplineSet
EndChar

StartChar: uni0163
Encoding: 355 355 304
Width: 300
HStem: -160 50<50 120> 450 50<20 106 194 280>
VStem: 106 88<0 450 500 600> 120 60<-110 0>
LayerCount: 4
Fore
SplineSet
50 -160 m 1xd0
 50 -110 l 1
 120 -110 l 1
 120 0 l 1xd0
 106 0 l 1
 106 450 l 1
 20 450 l 1
 20 500 l 1
 106 500 l 1
 106 600 l 1
 194 640 l 1
 194 500 l 1
 280 500 l 1
 280 450 l 1
 194 450 l 1
 194 0 l 1xe0
 180 0 l 1
 180 -160 l 1
 50 -160 l 1xd0
EndSplineSet
EndChar

StartChar: Tcaron
Encoding: 356 356 305
Width: 470
Flags: W
HStem: 0 21G<190 280> 670 50<30 190 280 440>
VStem: 190 90<0 670>
LayerCount: 4
Fore
SplineSet
190 0 m 1
 190 670 l 1
 30 670 l 1
 30 720 l 1
 440 720 l 1
 440 670 l 1
 280 670 l 1
 280 0 l 1
 190 0 l 1
235 848 m 1
 312 960 l 1
 385 960 l 1
 275 800 l 1
 195 800 l 1
 85 960 l 1
 158 960 l 1
 235 848 l 1
EndSplineSet
EndChar

StartChar: tcaron
Encoding: 357 357 306
Width: 300
HStem: 0 21G<106 194> 450 50<20 106 194 280> 630 90<245 295>
VStem: 106 88<0 450 500 600> 245 90<630 720>
LayerCount: 4
Fore
SplineSet
245 630 m 1
 245 720 l 1
 335 720 l 1
 335 630 l 1
 290 550 l 1
 240 550 l 1
 295 630 l 1
 245 630 l 1
106 0 m 1
 106 450 l 1
 20 450 l 1
 20 500 l 1
 106 500 l 1
 106 600 l 1
 194 640 l 1
 194 500 l 1
 280 500 l 1
 280 450 l 1
 194 450 l 1
 194 0 l 1
 106 0 l 1
EndSplineSet
EndChar

StartChar: Utilde
Encoding: 360 360 307
Width: 570
Flags: W
HStem: 0 50<200 400> 700 20G<80 170 400 490> 800 70<297.234 399.821> 850 70<170.179 272.766>
VStem: 80 90<80 720> 105 60<800 846.576> 400 90<50 720> 405 60<873.424 920>
LayerCount: 4
Fore
SplineSet
205 850 m 0xd5
 178 850 165 834 165 800 c 1
 105 800 l 1xe5
 105 873 150 920 205 920 c 0xd5
 280 920 306 870 365 870 c 0xe5
 392 870 405 886 405 920 c 1
 465 920 l 1xd5
 465 847 420 800 365 800 c 0xe5
 290 800 264 850 205 850 c 0xd5
160 0 m 1
 80 80 l 1
 80 720 l 1
 170 720 l 1
 170 80 l 1
 200 50 l 1
 400 50 l 1
 400 720 l 1
 490 720 l 1
 490 0 l 1xca
 160 0 l 1
EndSplineSet
EndChar

StartChar: utilde
Encoding: 361 361 308
Width: 500
HStem: 0 50<190 340> 480 20G<70 158 340 430> 580 70<262.234 364.821> 630 70<135.179 237.766>
VStem: 70 88<82 500> 70 60<580 626.576> 340 90<50 500> 370 60<653.424 700>
LayerCount: 4
Fore
SplineSet
170 630 m 0xd5
 143 630 130 614 130 580 c 1
 70 580 l 1xe5
 70 653 115 700 170 700 c 0xd5
 245 700 271 650 330 650 c 0xe5
 357 650 370 666 370 700 c 1
 430 700 l 1xd5
 430 627 385 580 330 580 c 0xe5
 255 580 229 630 170 630 c 0xd5
150 0 m 1
 70 80 l 1xc5
 70 500 l 1
 158 500 l 1
 158 82 l 1
 190 50 l 1
 340 50 l 1
 340 500 l 1
 430 500 l 1xca
 430 0 l 1
 150 0 l 1
EndSplineSet
EndChar

StartChar: Umacron
Encoding: 362 362 309
Width: 570
Flags: W
HStem: 0 50<200 400> 700 20G<80 170 400 490> 800 70<135 435>
VStem: 80 90<80 720> 400 90<50 720>
LayerCount: 4
Fore
SplineSet
135 800 m 1
 135 870 l 1
 435 870 l 1
 435 800 l 1
 135 800 l 1
160 0 m 1
 80 80 l 1
 80 720 l 1
 170 720 l 1
 170 80 l 1
 200 50 l 1
 400 50 l 1
 400 720 l 1
 490 720 l 1
 490 0 l 1
 160 0 l 1
EndSplineSet
EndChar

StartChar: umacron
Encoding: 363 363 310
Width: 500
HStem: 0 50<190 340> 480 20G<70 158 340 430> 580 70<100 400>
VStem: 70 88<82 500> 340 90<50 500>
LayerCount: 4
Fore
SplineSet
100 580 m 1
 100 650 l 1
 400 650 l 1
 400 580 l 1
 100 580 l 1
150 0 m 1
 70 80 l 1
 70 500 l 1
 158 500 l 1
 158 82 l 1
 190 50 l 1
 340 50 l 1
 340 500 l 1
 430 500 l 1
 430 0 l 1
 150 0 l 1
EndSplineSet
EndChar

StartChar: Ubreve
Encoding: 364 364 311
Width: 570
Flags: W
HStem: 0 50<200 400> 700 20G<80 170 400 490> 790 50<225.879 344.121>
VStem: 80 90<80 720> 125 75<866.076 930> 370 75<866.076 930> 400 90<50 720>
LayerCount: 4
Fore
SplineSet
445 930 m 1xec
 445 838 375 790 285 790 c 0
 195 790 125 838 125 930 c 1
 200 930 l 1
 200 878 230 840 285 840 c 0
 340 840 370 878 370 930 c 1
 445 930 l 1xec
160 0 m 1
 80 80 l 1
 80 720 l 1
 170 720 l 1
 170 80 l 1xf2
 200 50 l 1
 400 50 l 1
 400 720 l 1
 490 720 l 1
 490 0 l 1xea
 160 0 l 1
EndSplineSet
EndChar

StartChar: ubreve
Encoding: 365 365 312
Width: 500
HStem: 0 50<190 340> 480 20G<70 158 340 430> 570 50<190.879 309.121>
VStem: 70 88<82 500> 90 75<646.076 710> 335 75<646.076 710> 340 90<50 500>
LayerCount: 4
Fore
SplineSet
410 710 m 1xec
 410 618 340 570 250 570 c 0
 160 570 90 618 90 710 c 1
 165 710 l 1
 165 658 195 620 250 620 c 0
 305 620 335 658 335 710 c 1
 410 710 l 1xec
150 0 m 1
 70 80 l 1
 70 500 l 1
 158 500 l 1
 158 82 l 1
 190 50 l 1
 340 50 l 1
 340 500 l 1
 430 500 l 1
 430 0 l 1xf2
 150 0 l 1
EndSplineSet
EndChar

StartChar: Uring
Encoding: 366 366 313
Width: 570
Flags: W
HStem: 0 50<200 400> 700 20G<80 170 400 490> 790 40<241.745 328.255> 950 40<241.745 328.255>
VStem: 80 90<80 720> 185 45<840.225 939.775> 340 45<840.225 939.775> 400 90<50 720>
LayerCount: 4
Fore
SplineSet
285 790 m 0
 225 790 185 830 185 890 c 0
 185 950 225 990 285 990 c 0
 345 990 385 950 385 890 c 0
 385 830 345 790 285 790 c 0
285 830 m 0
 325 830 340 860 340 890 c 0
 340 920 325 950 285 950 c 0
 245 950 230 920 230 890 c 0
 230 860 245 830 285 830 c 0
160 0 m 1
 80 80 l 1
 80 720 l 1
 170 720 l 1
 170 80 l 1
 200 50 l 1
 400 50 l 1
 400 720 l 1
 490 720 l 1
 490 0 l 1
 160 0 l 1
EndSplineSet
EndChar

StartChar: uring
Encoding: 367 367 314
Width: 500
HStem: 0 50<190 340> 480 20G<70 158 340 430> 570 40<206.745 293.255> 730 40<206.745 293.255>
VStem: 70 88<82 500> 150 45<620.225 719.775> 305 45<620.225 719.775> 340 90<50 500>
LayerCount: 4
Fore
SplineSet
250 570 m 0xf6
 190 570 150 610 150 670 c 0
 150 730 190 770 250 770 c 0
 310 770 350 730 350 670 c 0
 350 610 310 570 250 570 c 0xf6
250 610 m 0
 290 610 305 640 305 670 c 0
 305 700 290 730 250 730 c 0
 210 730 195 700 195 670 c 0
 195 640 210 610 250 610 c 0
150 0 m 1
 70 80 l 1
 70 500 l 1
 158 500 l 1
 158 82 l 1
 190 50 l 1
 340 50 l 1
 340 500 l 1
 430 500 l 1
 430 0 l 1xf9
 150 0 l 1
EndSplineSet
EndChar

StartChar: Uhungarumlaut
Encoding: 368 368 315
Width: 570
Flags: W
HStem: 0 50<200 400> 700 20G<80 170 400 490>
VStem: 80 90<80 720> 400 90<50 720>
LayerCount: 4
Fore
SplineSet
375 800 m 1
 305 800 l 1
 405 960 l 1
 515 960 l 1
 375 800 l 1
175 800 m 1
 105 800 l 1
 205 960 l 1
 315 960 l 1
 175 800 l 1
160 0 m 1
 80 80 l 1
 80 720 l 1
 170 720 l 1
 170 80 l 1
 200 50 l 1
 400 50 l 1
 400 720 l 1
 490 720 l 1
 490 0 l 1
 160 0 l 1
EndSplineSet
EndChar

StartChar: uhungarumlaut
Encoding: 369 369 316
Width: 500
HStem: 0 50<190 340> 480 20G<70 158 340 430> 720 20G<157.5 280 357.5 480>
VStem: 70 88<82 500> 340 90<50 500>
LayerCount: 4
Fore
SplineSet
340 580 m 1
 270 580 l 1
 370 740 l 1
 480 740 l 1
 340 580 l 1
140 580 m 1
 70 580 l 1
 170 740 l 1
 280 740 l 1
 140 580 l 1
150 0 m 1
 70 80 l 1
 70 500 l 1
 158 500 l 1
 158 82 l 1
 190 50 l 1
 340 50 l 1
 340 500 l 1
 430 500 l 1
 430 0 l 1
 150 0 l 1
EndSplineSet
EndChar

StartChar: Uogonek
Encoding: 370 370 317
Width: 570
Flags: W
HStem: -160 50<315 385> 0 50<200 255 315 400> 700 20G<80 170 400 490>
VStem: 80 90<80 720> 255 60<-110 0> 400 90<50 720>
CounterMasks: 1 1c
LayerCount: 4
Fore
SplineSet
160 0 m 1
 80 80 l 1
 80 720 l 1
 170 720 l 1
 170 80 l 1
 200 50 l 1
 400 50 l 1
 400 720 l 1
 490 720 l 1
 490 0 l 1
 315 0 l 1
 315 -110 l 1
 385 -110 l 1
 385 -160 l 1
 255 -160 l 1
 255 0 l 1
 160 0 l 1
EndSplineSet
EndChar

StartChar: uogonek
Encoding: 371 371 318
Width: 500
HStem: -160 50<400 470> 0 50<190 340> 480 20G<70 158 340 430>
VStem: 70 88<82 500> 340 90<50 500> 340 60<-110 0>
LayerCount: 4
Fore
SplineSet
150 0 m 1xf4
 70 80 l 1
 70 500 l 1
 158 500 l 1
 158 82 l 1
 190 50 l 1
 340 50 l 1
 340 500 l 1
 430 500 l 1
 430 0 l 1xf8
 400 0 l 1
 400 -110 l 1
 470 -110 l 1
 470 -160 l 1
 340 -160 l 1
 340 0 l 1
 150 0 l 1xf4
EndSplineSet
EndChar

StartChar: Wcircumflex
Encoding: 372 372 319
Width: 820
Flags: W
HStem: 0 50<170 365 455 620> 700 20G<80 170 365 455 650 740>
VStem: 80 90<50 720> 365 90<50 720> 650 90<80 720>
CounterMasks: 1 38
LayerCount: 4
Fore
SplineSet
80 0 m 1
 80 720 l 1
 170 720 l 1
 170 50 l 1
 365 50 l 1
 365 720 l 1
 455 720 l 1
 455 50 l 1
 620 50 l 1
 650 80 l 1
 650 720 l 1
 740 720 l 1
 740 80 l 1
 660 0 l 1
 80 0 l 1
410 912 m 1
 333 800 l 1
 260 800 l 1
 370 960 l 1
 450 960 l 1
 560 800 l 1
 487 800 l 1
 410 912 l 1
EndSplineSet
EndChar

StartChar: wcircumflex
Encoding: 373 373 320
Width: 700
HStem: 0 50<158 306 394 510> 480 20G<70 158 306 394 542 630> 720 20G<296.25 403.75>
VStem: 70 88<50 500> 306 88<50 500> 542 88<82 500>
CounterMasks: 1 1c
LayerCount: 4
Fore
SplineSet
70 0 m 1
 70 500 l 1
 158 500 l 1
 158 50 l 1
 306 50 l 1
 306 500 l 1
 394 500 l 1
 394 50 l 1
 510 50 l 1
 542 82 l 1
 542 500 l 1
 630 500 l 1
 630 80 l 1
 550 0 l 1
 70 0 l 1
350 692 m 1
 273 580 l 1
 200 580 l 1
 310 740 l 1
 390 740 l 1
 500 580 l 1
 427 580 l 1
 350 692 l 1
EndSplineSet
EndChar

StartChar: Ycircumflex
Encoding: 374 374 321
Width: 520
Flags: W
HStem: 0 21G<215 305> 310 50<160 215 305 360> 700 20G<70 160 360 450>
VStem: 70 90<360 720> 215 90<0 310> 360 90<360 720>
CounterMasks: 1 1c
LayerCount: 4
Fore
SplineSet
215 0 m 1
 215 310 l 1
 70 310 l 1
 70 720 l 1
 160 720 l 1
 160 360 l 1
 360 360 l 1
 360 720 l 1
 450 720 l 1
 450 310 l 1
 305 310 l 1
 305 0 l 1
 215 0 l 1
260 912 m 1
 183 800 l 1
 110 800 l 1
 220 960 l 1
 300 960 l 1
 410 800 l 1
 337 800 l 1
 260 912 l 1
EndSplineSet
EndChar

StartChar: ycircumflex
Encoding: 375 375 322
Width: 500
HStem: -200 50<70 342> 50 50<158 342> 480 20G<70 158 342 430> 720 20G<196.25 303.75>
VStem: 70 88<100 500> 342 88<-150 50 100 500>
LayerCount: 4
Fore
SplineSet
70 -200 m 1
 70 -150 l 1
 342 -150 l 1
 342 50 l 1
 70 50 l 1
 70 500 l 1
 158 500 l 1
 158 100 l 1
 342 100 l 1
 342 500 l 1
 430 500 l 1
 430 -200 l 1
 70 -200 l 1
250 692 m 1
 173 580 l 1
 100 580 l 1
 210 740 l 1
 290 740 l 1
 400 580 l 1
 327 580 l 1
 250 692 l 1
EndSplineSet
EndChar

StartChar: Ydieresis
Encoding: 376 376 323
Width: 520
Flags: W
HStem: 0 21G<215 305> 310 50<160 215 305 360> 700 20G<70 160 360 450> 810 130<100 190 320 410>
VStem: 70 90<360 720> 100 90<810 940> 215 90<0 310> 320 90<810 940> 360 90<360 720>
LayerCount: 4
Fore
SplineSet
100 810 m 1xf6
 100 940 l 1
 190 940 l 1
 190 810 l 1
 100 810 l 1xf6
320 810 m 1xf3
 320 940 l 1
 410 940 l 1
 410 810 l 1
 320 810 l 1xf3
215 0 m 1
 215 310 l 1
 70 310 l 1
 70 720 l 1
 160 720 l 1
 160 360 l 1
 360 360 l 1
 360 720 l 1
 450 720 l 1
 450 310 l 1xfa80
 305 310 l 1
 305 0 l 1
 215 0 l 1
EndSplineSet
EndChar

StartChar: Zacute
Encoding: 377 377 324
Width: 520
Flags: W
HStem: 0 50<160 450> 670 50<70 350>
LayerCount: 4
Fore
SplineSet
230 800 m 1
 160 800 l 1
 280 960 l 1
 390 960 l 1
 230 800 l 1
70 0 m 1
 70 70 l 1
 350 670 l 1
 70 670 l 1
 70 720 l 1
 440 720 l 1
 440 650 l 1
 160 50 l 1
 450 50 l 1
 450 0 l 1
 70 0 l 1
EndSplineSet
EndChar

StartChar: zacute
Encoding: 378 378 325
Width: 450
HStem: 0 50<140 390> 450 50<60 300> 720 20G<235 360>
VStem: 60 330<70 120>
LayerCount: 4
Fore
SplineSet
200 580 m 1
 130 580 l 1
 250 740 l 1
 360 740 l 1
 200 580 l 1
60 0 m 1
 60 70 l 1
 300 450 l 1
 60 450 l 1
 60 500 l 1
 380 500 l 1
 380 430 l 1
 140 50 l 1
 390 50 l 1
 390 0 l 1
 60 0 l 1
EndSplineSet
EndChar

StartChar: Zdotaccent
Encoding: 379 379 326
Width: 520
Flags: W
HStem: 0 50<160 450> 670 50<70 350> 810 130<200 320>
VStem: 200 120<810 940>
LayerCount: 4
Fore
SplineSet
200 810 m 1
 200 940 l 1
 320 940 l 1
 320 810 l 1
 200 810 l 1
70 0 m 1
 70 70 l 1
 350 670 l 1
 70 670 l 1
 70 720 l 1
 440 720 l 1
 440 650 l 1
 160 50 l 1
 450 50 l 1
 450 0 l 1
 70 0 l 1
EndSplineSet
EndChar

StartChar: zdotaccent
Encoding: 380 380 327
Width: 450
HStem: 0 50<140 390> 450 50<60 300> 590 130<170 290>
VStem: 170 120<590 720>
LayerCount: 4
Fore
SplineSet
170 590 m 1
 170 720 l 1
 290 720 l 1
 290 590 l 1
 170 590 l 1
60 0 m 1
 60 70 l 1
 300 450 l 1
 60 450 l 1
 60 500 l 1
 380 500 l 1
 380 430 l 1
 140 50 l 1
 390 50 l 1
 390 0 l 1
 60 0 l 1
EndSplineSet
EndChar

StartChar: Zcaron
Encoding: 381 381 328
Width: 520
Flags: W
HStem: 0 50<160 450> 670 50<70 350>
LayerCount: 4
Fore
SplineSet
70 0 m 1
 70 70 l 1
 350 670 l 1
 70 670 l 1
 70 720 l 1
 440 720 l 1
 440 650 l 1
 160 50 l 1
 450 50 l 1
 450 0 l 1
 70 0 l 1
260 848 m 1
 337 960 l 1
 410 960 l 1
 300 800 l 1
 220 800 l 1
 110 960 l 1
 183 960 l 1
 260 848 l 1
EndSplineSet
EndChar

StartChar: zcaron
Encoding: 382 382 329
Width: 450
HStem: 0 50<140 390> 450 50<60 300> 720 20G<80 166.75 293.25 380>
VStem: 60 330<70 120>
LayerCount: 4
Fore
SplineSet
60 0 m 1
 60 70 l 1
 300 450 l 1
 60 450 l 1
 60 500 l 1
 380 500 l 1
 380 430 l 1
 140 50 l 1
 390 50 l 1
 390 0 l 1
 60 0 l 1
230 628 m 1
 307 740 l 1
 380 740 l 1
 270 580 l 1
 190 580 l 1
 80 740 l 1
 153 740 l 1
 230 628 l 1
EndSplineSet
EndChar

StartChar: germandbls
Encoding: 223 223 330
Width: 550
Flags: W
HStem: 0 50<230 392> 400 50<240 268 338 392> 690 50<158 382>
VStem: 70 88<0 690> 382 88<582 690> 392 88<50 400>
AnchorPoint: "top" 270 790 basechar 0
AnchorPoint: "bottom" 270 -30 basechar 0
LayerCount: 4
Back
SplineSet
70 0 m 25x7e
 70 740 l 25
 470 740 l 25
 470 582 l 25x7e
 338 450 l 25
 480 450 l 25
 480 0 l 25x7d
 230 0 l 25
 230 100 l 25
 310 100 l 25xbd
 310 50 l 25
 392 50 l 25
 392 400 l 25x7d
 240 400 l 25
 240 450 l 25
 268 450 l 25
 382 564 l 25
 382 690 l 25
 158 690 l 25
 158 0 l 25
 70 0 l 25x7e
  Spiro
    70 0 v
    70 740 v
    470 740 v
    470 582 v
    338 450 v
    480 450 v
    480 0 v
    230 0 v
    230 100 v
    310 100 v
    310 50 v
    392 50 v
    392 400 v
    240 400 v
    240 450 v
    268 450 v
    382 564 v
    382 690 v
    158 690 v
    158 0 v
    0 0 z
  EndSpiro
EndSplineSet
Fore
SplineSet
70 0 m 1xf8
 70 740 l 1
 470 740 l 1
 470 582 l 1xf8
 338 450 l 1
 480 450 l 1
 480 0 l 1
 230 0 l 1
 230 50 l 1
 392 50 l 1
 392 400 l 1xf4
 240 400 l 1
 240 450 l 1
 268 450 l 1
 382 564 l 1
 382 690 l 1
 158 690 l 1
 158 0 l 1
 70 0 l 1xf8
EndSplineSet
EndChar

StartChar: longs
Encoding: 383 383 331
Width: 300
Flags: W
HStem: 0 21G<70 158> 690 50<158 300>
VStem: 70 88<0 690>
AnchorPoint: "top" 190 790 basechar 0
AnchorPoint: "bottom" 160 -30 basechar 0
LayerCount: 4
Fore
SplineSet
70 0 m 1
 70 740 l 1
 300 740 l 1
 300 690 l 1
 158 690 l 1
 158 0 l 1
 70 0 l 1
EndSplineSet
EndChar

StartChar: Hbar
Encoding: 294 294 332
Width: 570
Flags: W
HStem: 0 21G<80 170 400 490> 360 50<170 400> 520 60<40 80 170 400 490 530> 700 20G<80 170 400 490>
VStem: 80 90<0 360 410 520 580 720> 400 90<0 360 410 520 580 720>
AnchorPoint: "ogonek" 445 0 basechar 0
AnchorPoint: "bottom" 290 -30 basechar 0
AnchorPoint: "top" 290 770 basechar 0
LayerCount: 4
Back
SplineSet
80 0 m 1
 80 520 l 1
 40 520 l 1
 40 580 l 1
 80 580 l 1
 80 720 l 1
 170 720 l 1
 170 580 l 1
 400 580 l 1
 400 720 l 1
 490 720 l 1
 490 580 l 1
 530 580 l 1
 530 520 l 1
 490 520 l 1
 490 0 l 1
 400 0 l 1
 400 340 l 1
 170 340 l 1
 170 0 l 1
 80 0 l 1
170 520 m 1
 170 390 l 1
 400 390 l 1
 400 520 l 1
 170 520 l 1
EndSplineSet
Fore
SplineSet
40 520 m 1
 40 580 l 1
 80 580 l 1
 80 720 l 1
 170 720 l 1
 170 580 l 1
 400 580 l 1
 400 720 l 1
 490 720 l 1
 490 580 l 1
 530 580 l 1
 530 520 l 1
 490 520 l 1
 490 0 l 1
 400 0 l 1
 400 360 l 1
 170 360 l 1
 170 0 l 1
 80 0 l 1
 80 520 l 1
 40 520 l 1
400 520 m 1
 170 520 l 1
 170 410 l 1
 400 410 l 1
 400 520 l 1
EndSplineSet
EndChar

StartChar: hbar
Encoding: 295 295 333
Width: 500
Flags: W
HStem: 0 21G<70 158 342 430> 450 50<158 342> 580 60<30 70 158 300>
VStem: 70 88<0 450 500 580 640 720> 342 88<0 450>
AnchorPoint: "top" 120 790 basechar 0
AnchorPoint: "bottom" 255 -30 basechar 0
LayerCount: 4
Fore
SplineSet
30 580 m 1
 30 640 l 1
 70 640 l 1
 70 720 l 1
 158 760 l 1
 158 640 l 1
 300 640 l 1
 300 580 l 1
 158 580 l 1
 158 500 l 1
 430 500 l 1
 430 0 l 1
 342 0 l 1
 342 450 l 1
 158 450 l 1
 158 0 l 1
 70 0 l 1
 70 580 l 1
 30 580 l 1
EndSplineSet
EndChar

StartChar: IJ
Encoding: 306 306 334
Width: 720
Flags: W
HStem: 0 50<360 550> 670 50<340 550>
VStem: 90 90<0 720> 280 80<50 200> 550 90<50 670>
LayerCount: 4
Fore
SplineSet
280 0 m 1
 280 200 l 1
 360 200 l 1
 360 50 l 1
 550 50 l 1
 550 670 l 1
 340 670 l 1
 340 720 l 1
 640 720 l 1
 640 0 l 1
 280 0 l 1
90 0 m 1
 90 720 l 1
 180 720 l 1
 180 0 l 1
 90 0 l 1
EndSplineSet
EndChar

StartChar: ij
Encoding: 307 307 335
Width: 580
Flags: W
HStem: -200 150<230 305> -200 50<305 422> 0 21G<86 174> 450 50<260 422> 610 130<70 190 390 510>
VStem: 70 120<610 740> 86 88<0 500> 230 75<-150 -50> 390 120<610 740> 422 88<-150 450>
LayerCount: 4
Fore
SplineSet
390 610 m 1x3980
 390 740 l 1
 510 740 l 1
 510 610 l 1
 390 610 l 1x3980
230 -200 m 1xb940
 230 -50 l 1
 305 -50 l 1xb940
 305 -150 l 1
 422 -150 l 1
 422 450 l 1
 260 450 l 1
 260 500 l 1
 510 500 l 1
 510 -200 l 1x7940
 230 -200 l 1xb940
86 0 m 1x3b
 86 500 l 1
 174 500 l 1
 174 0 l 1
 86 0 l 1x3b
70 610 m 1x3d
 70 740 l 1
 190 740 l 1
 190 610 l 1
 70 610 l 1x3d
EndSplineSet
EndChar

StartChar: kgreenlandic
Encoding: 312 312 336
Width: 500
Flags: W
HStem: 0 21G<70 158 342 430> 250 50<158 240 330 342> 480 20G<70 158 339 450>
VStem: 70 88<0 250 300 500> 342 88<0 250>
AnchorPoint: "top" 250 550 basechar 0
AnchorPoint: "bottom" 250 -30 basechar 0
LayerCount: 4
Fore
SplineSet
70 0 m 1
 70 500 l 1
 158 500 l 1
 158 300 l 1
 240 300 l 1
 350 500 l 1
 450 500 l 1
 330 300 l 1
 430 300 l 1
 430 0 l 1
 342 0 l 1
 342 250 l 1
 158 250 l 1
 158 0 l 1
 70 0 l 1
EndSplineSet
EndChar

StartChar: Lslash
Encoding: 321 321 337
Width: 450
Flags: W
HStem: 0 50<170 440> 700 20G<80 170>
VStem: 80 90<50 284 415 720>
LayerCount: 4
Fore
SplineSet
30 250 m 1
 30 320 l 1
 80 354 l 1
 80 720 l 1
 170 720 l 1
 170 415 l 1
 280 490 l 1
 280 420 l 1
 170 345 l 1
 170 50 l 1
 440 50 l 1
 440 0 l 1
 80 0 l 1
 80 284 l 1
 30 250 l 1
EndSplineSet
EndChar

StartChar: lslash
Encoding: 322 322 338
Width: 260
Flags: W
HStem: 0 21G<86 174>
VStem: 86 88<0 269 381 720>
LayerCount: 4
Fore
SplineSet
20 230 m 1
 20 290 l 1
 86 329 l 1
 86 720 l 1
 174 760 l 1
 174 381 l 1
 240 420 l 1
 240 360 l 1
 174 321 l 1
 174 0 l 1
 86 0 l 1
 86 269 l 1
 20 230 l 1
EndSplineSet
EndChar

StartChar: Eng
Encoding: 330 330 339
Width: 620
Flags: W
HStem: 0 50<310 420> 670 50<170 420>
VStem: 80 90<0 670> 450 90<80 640>
AnchorPoint: "top" 310 770 basechar 0
AnchorPoint: "bottom" 310 -30 basechar 0
LayerCount: 4
Fore
SplineSet
80 0 m 1
 80 720 l 1
 460 720 l 1
 540 640 l 1
 540 80 l 1
 460 0 l 1
 310 0 l 1
 310 50 l 1
 420 50 l 1
 450 80 l 1
 450 640 l 1
 420 670 l 1
 170 670 l 1
 170 0 l 1
 80 0 l 1
EndSplineSet
EndChar

StartChar: eng
Encoding: 331 331 340
Width: 500
Flags: W
HStem: -200 50<190 342> 0 21G<70 158> 450 50<158 310>
VStem: 70 88<0 450> 342 88<-150 418>
AnchorPoint: "top" 250 550 basechar 0
AnchorPoint: "bottom" 250 -230 basechar 0
LayerCount: 4
Fore
SplineSet
70 0 m 1
 70 500 l 1
 350 500 l 1
 430 420 l 1
 430 -200 l 1
 190 -200 l 1
 190 -150 l 1
 342 -150 l 1
 342 418 l 1
 310 450 l 1
 158 450 l 1
 158 0 l 1
 70 0 l 1
EndSplineSet
EndChar

StartChar: OE
Encoding: 338 338 341
Width: 820
Flags: W
HStem: 0 50<170 390 480 760> 350 50<480 730> 670 50<170 390 480 760>
VStem: 80 90<50 670> 390 90<50 350 400 670>
LayerCount: 4
Fore
SplineSet
170 50 m 1
 390 50 l 1
 390 670 l 1
 170 670 l 1
 170 50 l 1
80 0 m 1
 80 720 l 1
 760 720 l 1
 760 670 l 1
 480 670 l 1
 480 400 l 1
 730 400 l 1
 730 350 l 1
 480 350 l 1
 480 50 l 1
 760 50 l 1
 760 0 l 1
 80 0 l 1
EndSplineSet
EndChar

StartChar: oe
Encoding: 339 339 342
Width: 770
Flags: W
HStem: 0 90<625 700> 0 50<158 341 429 625> 250 50<429 612> 450 50<158 341 429 612>
VStem: 70 88<50 450> 341 88<50 250 300 450> 612 88<300 450> 625 75<50 90>
LayerCount: 4
Fore
SplineSet
158 50 m 1x7c
 341 50 l 1
 341 450 l 1
 158 450 l 1
 158 50 l 1x7c
429 300 m 1
 612 300 l 1
 612 450 l 1x3e
 429 450 l 1
 429 300 l 1
70 0 m 1x7d
 70 500 l 1
 700 500 l 1
 700 250 l 1
 429 250 l 1
 429 50 l 1
 625 50 l 1x7d
 625 90 l 1
 700 90 l 1
 700 0 l 1xbd
 70 0 l 1x7d
EndSplineSet
EndChar

StartChar: Tbar
Encoding: 358 358 343
Width: 490
Flags: W
HStem: 0 21G<190 280> 330 60<100 190 280 350> 670 50<30 190 280 440>
VStem: 190 90<0 330 390 670>
AnchorPoint: "top" 225 770 basechar 0
AnchorPoint: "bottom" 225 -30 basechar 0
LayerCount: 4
Fore
SplineSet
100 330 m 1
 100 390 l 1
 190 390 l 1
 190 670 l 1
 30 670 l 1
 30 720 l 1
 440 720 l 1
 440 670 l 1
 280 670 l 1
 280 390 l 1
 350 390 l 1
 350 330 l 1
 280 330 l 1
 280 0 l 1
 190 0 l 1
 190 330 l 1
 100 330 l 1
EndSplineSet
EndChar

StartChar: tbar
Encoding: 359 359 344
Width: 300
Flags: W
HStem: 0 21G<106 194> 250 60<40 106 194 260> 450 50<20 106 194 280>
VStem: 106 88<0 250 310 450 500 600>
AnchorPoint: "top" 150 670 basechar 0
AnchorPoint: "bottom" 150 -30 basechar 0
LayerCount: 4
Fore
SplineSet
40 250 m 1
 40 310 l 1
 106 310 l 1
 106 450 l 1
 20 450 l 1
 20 500 l 1
 106 500 l 1
 106 600 l 1
 194 640 l 1
 194 500 l 1
 280 500 l 1
 280 450 l 1
 194 450 l 1
 194 310 l 1
 260 310 l 1
 260 250 l 1
 194 250 l 1
 194 0 l 1
 106 0 l 1
 106 250 l 1
 40 250 l 1
EndSplineSet
EndChar

StartChar: Ohorn
Encoding: 416 416 345
Width: 660
Flags: W
HStem: 0 50<170 400> 540 40<490 580> 670 50<170 400>
VStem: 80 90<50 670> 400 90<50 540 580 670> 580 60<580 720>
AnchorPoint: "bottom" 285 -30 basechar 0
AnchorPoint: "top" 285 770 basechar 0
LayerCount: 4
Fore
SplineSet
80 0 m 1
 80 720 l 1
 490 720 l 1
 490 580 l 1
 580 580 l 1
 580 720 l 1
 640 720 l 1
 640 540 l 1
 490 540 l 1
 490 0 l 1
 80 0 l 1
170 50 m 1
 400 50 l 1
 400 670 l 1
 170 670 l 1
 170 50 l 1
EndSplineSet
EndChar

StartChar: ohorn
Encoding: 417 417 346
Width: 590
Flags: W
HStem: 0 50<158 342> 320 40<430 510> 450 50<158 342>
VStem: 70 88<50 450> 342 88<50 320 360 450> 510 60<360 500>
AnchorPoint: "bottom" 250 -30 basechar 0
AnchorPoint: "top" 250 550 basechar 0
LayerCount: 4
Fore
SplineSet
70 0 m 1
 70 500 l 1
 430 500 l 1
 430 360 l 1
 510 360 l 1
 510 500 l 1
 570 500 l 1
 570 320 l 1
 430 320 l 1
 430 0 l 1
 70 0 l 1
158 50 m 1
 342 50 l 1
 342 450 l 1
 158 450 l 1
 158 50 l 1
EndSplineSet
EndChar

StartChar: Uhorn
Encoding: 431 431 347
Width: 660
Flags: W
HStem: 0 50<200 400> 540 40<490 580> 700 20G<80 170 400 490 580 640>
VStem: 80 90<80 720> 400 90<50 540 580 720> 580 60<580 720>
AnchorPoint: "bottom" 285 -30 basechar 0
AnchorPoint: "top" 285 770 basechar 0
LayerCount: 4
Fore
SplineSet
160 0 m 1
 80 80 l 1
 80 720 l 1
 170 720 l 1
 170 80 l 1
 200 50 l 1
 400 50 l 1
 400 720 l 1
 490 720 l 1
 490 580 l 1
 580 580 l 1
 580 720 l 1
 640 720 l 1
 640 540 l 1
 490 540 l 1
 490 0 l 1
 160 0 l 1
EndSplineSet
EndChar

StartChar: uhorn
Encoding: 432 432 348
Width: 590
Flags: W
HStem: 0 50<190 340> 320 40<430 510> 480 20G<70 158 340 430 510 570>
VStem: 70 88<82 500> 340 90<50 320 360 500> 510 60<360 500>
AnchorPoint: "bottom" 250 -30 basechar 0
AnchorPoint: "top" 250 550 basechar 0
LayerCount: 4
Fore
SplineSet
150 0 m 1
 70 80 l 1
 70 500 l 1
 158 500 l 1
 158 82 l 1
 190 50 l 1
 340 50 l 1
 340 500 l 1
 430 500 l 1
 430 360 l 1
 510 360 l 1
 510 500 l 1
 570 500 l 1
 570 320 l 1
 430 320 l 1
 430 0 l 1
 150 0 l 1
EndSplineSet
EndChar

StartChar: uni01CD
Encoding: 461 461 349
Width: 570
Flags: W
HStem: 0 21G<80 170 400 490> 230 50<170 400> 670 50<170 400>
VStem: 80 90<0 230 280 670> 400 90<0 230 280 670>
LayerCount: 4
Fore
SplineSet
80 0 m 1
 80 720 l 1
 490 720 l 1
 490 0 l 1
 400 0 l 1
 400 230 l 1
 170 230 l 1
 170 0 l 1
 80 0 l 1
170 280 m 1
 400 280 l 1
 400 670 l 1
 170 670 l 1
 170 280 l 1
285 848 m 1
 362 960 l 1
 435 960 l 1
 325 800 l 1
 245 800 l 1
 135 960 l 1
 208 960 l 1
 285 848 l 1
EndSplineSet
EndChar

StartChar: uni01CE
Encoding: 462 462 350
Width: 480
HStem: 0 50<148 322 410 450> 250 50<148 322> 450 50<70 322> 720 20G<80 166.75 293.25 380>
VStem: 60 88<50 250> 322 88<50 250 300 450>
LayerCount: 4
Fore
SplineSet
148 50 m 1
 322 50 l 1
 322 250 l 1
 148 250 l 1
 148 50 l 1
60 0 m 1
 60 300 l 1
 322 300 l 1
 322 450 l 1
 70 450 l 1
 70 500 l 1
 410 500 l 1
 410 50 l 1
 450 50 l 1
 450 0 l 1
 60 0 l 1
230 628 m 1
 307 740 l 1
 380 740 l 1
 270 580 l 1
 190 580 l 1
 80 740 l 1
 153 740 l 1
 230 628 l 1
EndSplineSet
EndChar

StartChar: uni01CF
Encoding: 463 463 351
Width: 270
Flags: W
HStem: 0 21G<90 180> 700 20G<90 180>
VStem: 90 90<0 720>
LayerCount: 4
Fore
SplineSet
90 0 m 1
 90 720 l 1
 180 720 l 1
 180 0 l 1
 90 0 l 1
135 848 m 1
 212 960 l 1
 285 960 l 1
 175 800 l 1
 95 800 l 1
 -15 960 l 1
 58 960 l 1
 135 848 l 1
EndSplineSet
EndChar

StartChar: uni01D0
Encoding: 464 464 352
Width: 260
HStem: 0 21G<86 174> 480 20G<86 174> 720 20G<-20 66.75 193.25 280>
VStem: 86 88<0 500>
LayerCount: 4
Fore
SplineSet
86 0 m 1
 86 500 l 1
 174 500 l 1
 174 0 l 1
 86 0 l 1
130 628 m 1
 207 740 l 1
 280 740 l 1
 170 580 l 1
 90 580 l 1
 -20 740 l 1
 53 740 l 1
 130 628 l 1
EndSplineSet
EndChar

StartChar: uni01D1
Encoding: 465 465 353
Width: 570
Flags: W
HStem: 0 50<170 400> 670 50<170 400>
VStem: 80 90<50 670> 400 90<50 670>
LayerCount: 4
Fore
SplineSet
80 0 m 1
 80 720 l 1
 490 720 l 1
 490 0 l 1
 80 0 l 1
170 50 m 1
 400 50 l 1
 400 670 l 1
 170 670 l 1
 170 50 l 1
285 848 m 1
 362 960 l 1
 435 960 l 1
 325 800 l 1
 245 800 l 1
 135 960 l 1
 208 960 l 1
 285 848 l 1
EndSplineSet
EndChar

StartChar: uni01D2
Encoding: 466 466 354
Width: 500
HStem: 0 50<158 342> 450 50<158 342> 720 20G<100 186.75 313.25 400>
VStem: 70 88<50 450> 342 88<50 450>
LayerCount: 4
Fore
SplineSet
70 0 m 1
 70 500 l 1
 430 500 l 1
 430 0 l 1
 70 0 l 1
158 50 m 1
 342 50 l 1
 342 450 l 1
 158 450 l 1
 158 50 l 1
250 628 m 1
 327 740 l 1
 400 740 l 1
 290 580 l 1
 210 580 l 1
 100 740 l 1
 173 740 l 1
 250 628 l 1
EndSplineSet
EndChar

StartChar: uni01D3
Encoding: 467 467 355
Width: 570
Flags: W
HStem: 0 50<200 400> 700 20G<80 170 400 490>
VStem: 80 90<80 720> 400 90<50 720>
LayerCount: 4
Fore
SplineSet
160 0 m 1
 80 80 l 1
 80 720 l 1
 170 720 l 1
 170 80 l 1
 200 50 l 1
 400 50 l 1
 400 720 l 1
 490 720 l 1
 490 0 l 1
 160 0 l 1
285 848 m 1
 362 960 l 1
 435 960 l 1
 325 800 l 1
 245 800 l 1
 135 960 l 1
 208 960 l 1
 285 848 l 1
EndSplineSet
EndChar

StartChar: uni01D4
Encoding: 468 468 356
Width: 500
HStem: 0 50<190 340> 480 20G<70 158 340 430> 720 20G<100 186.75 313.25 400>
VStem: 70 88<82 500> 340 90<50 500>
LayerCount: 4
Fore
SplineSet
150 0 m 1
 70 80 l 1
 70 500 l 1
 158 500 l 1
 158 82 l 1
 190 50 l 1
 340 50 l 1
 340 500 l 1
 430 500 l 1
 430 0 l 1
 150 0 l 1
250 628 m 1
 327 740 l 1
 400 740 l 1
 290 580 l 1
 210 580 l 1
 100 740 l 1
 173 740 l 1
 250 628 l 1
EndSplineSet
EndChar

StartChar: uni01D5
Encoding: 469 469 357
Width: 570
Flags: W
HStem: 0 50<200 400> 700 20G<80 170 400 490> 810 130<125 215 345 435> 1000 70<135 435>
VStem: 80 90<80 720> 125 90<810 940> 345 90<810 940> 400 90<50 720>
LayerCount: 4
Fore
SplineSet
135 1000 m 1xf2
 135 1070 l 1
 435 1070 l 1
 435 1000 l 1
 135 1000 l 1xf2
125 810 m 1xf4
 125 940 l 1
 215 940 l 1
 215 810 l 1
 125 810 l 1xf4
345 810 m 1xf2
 345 940 l 1
 435 940 l 1
 435 810 l 1
 345 810 l 1xf2
160 0 m 1
 80 80 l 1
 80 720 l 1
 170 720 l 1
 170 80 l 1
 200 50 l 1
 400 50 l 1
 400 720 l 1
 490 720 l 1
 490 0 l 1xf9
 160 0 l 1
EndSplineSet
EndChar

StartChar: uni01D6
Encoding: 470 470 358
Width: 500
HStem: 0 50<190 340> 480 20G<70 158 340 430> 590 130<90 180 310 400> 780 70<100 400>
VStem: 70 88<82 500> 90 90<590 720> 310 90<590 720> 340 90<50 500>
LayerCount: 4
Fore
SplineSet
100 780 m 1xf2
 100 850 l 1
 400 850 l 1
 400 780 l 1
 100 780 l 1xf2
90 590 m 1xf4
 90 720 l 1
 180 720 l 1
 180 590 l 1
 90 590 l 1xf4
310 590 m 1xf2
 310 720 l 1
 400 720 l 1
 400 590 l 1
 310 590 l 1xf2
150 0 m 1
 70 80 l 1
 70 500 l 1
 158 500 l 1
 158 82 l 1
 190 50 l 1
 340 50 l 1
 340 500 l 1
 430 500 l 1
 430 0 l 1xf9
 150 0 l 1
EndSplineSet
EndChar

StartChar: uni01D7
Encoding: 471 471 359
Width: 570
Flags: W
HStem: 0 50<200 400> 700 20G<80 170 400 490> 810 130<125 215 345 435>
VStem: 80 90<80 720> 125 90<810 940> 345 90<810 940> 400 90<50 720>
LayerCount: 4
Fore
SplineSet
255 1000 m 1xe0
 185 1000 l 1
 305 1160 l 1
 415 1160 l 1
 255 1000 l 1xe0
125 810 m 1xe8
 125 940 l 1
 215 940 l 1
 215 810 l 1
 125 810 l 1xe8
345 810 m 1xe4
 345 940 l 1
 435 940 l 1
 435 810 l 1
 345 810 l 1xe4
160 0 m 1
 80 80 l 1
 80 720 l 1
 170 720 l 1
 170 80 l 1
 200 50 l 1
 400 50 l 1
 400 720 l 1
 490 720 l 1
 490 0 l 1xf2
 160 0 l 1
EndSplineSet
EndChar

StartChar: uni01D8
Encoding: 472 472 360
Width: 500
HStem: 0 50<190 340> 480 20G<70 158 340 430> 590 130<90 180 310 400>
VStem: 70 88<82 500> 90 90<590 720> 310 90<590 720> 340 90<50 500>
LayerCount: 4
Fore
SplineSet
220 780 m 1xe0
 150 780 l 1
 270 940 l 1
 380 940 l 1
 220 780 l 1xe0
90 590 m 1xe8
 90 720 l 1
 180 720 l 1
 180 590 l 1
 90 590 l 1xe8
310 590 m 1xe4
 310 720 l 1
 400 720 l 1
 400 590 l 1
 310 590 l 1xe4
150 0 m 1
 70 80 l 1
 70 500 l 1
 158 500 l 1
 158 82 l 1
 190 50 l 1
 340 50 l 1
 340 500 l 1
 430 500 l 1
 430 0 l 1xf2
 150 0 l 1
EndSplineSet
EndChar

StartChar: uni01D9
Encoding: 473 473 361
Width: 570
Flags: W
HStem: 0 50<200 400> 700 20G<80 170 400 490> 810 130<125 215 345 435>
VStem: 80 90<80 720> 125 90<810 940> 345 90<810 940> 400 90<50 720>
LayerCount: 4
Fore
SplineSet
125 810 m 1xe8
 125 940 l 1
 215 940 l 1
 215 810 l 1
 125 810 l 1xe8
345 810 m 1xe4
 345 940 l 1
 435 940 l 1
 435 810 l 1
 345 810 l 1xe4
160 0 m 1
 80 80 l 1
 80 720 l 1
 170 720 l 1
 170 80 l 1
 200 50 l 1
 400 50 l 1
 400 720 l 1
 490 720 l 1
 490 0 l 1xf2
 160 0 l 1
285 1048 m 1
 362 1160 l 1
 435 1160 l 1xe4
 325 1000 l 1
 245 1000 l 1
 135 1160 l 1
 208 1160 l 1
 285 1048 l 1
EndSplineSet
EndChar

StartChar: uni01DA
Encoding: 474 474 362
Width: 500
HStem: 0 50<190 340> 480 20G<70 158 340 430> 590 130<90 180 310 400>
VStem: 70 88<82 500> 90 90<590 720> 310 90<590 720> 340 90<50 500>
LayerCount: 4
Fore
SplineSet
90 590 m 1xe8
 90 720 l 1
 180 720 l 1
 180 590 l 1
 90 590 l 1xe8
310 590 m 1xe4
 310 720 l 1
 400 720 l 1
 400 590 l 1
 310 590 l 1xe4
150 0 m 1
 70 80 l 1
 70 500 l 1
 158 500 l 1
 158 82 l 1
 190 50 l 1
 340 50 l 1
 340 500 l 1
 430 500 l 1
 430 0 l 1xf2
 150 0 l 1
250 828 m 1
 327 940 l 1
 400 940 l 1xe4
 290 780 l 1
 210 780 l 1
 100 940 l 1
 173 940 l 1
 250 828 l 1
EndSplineSet
EndChar

StartChar: uni01DB
Encoding: 475 475 363
Width: 570
Flags: W
HStem: 0 50<200 400> 700 20G<80 170 400 490> 810 130<125 215 345 435>
VStem: 80 90<80 720> 125 90<810 940> 345 90<810 940> 400 90<50 720>
LayerCount: 4
Fore
SplineSet
315 1000 m 1xe0
 155 1160 l 1
 265 1160 l 1
 385 1000 l 1
 315 1000 l 1xe0
125 810 m 1xe8
 125 940 l 1
 215 940 l 1
 215 810 l 1
 125 810 l 1xe8
345 810 m 1xe4
 345 940 l 1
 435 940 l 1
 435 810 l 1
 345 810 l 1xe4
160 0 m 1
 80 80 l 1
 80 720 l 1
 170 720 l 1
 170 80 l 1
 200 50 l 1
 400 50 l 1
 400 720 l 1
 490 720 l 1
 490 0 l 1xf2
 160 0 l 1
EndSplineSet
EndChar

StartChar: uni01DC
Encoding: 476 476 364
Width: 500
HStem: 0 50<190 340> 480 20G<70 158 340 430> 590 130<90 180 310 400>
VStem: 70 88<82 500> 90 90<590 720> 310 90<590 720> 340 90<50 500>
LayerCount: 4
Fore
SplineSet
280 780 m 1xe0
 120 940 l 1
 230 940 l 1
 350 780 l 1
 280 780 l 1xe0
90 590 m 1xe8
 90 720 l 1
 180 720 l 1
 180 590 l 1
 90 590 l 1xe8
310 590 m 1xe4
 310 720 l 1
 400 720 l 1
 400 590 l 1
 310 590 l 1xe4
150 0 m 1
 70 80 l 1
 70 500 l 1
 158 500 l 1
 158 82 l 1
 190 50 l 1
 340 50 l 1
 340 500 l 1
 430 500 l 1
 430 0 l 1xf2
 150 0 l 1
EndSplineSet
EndChar

StartChar: uni01DD
Encoding: 477 477 365
Width: 500
Flags: W
HStem: 0 50<158 342> 200 50<158 342> 410 90<70 145> 450 50<145 342>
VStem: 70 88<50 200> 70 75<410 450> 342 88<50 200 250 450>
LayerCount: 4
Fore
SplineSet
158 50 m 1xca
 342 50 l 1
 342 200 l 1
 158 200 l 1
 158 50 l 1xca
70 0 m 1xd6
 70 250 l 1
 342 250 l 1
 342 450 l 1
 145 450 l 1xd6
 145 410 l 1
 70 410 l 1
 70 500 l 1xe6
 430 500 l 1
 430 0 l 1
 70 0 l 1xd6
EndSplineSet
EndChar

StartChar: uni0259
Encoding: 601 601 366
Width: 500
Flags: W
HStem: 0 50<158 342> 200 50<158 342> 410 90<70 145> 450 50<145 342>
VStem: 70 88<50 200> 70 75<410 450> 342 88<50 200 250 450>
AnchorPoint: "ogonek" 310 0 basechar 0
AnchorPoint: "top" 250 550 basechar 0
AnchorPoint: "bottom" 250 -30 basechar 0
LayerCount: 4
Fore
SplineSet
158 50 m 1xca
 342 50 l 1
 342 200 l 1
 158 200 l 1
 158 50 l 1xca
70 0 m 1xd6
 70 250 l 1
 342 250 l 1
 342 450 l 1
 145 450 l 1xd6
 145 410 l 1
 70 410 l 1
 70 500 l 1xe6
 430 500 l 1
 430 0 l 1
 70 0 l 1xd6
EndSplineSet
EndChar

StartChar: uni018F
Encoding: 399 399 367
Width: 570
Flags: W
HStem: 0 50<170 400> 310 50<170 400> 670 50<157 400>
VStem: 80 90<50 310> 80 77<550 670> 400 90<50 310 360 670>
LayerCount: 4
Fore
SplineSet
170 50 m 1xf4
 400 50 l 1
 400 310 l 1
 170 310 l 1
 170 50 l 1xf4
80 0 m 1xec
 80 360 l 1
 400 360 l 1
 400 670 l 1
 157 670 l 1
 157 550 l 1
 80 550 l 1
 80 720 l 1
 490 720 l 1
 490 0 l 1
 80 0 l 1xec
EndSplineSet
EndChar

StartChar: two.superior
Encoding: 178 178 368
Width: 400
VWidth: 1060
Flags: W
HStem: 360 70<120 350> 540 40<120 250> 670 110<70 130> 740 40<130 250>
VStem: 70 60<670 740> 70 50<430 540> 250 80<580 740>
LayerCount: 4
Fore
SplineSet
70 360 m 1xd6
 70 580 l 1xd6
 250 580 l 1
 250 740 l 1
 130 740 l 1xda
 130 670 l 1
 70 670 l 1xea
 70 780 l 1xe6
 330 780 l 1
 330 540 l 1
 120 540 l 1
 120 430 l 1
 350 430 l 1
 350 360 l 1
 70 360 l 1xd6
EndSplineSet
EndChar

StartChar: three.superior
Encoding: 179 179 369
Width: 400
VWidth: 1060
Flags: W
HStem: 360 100<60 130> 360 40<130 250> 550 40<140 210> 680 100<70 130> 740 40<130 240>
VStem: 60 70<400 460> 70 60<680 740> 240 80<640 740> 250 80<400 550>
LayerCount: 4
Fore
SplineSet
60 360 m 1xa480
 60 460 l 1
 130 460 l 1xa480
 130 400 l 1
 250 400 l 1
 250 550 l 1x6480
 140 550 l 1
 140 590 l 1
 210 590 l 1
 240 620 l 1
 240 740 l 1
 130 740 l 1x6b
 130 680 l 1
 70 680 l 1
 70 780 l 1x33
 320 780 l 1
 320 640 l 1x2b
 270 590 l 1
 330 590 l 1
 330 360 l 1x6880
 60 360 l 1xa480
EndSplineSet
EndChar

StartChar: one.superior
Encoding: 185 185 370
Width: 400
VWidth: 1060
Flags: W
HStem: 360 40<80 170 250 330> 740 40<80 170>
VStem: 170 80<400 740>
LayerCount: 4
Fore
SplineSet
80 360 m 1
 80 400 l 1
 170 400 l 1
 170 740 l 1
 80 740 l 1
 80 780 l 1
 250 780 l 1
 250 400 l 1
 330 400 l 1
 330 360 l 1
 80 360 l 1
EndSplineSet
EndChar

StartChar: zero.superior
Encoding: 8304 8304 371
Width: 400
VWidth: 1060
Flags: W
HStem: 360 40<150 250> 740 40<150 250>
VStem: 70 80<400 740> 250 80<400 740>
LayerCount: 4
Fore
SplineSet
70 360 m 1
 70 780 l 1
 330 780 l 1
 330 360 l 1
 70 360 l 1
150 400 m 1
 250 400 l 1
 250 740 l 1
 150 740 l 1
 150 400 l 1
EndSplineSet
EndChar

StartChar: four.superior
Encoding: 8308 8308 372
Width: 400
VWidth: 1060
Flags: W
HStem: 490 40<140 240 320 360>
VStem: 60 80<530 780> 240 80<360 490 530 780>
LayerCount: 4
Fore
SplineSet
240 360 m 1
 240 490 l 1
 60 490 l 1
 60 780 l 1
 140 780 l 1
 140 530 l 1
 240 530 l 1
 240 780 l 1
 320 780 l 1
 320 530 l 1
 360 530 l 1
 360 490 l 1
 320 490 l 1
 320 360 l 1
 240 360 l 1
EndSplineSet
EndChar

StartChar: five.superior
Encoding: 8309 8309 373
Width: 400
VWidth: 1060
Flags: W
HStem: 360 100<60 130> 360 40<130 250> 550 70<120 250> 710 70<120 340>
VStem: 60 70<400 460> 70 50<620 710> 250 80<400 550>
LayerCount: 4
Fore
SplineSet
60 360 m 1xba
 60 460 l 1
 130 460 l 1xba
 130 400 l 1x7a
 250 400 l 1
 250 550 l 1
 70 550 l 1
 70 780 l 1
 340 780 l 1
 340 710 l 1
 120 710 l 1
 120 620 l 1
 330 620 l 1
 330 360 l 1x76
 60 360 l 1xba
EndSplineSet
EndChar

StartChar: six.superior
Encoding: 8310 8310 374
Width: 400
VWidth: 1060
Flags: W
HStem: 360 40<150 250> 570 40<150 250> 740 40<150 330>
VStem: 70 80<400 570 610 740> 250 80<400 570>
LayerCount: 4
Fore
SplineSet
70 360 m 1
 70 780 l 1
 330 780 l 1
 330 740 l 1
 150 740 l 1
 150 610 l 1
 330 610 l 1
 330 360 l 1
 70 360 l 1
150 400 m 1
 250 400 l 1
 250 570 l 1
 150 570 l 1
 150 400 l 1
EndSplineSet
EndChar

StartChar: seven.superior
Encoding: 8311 8311 375
Width: 400
VWidth: 1060
Flags: W
HStem: 710 70<110 301>
VStem: 60 50<620 710>
LayerCount: 4
Fore
SplineSet
301 710 m 1
 110 710 l 1
 110 620 l 1
 60 620 l 1
 60 780 l 1
 360 780 l 1
 360 740 l 1
 250 360 l 1
 150 360 l 1
 301 710 l 1
EndSplineSet
EndChar

StartChar: eight.superior
Encoding: 8312 8312 376
Width: 400
VWidth: 1060
Flags: W
HStem: 360 40<140 250> 545 70<170 210> 740 40<150 240>
VStem: 60 80<400 495> 70 80<615 740> 240 80<665 740> 250 80<400 545>
LayerCount: 4
Fore
SplineSet
150 615 m 1xec
 210 615 l 1
 240 645 l 1
 240 740 l 1
 150 740 l 1
 150 615 l 1xec
140 400 m 1xf2
 250 400 l 1
 250 545 l 1
 170 545 l 1
 140 515 l 1
 140 400 l 1xf2
60 360 m 1
 60 495 l 1xf2
 110 545 l 1
 70 545 l 1
 70 780 l 1
 320 780 l 1
 320 665 l 1xec
 270 615 l 1
 330 615 l 1
 330 360 l 1
 60 360 l 1
EndSplineSet
EndChar

StartChar: nine.superior
Encoding: 8313 8313 377
Width: 400
VWidth: 1060
Flags: W
HStem: 540 40<150 240> 740 40<150 250>
VStem: 70 80<580 740> 250 80<580 740>
LayerCount: 4
Fore
SplineSet
120 360 m 1
 240 540 l 1
 70 540 l 1
 70 780 l 1
 330 780 l 1
 330 540 l 1
 220 360 l 1
 120 360 l 1
250 740 m 1
 150 740 l 1
 150 580 l 1
 250 580 l 1
 250 740 l 1
EndSplineSet
EndChar

StartChar: zero.subscript
Encoding: 65536 -1 378
Width: 400
VWidth: 940
Flags: W
HStem: -60 40<150 250> 320 40<150 250>
VStem: 70 80<-20 320> 250 80<-20 320>
LayerCount: 4
Fore
SplineSet
70 -60 m 1
 70 360 l 1
 330 360 l 1
 330 -60 l 1
 70 -60 l 1
150 -20 m 1
 250 -20 l 1
 250 320 l 1
 150 320 l 1
 150 -20 l 1
EndSplineSet
EndChar

StartChar: one.subscript
Encoding: 65537 -1 379
Width: 400
VWidth: 940
Flags: W
HStem: -60 40<80 170 250 330> 320 40<80 170>
VStem: 170 80<-20 320>
LayerCount: 4
Fore
SplineSet
80 -60 m 1
 80 -20 l 1
 170 -20 l 1
 170 320 l 1
 80 320 l 1
 80 360 l 1
 250 360 l 1
 250 -20 l 1
 330 -20 l 1
 330 -60 l 1
 80 -60 l 1
EndSplineSet
EndChar

StartChar: two.subscript
Encoding: 65538 -1 380
Width: 400
VWidth: 940
Flags: W
HStem: -60 70<120 350> 120 40<120 250> 250 110<70 130> 320 40<130 250>
VStem: 70 60<250 320> 70 50<10 120> 250 80<160 320>
LayerCount: 4
Fore
SplineSet
70 -60 m 1xd6
 70 160 l 1xd6
 250 160 l 1
 250 320 l 1
 130 320 l 1xda
 130 250 l 1
 70 250 l 1xea
 70 360 l 1xe6
 330 360 l 1
 330 120 l 1
 120 120 l 1
 120 10 l 1
 350 10 l 1
 350 -60 l 1
 70 -60 l 1xd6
EndSplineSet
EndChar

StartChar: three.subscript
Encoding: 65539 -1 381
Width: 400
VWidth: 940
Flags: W
HStem: -60 100<60 130> -60 40<130 250> 130 40<140 210> 260 100<70 130> 320 40<130 240>
VStem: 60 70<-20 40> 70 60<260 320> 240 80<220 320> 250 80<-20 130>
LayerCount: 4
Fore
SplineSet
60 -60 m 1xa480
 60 40 l 1
 130 40 l 1xa480
 130 -20 l 1
 250 -20 l 1
 250 130 l 1x6480
 140 130 l 1
 140 170 l 1
 210 170 l 1
 240 200 l 1
 240 320 l 1
 130 320 l 1x6b
 130 260 l 1
 70 260 l 1
 70 360 l 1x33
 320 360 l 1
 320 220 l 1x2b
 270 170 l 1
 330 170 l 1
 330 -60 l 1x6880
 60 -60 l 1xa480
EndSplineSet
EndChar

StartChar: four.subscript
Encoding: 65540 -1 382
Width: 400
VWidth: 940
Flags: W
HStem: 70 40<140 240 320 360>
VStem: 60 80<110 360> 240 80<-60 70 110 360>
LayerCount: 4
Fore
SplineSet
240 -60 m 1
 240 70 l 1
 60 70 l 1
 60 360 l 1
 140 360 l 1
 140 110 l 1
 240 110 l 1
 240 360 l 1
 320 360 l 1
 320 110 l 1
 360 110 l 1
 360 70 l 1
 320 70 l 1
 320 -60 l 1
 240 -60 l 1
EndSplineSet
EndChar

StartChar: five.subscript
Encoding: 65541 -1 383
Width: 400
VWidth: 940
Flags: W
HStem: -60 100<60 130> -60 40<130 250> 130 70<120 250> 290 70<120 340>
VStem: 60 70<-20 40> 70 50<200 290> 250 80<-20 130>
LayerCount: 4
Fore
SplineSet
60 -60 m 1xba
 60 40 l 1
 130 40 l 1xba
 130 -20 l 1x7a
 250 -20 l 1
 250 130 l 1
 70 130 l 1
 70 360 l 1
 340 360 l 1
 340 290 l 1
 120 290 l 1
 120 200 l 1
 330 200 l 1
 330 -60 l 1x76
 60 -60 l 1xba
EndSplineSet
EndChar

StartChar: six.subscript
Encoding: 65542 -1 384
Width: 400
VWidth: 940
Flags: W
HStem: -60 40<150 250> 150 40<150 250> 320 40<150 330>
VStem: 70 80<-20 150 190 320> 250 80<-20 150>
LayerCount: 4
Fore
SplineSet
70 -60 m 1
 70 360 l 1
 330 360 l 1
 330 320 l 1
 150 320 l 1
 150 190 l 1
 330 190 l 1
 330 -60 l 1
 70 -60 l 1
150 -20 m 1
 250 -20 l 1
 250 150 l 1
 150 150 l 1
 150 -20 l 1
EndSplineSet
EndChar

StartChar: seven.subscript
Encoding: 65543 -1 385
Width: 400
VWidth: 940
Flags: W
HStem: 290 70<110 301>
VStem: 60 50<200 290>
LayerCount: 4
Fore
SplineSet
301 290 m 1
 110 290 l 1
 110 200 l 1
 60 200 l 1
 60 360 l 1
 360 360 l 1
 360 320 l 1
 250 -60 l 1
 150 -60 l 1
 301 290 l 1
EndSplineSet
EndChar

StartChar: eight.subscript
Encoding: 65544 -1 386
Width: 400
VWidth: 940
Flags: W
HStem: -60 40<140 250> 125 70<170 210> 320 40<150 240>
VStem: 60 80<-20 75> 70 80<195 320> 240 80<245 320> 250 80<-20 125>
LayerCount: 4
Fore
SplineSet
150 195 m 1xec
 210 195 l 1
 240 225 l 1
 240 320 l 1
 150 320 l 1
 150 195 l 1xec
140 -20 m 1xf2
 250 -20 l 1
 250 125 l 1
 170 125 l 1
 140 95 l 1
 140 -20 l 1xf2
60 -60 m 1
 60 75 l 1xf2
 110 125 l 1
 70 125 l 1
 70 360 l 1
 320 360 l 1
 320 245 l 1xec
 270 195 l 1
 330 195 l 1
 330 -60 l 1
 60 -60 l 1
EndSplineSet
EndChar

StartChar: nine.subscript
Encoding: 65545 -1 387
Width: 400
VWidth: 940
Flags: W
HStem: 120 40<150 240> 320 40<150 250>
VStem: 70 80<160 320> 250 80<160 320>
LayerCount: 4
Fore
SplineSet
120 -60 m 1
 240 120 l 1
 70 120 l 1
 70 360 l 1
 330 360 l 1
 330 120 l 1
 220 -60 l 1
 120 -60 l 1
250 320 m 1
 150 320 l 1
 150 160 l 1
 250 160 l 1
 250 320 l 1
EndSplineSet
EndChar

StartChar: uni2010
Encoding: 8208 8208 388
Width: 400
Flags: W
HStem: 250 80<60 340>
VStem: 60 280<250 330>
LayerCount: 4
Fore
SplineSet
60 250 m 1
 60 330 l 1
 340 330 l 1
 340 250 l 1
 60 250 l 1
EndSplineSet
EndChar

StartChar: uni2011
Encoding: 8209 8209 389
Width: 400
Flags: W
HStem: 250 80<60 340>
VStem: 60 280<250 330>
LayerCount: 4
Fore
SplineSet
60 250 m 1
 60 330 l 1
 340 330 l 1
 340 250 l 1
 60 250 l 1
EndSplineSet
EndChar

StartChar: figuredash
Encoding: 8210 8210 390
Width: 550
Flags: W
HStem: 250 80<60 490>
LayerCount: 4
Fore
SplineSet
60 250 m 1
 60 330 l 1
 490 330 l 1
 490 250 l 1
 60 250 l 1
EndSplineSet
EndChar

StartChar: endash
Encoding: 8211 8211 391
Width: 500
Flags: W
HStem: 250 80<60 440>
LayerCount: 4
Fore
SplineSet
60 250 m 1
 60 330 l 1
 440 330 l 1
 440 250 l 1
 60 250 l 1
EndSplineSet
EndChar

StartChar: emdash
Encoding: 8212 8212 392
Width: 1000
Flags: W
HStem: 250 80<60 940>
LayerCount: 4
Fore
SplineSet
60 250 m 1
 60 330 l 1
 940 330 l 1
 940 250 l 1
 60 250 l 1
EndSplineSet
EndChar

StartChar: uni2015
Encoding: 8213 8213 393
Width: 2000
Flags: W
HStem: 250 80<60 1940>
LayerCount: 4
Fore
SplineSet
60 250 m 1
 60 330 l 1
 1940 330 l 1
 1940 250 l 1
 60 250 l 1
EndSplineSet
EndChar

StartChar: uni2016
Encoding: 8214 8214 394
Width: 680
Flags: W
VStem: 130 80<-160 760> 470 80<-160 760>
LayerCount: 4
Fore
SplineSet
470 760 m 1
 550 760 l 1
 550 -160 l 1
 470 -160 l 1
 470 760 l 1
130 760 m 1
 210 760 l 1
 210 -160 l 1
 130 -160 l 1
 130 760 l 1
EndSplineSet
EndChar

StartChar: quoteright
Encoding: 8217 8217 395
Width: 250
Flags: W
HStem: 590 130<70 140>
VStem: 70 120<590 720>
LayerCount: 4
Fore
SplineSet
70 590 m 1
 70 720 l 1
 190 720 l 1
 190 590 l 1
 115 450 l 1
 55 450 l 1
 140 590 l 1
 70 590 l 1
EndSplineSet
EndChar

StartChar: quoteleft
Encoding: 8216 8216 396
Width: 250
Flags: W
HStem: 450 130<110 180> 700 20G<124.286 195>
VStem: 60 120<450 580>
LayerCount: 4
Fore
SplineSet
60 450 m 1
 60 580 l 1
 135 720 l 1
 195 720 l 1
 110 580 l 1
 180 580 l 1
 180 450 l 1
 60 450 l 1
EndSplineSet
EndChar

StartChar: quotesinglbase
Encoding: 8218 8218 397
Width: 250
Flags: W
HStem: 0 130<70 140>
VStem: 70 120<0 130>
LayerCount: 4
Fore
SplineSet
70 0 m 1
 70 130 l 1
 190 130 l 1
 190 0 l 1
 115 -140 l 1
 55 -140 l 1
 140 0 l 1
 70 0 l 1
EndSplineSet
EndChar

StartChar: quotedblleft
Encoding: 8220 8220 398
Width: 450
Flags: W
HStem: 450 130<110 170 320 380> 700 20G<124.286 195 334.286 405>
VStem: 60 110<450 580> 270 110<450 580>
LayerCount: 4
Fore
SplineSet
270 450 m 1
 270 580 l 1
 345 720 l 1
 405 720 l 1
 320 580 l 1
 380 580 l 1
 380 450 l 1
 270 450 l 1
60 450 m 1
 60 580 l 1
 135 720 l 1
 195 720 l 1
 110 580 l 1
 170 580 l 1
 170 450 l 1
 60 450 l 1
EndSplineSet
EndChar

StartChar: quotedblright
Encoding: 8221 8221 399
Width: 450
Flags: W
HStem: 590 130<70 130 280 340>
VStem: 70 110<590 720> 280 110<590 720>
LayerCount: 4
Fore
SplineSet
280 590 m 1
 280 720 l 1
 390 720 l 1
 390 590 l 1
 315 450 l 1
 255 450 l 1
 340 590 l 1
 280 590 l 1
70 590 m 1
 70 720 l 1
 180 720 l 1
 180 590 l 1
 105 450 l 1
 45 450 l 1
 130 590 l 1
 70 590 l 1
EndSplineSet
EndChar

StartChar: quotedblbase
Encoding: 8222 8222 400
Width: 450
Flags: W
HStem: 0 130<70 130 280 340>
VStem: 70 110<0 130> 280 110<0 130>
LayerCount: 4
Fore
SplineSet
280 0 m 1
 280 130 l 1
 390 130 l 1
 390 0 l 1
 315 -140 l 1
 255 -140 l 1
 340 0 l 1
 280 0 l 1
70 0 m 1
 70 130 l 1
 180 130 l 1
 180 0 l 1
 105 -140 l 1
 45 -140 l 1
 130 0 l 1
 70 0 l 1
EndSplineSet
EndChar

StartChar: quotereversed
Encoding: 8219 8219 401
Width: 250
Flags: W
HStem: 590 130<105 175>
VStem: 55 120<590 720>
LayerCount: 4
Fore
SplineSet
55 590 m 1
 55 720 l 1
 175 720 l 1
 175 590 l 1
 105 590 l 1
 190 450 l 1
 130 450 l 1
 55 590 l 1
EndSplineSet
EndChar

StartChar: uni201F
Encoding: 8223 8223 402
Width: 450
Flags: W
HStem: 590 130<95 155 305 365>
VStem: 45 110<590 720> 255 110<590 720>
LayerCount: 4
Fore
SplineSet
45 590 m 1
 45 720 l 1
 155 720 l 1
 155 590 l 1
 95 590 l 1
 180 450 l 1
 120 450 l 1
 45 590 l 1
255 590 m 1
 255 720 l 1
 365 720 l 1
 365 590 l 1
 305 590 l 1
 390 450 l 1
 330 450 l 1
 255 590 l 1
EndSplineSet
EndChar

StartChar: dagger
Encoding: 8224 8224 403
Width: 500
Flags: W
HStem: 0 21G<215 285> 490 70<60 215 285 440> 700 20G<215 285>
VStem: 215 70<0 490 560 720>
LayerCount: 4
Fore
SplineSet
215 720 m 1
 285 720 l 1
 285 560 l 1
 440 560 l 1
 440 490 l 1
 285 490 l 1
 285 0 l 1
 215 0 l 1
 215 490 l 1
 60 490 l 1
 60 560 l 1
 215 560 l 1
 215 720 l 1
EndSplineSet
EndChar

StartChar: daggerdbl
Encoding: 8225 8225 404
Width: 500
Flags: W
HStem: 0 21G<215 285> 160 70<60 215 285 440> 490 70<60 215 285 440> 700 20G<215 285>
VStem: 215 70<0 160 230 490 560 720>
LayerCount: 4
Fore
SplineSet
215 720 m 1
 285 720 l 1
 285 560 l 1
 440 560 l 1
 440 490 l 1
 285 490 l 1
 285 230 l 1
 440 230 l 1
 440 160 l 1
 285 160 l 1
 285 0 l 1
 215 0 l 1
 215 160 l 1
 60 160 l 1
 60 230 l 1
 215 230 l 1
 215 490 l 1
 60 490 l 1
 60 560 l 1
 215 560 l 1
 215 720 l 1
EndSplineSet
EndChar

StartChar: bullet
Encoding: 8226 8226 405
Width: 300
Flags: W
HStem: 240 160<94.489 205.511>
VStem: 70 160<264.489 375.511>
LayerCount: 4
Fore
SplineSet
150 400 m 0
 195 400 230 365 230 320 c 0
 230 275 195 240 150 240 c 0
 105 240 70 275 70 320 c 0
 70 365 105 400 150 400 c 0
EndSplineSet
EndChar

StartChar: ellipsis
Encoding: 8230 8230 406
Width: 1000
Flags: W
HStem: 0 130<90 210 440 560 790 910>
VStem: 90 120<0 130> 440 120<0 130> 790 120<0 130>
CounterMasks: 1 70
LayerCount: 4
Fore
SplineSet
790 0 m 1
 790 130 l 1
 910 130 l 1
 910 0 l 1
 790 0 l 1
440 0 m 1
 440 130 l 1
 560 130 l 1
 560 0 l 1
 440 0 l 1
90 0 m 1
 90 130 l 1
 210 130 l 1
 210 0 l 1
 90 0 l 1
EndSplineSet
EndChar

StartChar: uni2027
Encoding: 8231 8231 407
Width: 300
Flags: W
HStem: 240 160<94.489 205.511>
VStem: 70 160<264.489 375.511>
LayerCount: 4
Fore
SplineSet
150 400 m 0
 195 400 230 365 230 320 c 0
 230 275 195 240 150 240 c 0
 105 240 70 275 70 320 c 0
 70 365 105 400 150 400 c 0
EndSplineSet
EndChar

StartChar: minute
Encoding: 8242 8242 408
Width: 300
Flags: W
HStem: 440 280
VStem: 70 170
LayerCount: 4
Fore
SplineSet
140 720 m 1
 240 720 l 1
 130 440 l 1
 70 440 l 1
 140 720 l 1
EndSplineSet
EndChar

StartChar: second
Encoding: 8243 8243 409
Width: 500
Flags: W
HStem: 440 280
LayerCount: 4
Fore
SplineSet
340 720 m 1
 440 720 l 1
 330 440 l 1
 270 440 l 1
 340 720 l 1
140 720 m 1
 240 720 l 1
 130 440 l 1
 70 440 l 1
 140 720 l 1
EndSplineSet
EndChar

StartChar: uni2034
Encoding: 8244 8244 410
Width: 700
Flags: W
HStem: 440 280
LayerCount: 4
Fore
SplineSet
540 720 m 1
 640 720 l 1
 530 440 l 1
 470 440 l 1
 540 720 l 1
340 720 m 1
 440 720 l 1
 330 440 l 1
 270 440 l 1
 340 720 l 1
140 720 m 1
 240 720 l 1
 130 440 l 1
 70 440 l 1
 140 720 l 1
EndSplineSet
EndChar

StartChar: guilsinglleft
Encoding: 8249 8249 411
Width: 350
Flags: W
HStem: 0 21G<198 300> 480 20G<198 300>
VStem: 60 240
LayerCount: 4
Fore
SplineSet
60 250 m 1
 210 500 l 1
 300 500 l 1
 150 250 l 1
 300 0 l 1
 210 0 l 1
 60 250 l 1
EndSplineSet
EndChar

StartChar: guilsinglright
Encoding: 8250 8250 412
Width: 350
Flags: W
HStem: 0 21G<50 152> 480 20G<50 152>
VStem: 50 240
LayerCount: 4
Fore
SplineSet
290 250 m 1
 140 0 l 1
 50 0 l 1
 200 250 l 1
 50 500 l 1
 140 500 l 1
 290 250 l 1
EndSplineSet
EndChar

StartChar: uni204A
Encoding: 8266 8266 413
Width: 500
Flags: W
HStem: 420 80<50 299>
LayerCount: 4
Fore
SplineSet
299 420 m 1
 50 420 l 1
 50 500 l 1
 390 500 l 1
 350 -200 l 1
 260 -200 l 1
 299 420 l 1
EndSplineSet
EndChar

StartChar: fraction
Encoding: 8260 8260 414
Width: 140
Flags: W
HStem: 0 21G<-160 -74.3056> 700 20G<214.306 300>
LayerCount: 4
Fore
SplineSet
225 720 m 1
 300 720 l 1
 -85 0 l 1
 -160 0 l 1
 225 720 l 1
EndSplineSet
EndChar

StartChar: perthousand
Encoding: 8240 8240 415
Width: 1200
Flags: W
HStem: 0 50<610 710 950 1050> 290 50<610 710 950 1050> 380 50<150 250> 670 50<150 250>
VStem: 70 80<430 670> 250 80<430 670> 530 80<50 290> 710 80<50 290> 870 80<50 290> 1050 80<50 290>
LayerCount: 4
Fore
SplineSet
70 380 m 1
 70 720 l 1
 330 720 l 1
 330 380 l 1
 70 380 l 1
150 430 m 1
 250 430 l 1
 250 670 l 1
 150 670 l 1
 150 430 l 1
200 -40 m 1
 580 760 l 1
 660 760 l 1
 280 -40 l 1
 200 -40 l 1
530 0 m 1
 530 340 l 1
 790 340 l 1
 790 0 l 1
 530 0 l 1
610 50 m 1
 710 50 l 1
 710 290 l 1
 610 290 l 1
 610 50 l 1
870 0 m 1
 870 340 l 1
 1130 340 l 1
 1130 0 l 1
 870 0 l 1
950 50 m 1
 1050 50 l 1
 1050 290 l 1
 950 290 l 1
 950 50 l 1
EndSplineSet
EndChar

StartChar: uni2080
Encoding: 8320 8320 416
Width: 400
VWidth: 1060
Flags: W
HStem: -60 40<150 250> 320 40<150 250>
VStem: 70 80<-20 320> 250 80<-20 320>
LayerCount: 4
Fore
SplineSet
70 -60 m 1
 70 360 l 1
 330 360 l 1
 330 -60 l 1
 70 -60 l 1
150 -20 m 1
 250 -20 l 1
 250 320 l 1
 150 320 l 1
 150 -20 l 1
EndSplineSet
EndChar

StartChar: uni2081
Encoding: 8321 8321 417
Width: 400
VWidth: 1060
Flags: W
HStem: -60 40<80 170 250 330> 320 40<80 170>
VStem: 170 80<-20 320>
LayerCount: 4
Fore
SplineSet
80 -60 m 1
 80 -20 l 1
 170 -20 l 1
 170 320 l 1
 80 320 l 1
 80 360 l 1
 250 360 l 1
 250 -20 l 1
 330 -20 l 1
 330 -60 l 1
 80 -60 l 1
EndSplineSet
EndChar

StartChar: uni2082
Encoding: 8322 8322 418
Width: 400
VWidth: 1060
Flags: W
HStem: -60 70<120 350> 120 40<120 250> 250 110<70 130> 320 40<130 250>
VStem: 70 60<250 320> 70 50<10 120> 250 80<160 320>
LayerCount: 4
Fore
SplineSet
70 -60 m 1xd6
 70 160 l 1xd6
 250 160 l 1
 250 320 l 1
 130 320 l 1xda
 130 250 l 1
 70 250 l 1xea
 70 360 l 1xe6
 330 360 l 1
 330 120 l 1
 120 120 l 1
 120 10 l 1
 350 10 l 1
 350 -60 l 1
 70 -60 l 1xd6
EndSplineSet
EndChar

StartChar: uni2083
Encoding: 8323 8323 419
Width: 400
VWidth: 1060
Flags: W
HStem: -60 100<60 130> -60 40<130 250> 130 40<140 210> 260 100<70 130> 320 40<130 240>
VStem: 60 70<-20 40> 70 60<260 320> 240 80<220 320> 250 80<-20 130>
LayerCount: 4
Fore
SplineSet
60 -60 m 1xa480
 60 40 l 1
 130 40 l 1xa480
 130 -20 l 1
 250 -20 l 1
 250 130 l 1x6480
 140 130 l 1
 140 170 l 1
 210 170 l 1
 240 200 l 1
 240 320 l 1
 130 320 l 1x6b
 130 260 l 1
 70 260 l 1
 70 360 l 1x33
 320 360 l 1
 320 220 l 1x2b
 270 170 l 1
 330 170 l 1
 330 -60 l 1x6880
 60 -60 l 1xa480
EndSplineSet
EndChar

StartChar: uni2084
Encoding: 8324 8324 420
Width: 400
VWidth: 1060
Flags: W
HStem: 70 40<140 240 320 360>
VStem: 60 80<110 360> 240 80<-60 70 110 360>
LayerCount: 4
Fore
SplineSet
240 -60 m 1
 240 70 l 1
 60 70 l 1
 60 360 l 1
 140 360 l 1
 140 110 l 1
 240 110 l 1
 240 360 l 1
 320 360 l 1
 320 110 l 1
 360 110 l 1
 360 70 l 1
 320 70 l 1
 320 -60 l 1
 240 -60 l 1
EndSplineSet
EndChar

StartChar: uni2085
Encoding: 8325 8325 421
Width: 400
VWidth: 1060
Flags: W
HStem: -60 100<60 130> -60 40<130 250> 130 70<120 250> 290 70<120 340>
VStem: 60 70<-20 40> 70 50<200 290> 250 80<-20 130>
LayerCount: 4
Fore
SplineSet
60 -60 m 1xba
 60 40 l 1
 130 40 l 1xba
 130 -20 l 1x7a
 250 -20 l 1
 250 130 l 1
 70 130 l 1
 70 360 l 1
 340 360 l 1
 340 290 l 1
 120 290 l 1
 120 200 l 1
 330 200 l 1
 330 -60 l 1x76
 60 -60 l 1xba
EndSplineSet
EndChar

StartChar: uni2086
Encoding: 8326 8326 422
Width: 400
VWidth: 1060
Flags: W
HStem: -60 40<150 250> 150 40<150 250> 320 40<150 330>
VStem: 70 80<-20 150 190 320> 250 80<-20 150>
LayerCount: 4
Fore
SplineSet
70 -60 m 1
 70 360 l 1
 330 360 l 1
 330 320 l 1
 150 320 l 1
 150 190 l 1
 330 190 l 1
 330 -60 l 1
 70 -60 l 1
150 -20 m 1
 250 -20 l 1
 250 150 l 1
 150 150 l 1
 150 -20 l 1
EndSplineSet
EndChar

StartChar: uni2087
Encoding: 8327 8327 423
Width: 400
VWidth: 1060
Flags: W
HStem: 290 70<110 301>
VStem: 60 50<200 290>
LayerCount: 4
Fore
SplineSet
301 290 m 1
 110 290 l 1
 110 200 l 1
 60 200 l 1
 60 360 l 1
 360 360 l 1
 360 320 l 1
 250 -60 l 1
 150 -60 l 1
 301 290 l 1
EndSplineSet
EndChar

StartChar: uni2088
Encoding: 8328 8328 424
Width: 400
VWidth: 1060
Flags: W
HStem: -60 40<140 250> 125 70<170 210> 320 40<150 240>
VStem: 60 80<-20 75> 70 80<195 320> 240 80<245 320> 250 80<-20 125>
LayerCount: 4
Fore
SplineSet
150 195 m 1xec
 210 195 l 1
 240 225 l 1
 240 320 l 1
 150 320 l 1
 150 195 l 1xec
140 -20 m 1xf2
 250 -20 l 1
 250 125 l 1
 170 125 l 1
 140 95 l 1
 140 -20 l 1xf2
60 -60 m 1
 60 75 l 1xf2
 110 125 l 1
 70 125 l 1
 70 360 l 1
 320 360 l 1
 320 245 l 1xec
 270 195 l 1
 330 195 l 1
 330 -60 l 1
 60 -60 l 1
EndSplineSet
EndChar

StartChar: uni2089
Encoding: 8329 8329 425
Width: 400
VWidth: 1060
Flags: W
HStem: 120 40<150 240> 320 40<150 250>
VStem: 70 80<160 320> 250 80<160 320>
LayerCount: 4
Fore
SplineSet
120 -60 m 1
 240 120 l 1
 70 120 l 1
 70 360 l 1
 330 360 l 1
 330 120 l 1
 220 -60 l 1
 120 -60 l 1
250 320 m 1
 150 320 l 1
 150 160 l 1
 250 160 l 1
 250 320 l 1
EndSplineSet
EndChar

StartChar: onequarter
Encoding: 188 188 426
Width: 940
Flags: W
HStem: 0 21G<240 325.694 780 860> 130 40<680 780 860 900> 300 40<80 170 250 330> 680 40<80 170>
VStem: 170 80<340 680> 600 80<170 420> 780 80<0 130 170 420>
LayerCount: 4
Fore
SplineSet
780 0 m 1
 780 130 l 1
 600 130 l 1
 600 420 l 1
 680 420 l 1
 680 170 l 1
 780 170 l 1
 780 420 l 1
 860 420 l 1
 860 170 l 1
 900 170 l 1
 900 130 l 1
 860 130 l 1
 860 0 l 1
 780 0 l 1
80 300 m 1
 80 340 l 1
 170 340 l 1
 170 680 l 1
 80 680 l 1
 80 720 l 1
 250 720 l 1
 250 340 l 1
 330 340 l 1
 330 300 l 1
 80 300 l 1
625 720 m 1
 700 720 l 1
 315 0 l 1
 240 0 l 1
 625 720 l 1
EndSplineSet
EndChar

StartChar: onehalf
Encoding: 189 189 427
Width: 940
Flags: W
HStem: 0 70<660 890> 180 40<660 790> 300 40<80 170 250 330> 310 110<610 670> 380 40<670 790> 680 40<80 170>
VStem: 170 80<340 680> 610 60<310 380> 610 50<70 180> 790 80<220 380>
LayerCount: 4
Fore
SplineSet
610 0 m 1xcec0
 610 220 l 1xcec0
 790 220 l 1
 790 380 l 1
 670 380 l 1xcf40
 670 310 l 1
 610 310 l 1xd740
 610 420 l 1xd6c0
 870 420 l 1
 870 180 l 1
 660 180 l 1
 660 70 l 1
 890 70 l 1
 890 0 l 1
 610 0 l 1xcec0
625 720 m 1
 700 720 l 1
 315 0 l 1
 240 0 l 1
 625 720 l 1
80 300 m 1xe640
 80 340 l 1
 170 340 l 1
 170 680 l 1
 80 680 l 1
 80 720 l 1
 250 720 l 1
 250 340 l 1
 330 340 l 1
 330 300 l 1
 80 300 l 1xe640
EndSplineSet
EndChar

StartChar: threequarters
Encoding: 190 190 428
Width: 940
Flags: W
HStem: 0 21G<240 325.694 780 860> 130 40<680 780 860 900> 300 100<60 130> 300 40<130 250> 490 40<140 210> 620 100<70 130> 680 40<130 240>
VStem: 60 70<340 400> 70 60<620 680> 240 80<580 680> 250 80<340 490> 600 80<170 420> 780 80<0 130 170 420>
LayerCount: 4
Fore
SplineSet
60 300 m 1xe938
 60 400 l 1
 130 400 l 1xe938
 130 340 l 1
 250 340 l 1
 250 490 l 1xd938
 140 490 l 1
 140 530 l 1
 210 530 l 1
 240 560 l 1
 240 680 l 1
 130 680 l 1xdad8
 130 620 l 1
 70 620 l 1
 70 720 l 1xccd8
 320 720 l 1
 320 580 l 1xcad8
 270 530 l 1
 330 530 l 1
 330 300 l 1xda38
 60 300 l 1xe938
625 720 m 1xca58
 700 720 l 1
 315 0 l 1
 240 0 l 1
 625 720 l 1xca58
780 0 m 1
 780 130 l 1
 600 130 l 1
 600 420 l 1
 680 420 l 1
 680 170 l 1
 780 170 l 1
 780 420 l 1
 860 420 l 1
 860 170 l 1
 900 170 l 1
 900 130 l 1
 860 130 l 1
 860 0 l 1
 780 0 l 1
EndSplineSet
EndChar

StartChar: zero.dnom
Encoding: 65546 -1 429
Width: 400
VWidth: 1060
Flags: W
HStem: 0 40<150 250> 380 40<150 250>
VStem: 70 80<40 380> 250 80<40 380>
LayerCount: 4
Fore
SplineSet
70 0 m 1
 70 420 l 1
 330 420 l 1
 330 0 l 1
 70 0 l 1
150 40 m 1
 250 40 l 1
 250 380 l 1
 150 380 l 1
 150 40 l 1
EndSplineSet
EndChar

StartChar: one.dnom
Encoding: 65547 -1 430
Width: 400
VWidth: 1060
Flags: W
HStem: 0 40<80 170 250 330> 380 40<80 170>
VStem: 170 80<40 380>
LayerCount: 4
Fore
SplineSet
80 0 m 1
 80 40 l 1
 170 40 l 1
 170 380 l 1
 80 380 l 1
 80 420 l 1
 250 420 l 1
 250 40 l 1
 330 40 l 1
 330 0 l 1
 80 0 l 1
EndSplineSet
EndChar

StartChar: two.dnom
Encoding: 65548 -1 431
Width: 400
VWidth: 1060
Flags: W
HStem: 0 70<120 350> 180 40<120 250> 310 110<70 130> 380 40<130 250>
VStem: 70 60<310 380> 70 50<70 180> 250 80<220 380>
LayerCount: 4
Fore
SplineSet
70 0 m 1xd6
 70 220 l 1xd6
 250 220 l 1
 250 380 l 1
 130 380 l 1xda
 130 310 l 1
 70 310 l 1xea
 70 420 l 1xe6
 330 420 l 1
 330 180 l 1
 120 180 l 1
 120 70 l 1
 350 70 l 1
 350 0 l 1
 70 0 l 1xd6
EndSplineSet
EndChar

StartChar: three.dnom
Encoding: 65549 -1 432
Width: 400
VWidth: 1060
Flags: W
HStem: 0 100<60 130> 0 40<130 250> 190 40<140 210> 320 100<70 130> 380 40<130 240>
VStem: 60 70<40 100> 70 60<320 380> 240 80<280 380> 250 80<40 190>
LayerCount: 4
Fore
SplineSet
60 0 m 1xa480
 60 100 l 1
 130 100 l 1xa480
 130 40 l 1
 250 40 l 1
 250 190 l 1x6480
 140 190 l 1
 140 230 l 1
 210 230 l 1
 240 260 l 1
 240 380 l 1
 130 380 l 1x6b
 130 320 l 1
 70 320 l 1
 70 420 l 1x33
 320 420 l 1
 320 280 l 1x2b
 270 230 l 1
 330 230 l 1
 330 0 l 1x6880
 60 0 l 1xa480
EndSplineSet
EndChar

